Sarastrada-Light.ufo
<glyph name="exclam" format="2">
  <advance width="120"/>
  <unicode hex="0021"/>
  <outline>
    <contour>
      <point x="55" y="84" type="line"/>
      <point x="66" y="84" type="line"/>
      <point x="79" y="750" type="line"/>
      <point x="68" y="750"/>
      <point x="56" y="744"/>
      <point x="56" y="726" type="curve"/>
      <point x="66" y="726" type="line"/>
      <point x="66" y="744"/>
      <point x="54" y="750"/>
      <point x="43" y="750" type="curve"/>
    </contour>
    <component base="period" xOffset="-5" yOffset="2"/>
  </outline>
</glyph>
<glyph name="numbersign" format="2">
  <advance width="668"/>
  <unicode hex="0023"/>
  <outline>
    <contour>
      <point x="328" y="-23" type="line"/>
      <point x="354" y="-23" type="line"/>
      <point x="526" y="680" type="line"/>
      <point x="500" y="680" type="line"/>
    </contour>
    <contour>
      <point x="30" y="177" type="curve"/>
      <point x="578" y="177" type="line"/>
      <point x="578" y="201"/>
      <point x="567" y="212"/>
      <point x="556" y="212" type="curve"/>
      <point x="556" y="197" type="line"/>
      <point x="567" y="197"/>
      <point x="578" y="207"/>
      <point x="578" y="232" type="curve"/>
      <point x="30" y="232" type="line"/>
      <point x="30" y="208"/>
      <point x="41" y="197"/>
      <point x="52" y="197" type="curve"/>
      <point x="52" y="212" type="line"/>
      <point x="41" y="212"/>
      <point x="30" y="201"/>
    </contour>
    <contour>
      <point x="117" y="-23" type="line"/>
      <point x="143" y="-23" type="line"/>
      <point x="315" y="680" type="line"/>
      <point x="289" y="680" type="line"/>
    </contour>
    <contour>
      <point x="90" y="416" type="curve"/>
      <point x="638" y="416" type="line"/>
      <point x="638" y="440"/>
      <point x="627" y="451"/>
      <point x="616" y="451" type="curve"/>
      <point x="616" y="436" type="line"/>
      <point x="627" y="436"/>
      <point x="638" y="446"/>
      <point x="638" y="471" type="curve"/>
      <point x="90" y="471" type="line"/>
      <point x="90" y="447"/>
      <point x="101" y="436"/>
      <point x="112" y="436" type="curve"/>
      <point x="112" y="451" type="line"/>
      <point x="101" y="451"/>
      <point x="90" y="440"/>
    </contour>
  </outline>
</glyph>
<glyph name="dollar" format="2">
  <advance width="462"/>
  <unicode hex="0024"/>
  <outline>
    <contour>
      <point x="231" y="40" type="curve" smooth="yes"/>
      <point x="351" y="40"/>
      <point x="412" y="120"/>
      <point x="412" y="207" type="curve" smooth="yes"/>
      <point x="412" y="300"/>
      <point x="343" y="348"/>
      <point x="231" y="348" type="curve"/>
      <point x="231" y="327" type="line"/>
      <point x="331" y="327"/>
      <point x="392" y="285"/>
      <point x="392" y="209" type="curve" smooth="yes"/>
      <point x="392" y="151"/>
      <point x="387" y="90"/>
      <point x="231" y="90" type="curve" smooth="yes"/>
      <point x="70" y="90"/>
      <point x="67" y="137"/>
      <point x="65" y="157" type="curve"/>
      <point x="50" y="157" type="line"/>
      <point x="50" y="104"/>
      <point x="107" y="40"/>
    </contour>
    <contour>
      <point x="220" y="-60" type="line"/>
      <point x="240" y="-60" type="line"/>
      <point x="240" y="60" type="line"/>
      <point x="220" y="60" type="line"/>
    </contour>
    <contour>
      <point x="231" y="327" type="curve"/>
      <point x="231" y="348" type="line"/>
      <point x="131" y="348"/>
      <point x="70" y="369"/>
      <point x="70" y="451" type="curve" smooth="yes"/>
      <point x="70" y="497"/>
      <point x="75" y="600"/>
      <point x="231" y="600" type="curve" smooth="yes"/>
      <point x="397" y="600"/>
      <point x="397" y="523"/>
      <point x="397" y="523" type="curve"/>
      <point x="412" y="523" type="line"/>
      <point x="412" y="593"/>
      <point x="348" y="650"/>
      <point x="231" y="650" type="curve" smooth="yes"/>
      <point x="111" y="650"/>
      <point x="50" y="573"/>
      <point x="50" y="472" type="curve" smooth="yes"/>
      <point x="50" y="358"/>
      <point x="119" y="327"/>
    </contour>
    <contour>
      <point x="220" y="611" type="line"/>
      <point x="240" y="611" type="line"/>
      <point x="240" y="750" type="line"/>
      <point x="220" y="750" type="line"/>
    </contour>
  </outline>
</glyph>
<glyph name="percent" format="2">
  <advance width="880"/>
  <unicode hex="0025"/>
  <outline>
    <contour>
      <point x="665" y="0" type="curve" smooth="yes"/>
      <point x="780" y="0"/>
      <point x="827" y="116"/>
      <point x="827" y="232" type="curve" smooth="yes"/>
      <point x="827" y="355"/>
      <point x="780" y="463"/>
      <point x="664" y="463" type="curve" smooth="yes"/>
      <point x="543" y="463"/>
      <point x="501" y="348"/>
      <point x="501" y="232" type="curve" smooth="yes"/>
      <point x="501" y="106"/>
      <point x="544" y="0"/>
    </contour>
    <contour>
      <point x="217" y="286" type="curve" smooth="yes"/>
      <point x="332" y="286"/>
      <point x="379" y="402"/>
      <point x="379" y="518" type="curve" smooth="yes"/>
      <point x="379" y="641"/>
      <point x="332" y="749"/>
      <point x="216" y="749" type="curve" smooth="yes"/>
      <point x="95" y="749"/>
      <point x="53" y="634"/>
      <point x="53" y="518" type="curve" smooth="yes"/>
      <point x="53" y="392"/>
      <point x="96" y="286"/>
    </contour>
    <contour>
      <point x="227" y="334" type="curve" smooth="yes"/>
      <point x="85" y="334"/>
      <point x="70" y="436"/>
      <point x="70" y="552" type="curve" smooth="yes"/>
      <point x="70" y="634"/>
      <point x="121" y="699"/>
      <point x="201" y="699" type="curve" smooth="yes"/>
      <point x="344" y="699"/>
      <point x="362" y="598"/>
      <point x="362" y="495" type="curve" smooth="yes"/>
      <point x="362" y="402"/>
      <point x="312" y="334"/>
    </contour>
    <contour>
      <point x="675" y="48" type="curve" smooth="yes"/>
      <point x="533" y="48"/>
      <point x="518" y="150"/>
      <point x="518" y="266" type="curve" smooth="yes"/>
      <point x="518" y="348"/>
      <point x="569" y="413"/>
      <point x="649" y="413" type="curve" smooth="yes"/>
      <point x="792" y="413"/>
      <point x="810" y="312"/>
      <point x="810" y="209" type="curve" smooth="yes"/>
      <point x="810" y="116"/>
      <point x="760" y="48"/>
    </contour>
    <component base="fraction" xOffset="180"/>
  </outline>
</glyph>
<glyph name="ampersand" format="2">
  <advance width="731"/>
  <unicode hex="0026"/>
  <outline>
    <contour>
      <point x="275" y="-10" type="curve" smooth="yes"/>
      <point x="369" y="-10"/>
      <point x="463" y="30"/>
      <point x="463" y="81" type="curve"/>
      <point x="294" y="35" type="line"/>
      <point x="442" y="35"/>
      <point x="639" y="99"/>
      <point x="639" y="424" type="curve"/>
      <point x="624" y="424" type="line"/>
      <point x="624" y="138"/>
      <point x="466" y="50"/>
      <point x="278" y="50" type="curve" smooth="yes"/>
      <point x="149" y="50"/>
      <point x="65" y="84"/>
      <point x="65" y="200" type="curve" smooth="yes"/>
      <point x="65" y="432"/>
      <point x="456" y="270"/>
      <point x="456" y="520" type="curve" smooth="yes"/>
      <point x="456" y="597"/>
      <point x="435" y="688"/>
      <point x="313" y="688" type="curve" smooth="yes"/>
      <point x="190" y="688"/>
      <point x="164" y="597"/>
      <point x="164" y="500" type="curve" smooth="yes"/>
      <point x="164" y="242"/>
      <point x="386" y="77"/>
      <point x="473" y="77" type="curve"/>
      <point x="456" y="81" type="line"/>
      <point x="456" y="30"/>
      <point x="582" y="-10"/>
      <point x="681" y="-10" type="curve"/>
      <point x="681" y="2"/>
      <point x="676" y="19"/>
      <point x="634" y="19" type="curve"/>
      <point x="634" y="11" type="line"/>
      <point x="676" y="11"/>
      <point x="681" y="28"/>
      <point x="681" y="40" type="curve"/>
      <point x="409" y="40"/>
      <point x="179" y="256"/>
      <point x="179" y="500" type="curve" smooth="yes"/>
      <point x="179" y="571"/>
      <point x="217" y="638"/>
      <point x="312" y="638" type="curve" smooth="yes"/>
      <point x="409" y="638"/>
      <point x="441" y="571"/>
      <point x="441" y="520" type="curve" smooth="yes"/>
      <point x="441" y="290"/>
      <point x="50" y="452"/>
      <point x="50" y="200" type="curve" smooth="yes"/>
      <point x="50" y="59"/>
      <point x="137" y="-10"/>
    </contour>
    <component base="serif_sup_izq" xOffset="487"/>
    <component base="serif_sup_der" xOffset="457"/>
  </outline>
</glyph>
<glyph name="quotesingle" format="2">
  <advance width="146"/>
  <unicode hex="0027"/>
  <outline>
    <contour>
      <point x="61" y="606" type="line"/>
      <point x="85" y="606" type="line"/>
      <point x="126" y="754" type="line"/>
      <point x="80" y="754"/>
      <point x="61" y="732"/>
      <point x="61" y="711" type="curve"/>
      <point x="85" y="711" type="line"/>
      <point x="85" y="732"/>
      <point x="67" y="754"/>
      <point x="20" y="754" type="curve"/>
    </contour>
  </outline>
</glyph>
<glyph name="parenright" format="2">
  <advance width="175"/>
  <unicode hex="0029"/>
  <outline>
    <contour>
      <point x="30" y="-201" type="line"/>
      <point x="30" y="-201"/>
      <point x="145" y="-191"/>
      <point x="145" y="257" type="curve" smooth="yes"/>
      <point x="145" y="714"/>
      <point x="30" y="728"/>
      <point x="30" y="729" type="curve"/>
      <point x="30" y="679" type="line"/>
      <point x="30" y="679"/>
      <point x="131" y="641"/>
      <point x="130" y="257" type="curve" smooth="yes"/>
      <point x="129" y="-115"/>
      <point x="30" y="-153"/>
      <point x="30" y="-153" type="curve"/>
    </contour>
  </outline>
</glyph>
<glyph name="asterisk" format="2">
  <advance width="405"/>
  <unicode hex="002A"/>
  <outline>
    <contour>
      <point x="282" y="411" type="line"/>
      <point x="300" y="424"/>
      <point x="302" y="436"/>
      <point x="295" y="443" type="curve"/>
      <point x="287" y="439" type="line"/>
      <point x="292" y="430"/>
      <point x="304" y="427"/>
      <point x="323" y="440" type="curve"/>
      <point x="204" y="568" type="line"/>
      <point x="197" y="563" type="line"/>
    </contour>
    <contour>
      <point x="122" y="411" type="curve"/>
      <point x="207" y="563" type="line"/>
      <point x="200" y="568" type="line"/>
      <point x="82" y="441" type="line"/>
      <point x="100" y="428"/>
      <point x="112" y="429"/>
      <point x="116" y="438" type="curve"/>
      <point x="110" y="445" type="line"/>
      <point x="103" y="437"/>
      <point x="104" y="425"/>
    </contour>
    <contour>
      <point x="29" y="592" type="curve"/>
      <point x="200" y="558" type="line"/>
      <point x="203" y="566" type="line"/>
      <point x="44" y="640" type="line"/>
      <point x="38" y="618"/>
      <point x="45" y="607"/>
      <point x="55" y="605" type="curve"/>
      <point x="56" y="614" type="line"/>
      <point x="47" y="618"/>
      <point x="36" y="613"/>
    </contour>
    <contour>
      <point x="198" y="566" type="line"/>
      <point x="206" y="566" type="line"/>
      <point x="226" y="739" type="line"/>
      <point x="204" y="739"/>
      <point x="196" y="730"/>
      <point x="197" y="720" type="curve"/>
      <point x="206" y="719" type="line"/>
      <point x="207" y="729"/>
      <point x="199" y="739"/>
      <point x="176" y="740" type="curve"/>
    </contour>
    <contour>
      <point x="375" y="592" type="line"/>
      <point x="368" y="613"/>
      <point x="357" y="618"/>
      <point x="348" y="614" type="curve"/>
      <point x="349" y="605" type="line"/>
      <point x="359" y="607"/>
      <point x="366" y="618"/>
      <point x="360" y="640" type="curve"/>
      <point x="201" y="566" type="line"/>
      <point x="204" y="558" type="line"/>
    </contour>
  </outline>
</glyph>
<glyph name="plus" format="2">
  <advance width="465"/>
  <unicode hex="002B"/>
  <outline>
    <contour>
      <point x="50" y="261" type="curve"/>
      <point x="415" y="261" type="line"/>
      <point x="415" y="282"/>
      <point x="405" y="291"/>
      <point x="395" y="291" type="curve"/>
      <point x="395" y="280" type="line"/>
      <point x="405" y="280"/>
      <point x="415" y="289"/>
      <point x="415" y="311" type="curve"/>
      <point x="50" y="311" type="line"/>
      <point x="50" y="289"/>
      <point x="61" y="280"/>
      <point x="71" y="280" type="curve"/>
      <point x="71" y="291" type="line"/>
      <point x="61" y="291"/>
      <point x="50" y="282"/>
    </contour>
    <contour>
      <point x="218" y="89" type="line"/>
      <point x="247" y="89" type="line"/>
      <point x="247" y="482" type="line"/>
      <point x="218" y="482" type="line"/>
    </contour>
  </outline>
</glyph>
<glyph name="comma" format="2">
  <advance width="129"/>
  <unicode hex="002C"/>
  <outline>
    <contour>
      <point x="30" y="-51" type="line"/>
      <point x="72" y="-51"/>
      <point x="100" y="-26"/>
      <point x="100" y="20" type="curve" smooth="yes"/>
      <point x="100" y="46"/>
      <point x="85" y="62"/>
      <point x="65" y="62" type="curve" smooth="yes"/>
      <point x="46" y="62"/>
      <point x="30" y="46"/>
      <point x="30" y="26" type="curve" smooth="yes"/>
      <point x="30" y="5"/>
      <point x="46" y="-10"/>
      <point x="65" y="-10" type="curve"/>
      <point x="65" y="9" type="line"/>
      <point x="65" y="-23"/>
      <point x="61" y="-32"/>
      <point x="30" y="-32" type="curve"/>
    </contour>
  </outline>
</glyph>
<glyph name="hyphen" format="2">
  <advance width="351"/>
  <unicode hex="002D"/>
  <outline>
    <contour>
      <point x="50" y="303" type="curve"/>
      <point x="301" y="303" type="line"/>
      <point x="301" y="322"/>
      <point x="292" y="331"/>
      <point x="283" y="331" type="curve"/>
      <point x="283" y="320" type="line"/>
      <point x="292" y="320"/>
      <point x="301" y="327"/>
      <point x="301" y="348" type="curve"/>
      <point x="50" y="348" type="line"/>
      <point x="50" y="327"/>
      <point x="59" y="320"/>
      <point x="68" y="320" type="curve"/>
      <point x="68" y="331" type="line"/>
      <point x="59" y="331"/>
      <point x="50" y="322"/>
    </contour>
  </outline>
</glyph>
<glyph name="period" format="2">
  <advance width="130"/>
  <unicode hex="002E"/>
  <outline>
    <contour>
      <point x="66" y="-12" type="curve" smooth="yes"/>
      <point x="83" y="-12"/>
      <point x="100" y="4"/>
      <point x="100" y="23" type="curve" smooth="yes"/>
      <point x="100" y="42"/>
      <point x="83" y="57"/>
      <point x="66" y="57" type="curve" smooth="yes"/>
      <point x="47" y="57"/>
      <point x="30" y="42"/>
      <point x="30" y="23" type="curve" smooth="yes"/>
      <point x="30" y="4"/>
      <point x="47" y="-12"/>
    </contour>
  </outline>
</glyph>
<glyph name="slash" format="2">
  <advance width="296"/>
  <unicode hex="002F"/>
  <outline>
    <contour>
      <point x="30" y="-129" type="line"/>
      <point x="51" y="-129" type="line"/>
      <point x="266" y="680" type="line"/>
      <point x="245" y="680" type="line"/>
    </contour>
  </outline>
</glyph>
<glyph name="zero" format="2">
  <advance width="594"/>
  <unicode hex="0030"/>
  <outline>
    <contour>
      <point x="297" y="-10" type="curve" smooth="yes"/>
      <point x="453" y="-10"/>
      <point x="504" y="123"/>
      <point x="504" y="337" type="curve" smooth="yes"/>
      <point x="504" y="596"/>
      <point x="411" y="689"/>
      <point x="295" y="689" type="curve" smooth="yes"/>
      <point x="140" y="689"/>
      <point x="90" y="577"/>
      <point x="90" y="337" type="curve" smooth="yes"/>
      <point x="90" y="123"/>
      <point x="182" y="-10"/>
    </contour>
    <contour>
      <point x="331" y="45" type="curve" smooth="yes"/>
      <point x="148" y="45"/>
      <point x="110" y="161"/>
      <point x="110" y="365" type="curve" smooth="yes"/>
      <point x="110" y="522"/>
      <point x="140" y="634"/>
      <point x="264" y="634" type="curve" smooth="yes"/>
      <point x="447" y="634"/>
      <point x="484" y="519"/>
      <point x="484" y="315" type="curve" smooth="yes"/>
      <point x="484" y="174"/>
      <point x="454" y="45"/>
    </contour>
  </outline>
</glyph>
<glyph name="one" format="2">
  <advance width="278"/>
  <unicode hex="0031"/>
  <anchor x="144" y="0" name="bottom"/>
  <anchor x="144" y="520" name="top"/>
  <outline>
    <contour>
      <point x="131" y="34" type="line"/>
      <point x="146" y="34" type="line"/>
      <point x="146" y="640" type="line"/>
      <point x="131" y="640" type="line"/>
    </contour>
    <contour>
      <point x="89" y="623" type="line"/>
      <point x="146" y="623" type="line"/>
      <point x="146" y="680" type="line"/>
      <point x="113" y="680" type="line"/>
    </contour>
    <contour>
      <point x="131" y="569" type="curve"/>
      <point x="146" y="569" type="line"/>
      <point x="146" y="641" type="line"/>
      <point x="131" y="641" type="line"/>
      <point x="89" y="623" type="line"/>
      <point x="119" y="623"/>
      <point x="131" y="614"/>
    </contour>
    <component base="serif_inf_der" xOffset="-9"/>
    <component base="serif_inf_izq" xOffset="-9"/>
  </outline>
</glyph>
<glyph name="two" format="2">
  <advance width="540"/>
  <unicode hex="0032"/>
  <outline>
    <contour>
      <point x="70" y="0" type="line"/>
      <point x="370" y="0" type="line" smooth="yes"/>
      <point x="405" y="0"/>
      <point x="428" y="23"/>
      <point x="428" y="50" type="curve"/>
      <point x="413" y="50" type="line"/>
      <point x="413" y="23"/>
      <point x="435" y="0"/>
      <point x="470" y="0" type="curve"/>
      <point x="470" y="50" type="line"/>
      <point x="85" y="50" type="line"/>
      <point x="85" y="44" type="line"/>
      <point x="85" y="176"/>
      <point x="180" y="232"/>
      <point x="275" y="280" type="curve" smooth="yes"/>
      <point x="371" y="329"/>
      <point x="466" y="371"/>
      <point x="466" y="507" type="curve" smooth="yes"/>
      <point x="466" y="645"/>
      <point x="397" y="690"/>
      <point x="267" y="690" type="curve" smooth="yes"/>
      <point x="134" y="690"/>
      <point x="73" y="645"/>
      <point x="73" y="599" type="curve"/>
      <point x="88" y="599" type="line"/>
      <point x="88" y="610"/>
      <point x="134" y="639"/>
      <point x="274" y="639" type="curve" smooth="yes"/>
      <point x="397" y="639"/>
      <point x="451" y="610"/>
      <point x="451" y="507" type="curve" smooth="yes"/>
      <point x="451" y="386"/>
      <point x="366" y="350"/>
      <point x="277" y="303" type="curve" smooth="yes"/>
      <point x="177" y="251"/>
      <point x="70" y="191"/>
      <point x="70" y="35" type="curve"/>
    </contour>
    <contour>
      <point x="455" y="26" type="line"/>
      <point x="470" y="26" type="line"/>
      <point x="470" y="83" type="line"/>
      <point x="455" y="83" type="line"/>
    </contour>
  </outline>
</glyph>
<glyph name="three" format="2">
  <advance width="525"/>
  <unicode hex="0033"/>
  <outline>
    <contour>
      <point x="247" y="-8" type="curve" smooth="yes"/>
      <point x="384" y="-8"/>
      <point x="455" y="37"/>
      <point x="455" y="214" type="curve" smooth="yes"/>
      <point x="455" y="363"/>
      <point x="374" y="395"/>
      <point x="237" y="394" type="curve"/>
      <point x="237" y="374" type="line"/>
      <point x="377" y="374"/>
      <point x="438" y="338"/>
      <point x="438" y="214" type="curve" smooth="yes"/>
      <point x="438" y="62"/>
      <point x="357" y="43"/>
      <point x="247" y="43" type="curve" smooth="yes"/>
      <point x="137" y="43"/>
      <point x="75" y="62"/>
      <point x="75" y="83" type="curve"/>
      <point x="60" y="83" type="line"/>
      <point x="60" y="36"/>
      <point x="110" y="-8"/>
    </contour>
    <contour>
      <point x="69" y="599" type="line"/>
      <point x="84" y="599" type="line"/>
      <point x="84" y="658" type="line"/>
      <point x="69" y="658" type="line"/>
    </contour>
    <contour>
      <point x="69" y="630" type="line"/>
      <point x="126" y="630" type="line"/>
      <point x="126" y="631" type="line"/>
      <point x="126" y="656"/>
      <point x="103" y="680"/>
      <point x="69" y="680" type="curve"/>
    </contour>
    <contour>
      <point x="247" y="379" type="line"/>
      <point x="247" y="379"/>
      <point x="438" y="630"/>
      <point x="438" y="630" type="curve"/>
      <point x="438" y="680" type="line"/>
      <point x="170" y="680" type="line" smooth="yes"/>
      <point x="128" y="680"/>
      <point x="111" y="649"/>
      <point x="111" y="635" type="curve" smooth="yes"/>
      <point x="111" y="630" type="line"/>
      <point x="429" y="630" type="line"/>
      <point x="428" y="646" type="line"/>
      <point x="428" y="646"/>
      <point x="237" y="394"/>
      <point x="237" y="394" type="curve"/>
    </contour>
  </outline>
</glyph>
<glyph name="four" format="2">
  <advance width="550"/>
  <unicode hex="0034"/>
  <outline>
    <contour>
      <point x="70" y="216" type="line"/>
      <point x="413" y="689" type="line"/>
      <point x="413" y="718" type="line"/>
      <point x="70" y="245" type="line"/>
    </contour>
    <contour>
      <point x="70" y="195" type="line"/>
      <point x="428" y="195" type="line"/>
      <point x="428" y="245" type="line"/>
      <point x="70" y="245" type="line"/>
      <point x="70" y="244" type="line"/>
    </contour>
    <contour>
      <point x="470" y="195" type="curve"/>
      <point x="470" y="245" type="line"/>
      <point x="413" y="245" type="line"/>
      <point x="413" y="244" type="line"/>
      <point x="413" y="219"/>
      <point x="436" y="195"/>
    </contour>
    <contour>
      <point x="413" y="34" type="line"/>
      <point x="428" y="34" type="line"/>
      <point x="428" y="718" type="line"/>
      <point x="413" y="718" type="line"/>
    </contour>
    <component base="serif_inf_der" xOffset="273"/>
    <component base="serif_inf_izq" xOffset="273"/>
  </outline>
</glyph>
<glyph name="five" format="2">
  <advance width="521"/>
  <unicode hex="0035"/>
  <outline>
    <contour>
      <point x="260" y="-8" type="curve" smooth="yes"/>
      <point x="398" y="-8"/>
      <point x="451" y="65"/>
      <point x="451" y="207" type="curve" smooth="yes"/>
      <point x="451" y="337"/>
      <point x="390" y="409"/>
      <point x="266" y="408" type="curve"/>
      <point x="92" y="408" type="line"/>
      <point x="88" y="386" type="line"/>
      <point x="266" y="386" type="line"/>
      <point x="381" y="386"/>
      <point x="435" y="315"/>
      <point x="435" y="205" type="curve" smooth="yes"/>
      <point x="435" y="78"/>
      <point x="373" y="43"/>
      <point x="260" y="43" type="curve" smooth="yes"/>
      <point x="147" y="43"/>
      <point x="85" y="58"/>
      <point x="85" y="83" type="curve"/>
      <point x="70" y="83" type="line"/>
      <point x="70" y="42"/>
      <point x="122" y="-8"/>
    </contour>
    <contour>
      <point x="88" y="386" type="line"/>
      <point x="103" y="405" type="line"/>
      <point x="103" y="505"/>
      <point x="103" y="548"/>
      <point x="103" y="648" type="curve"/>
      <point x="100" y="630" type="line"/>
      <point x="444" y="630" type="line"/>
      <point x="444" y="680" type="line"/>
      <point x="400" y="680"/>
      <point x="382" y="658"/>
      <point x="382" y="638" type="curve"/>
      <point x="405" y="638" type="line"/>
      <point x="405" y="658"/>
      <point x="394" y="680"/>
      <point x="350" y="680" type="curve" smooth="yes"/>
      <point x="88" y="680" type="line"/>
    </contour>
    <contour>
      <point x="429" y="599" type="line"/>
      <point x="444" y="599" type="line"/>
      <point x="444" y="658" type="line"/>
      <point x="429" y="658" type="line"/>
    </contour>
  </outline>
</glyph>
<glyph name="six" format="2">
  <advance width="520"/>
  <unicode hex="0036"/>
  <outline>
    <contour>
      <point x="260" y="-10" type="curve" smooth="yes"/>
      <point x="392" y="-10"/>
      <point x="450" y="69"/>
      <point x="450" y="224" type="curve" smooth="yes"/>
      <point x="450" y="318"/>
      <point x="392" y="410"/>
      <point x="259" y="410" type="curve" smooth="yes"/>
      <point x="128" y="410"/>
      <point x="72" y="318"/>
      <point x="72" y="217" type="curve"/>
      <point x="70" y="226" type="line"/>
      <point x="70" y="69"/>
      <point x="128" y="-10"/>
    </contour>
    <contour>
      <point x="86" y="163" type="line"/>
      <point x="86" y="381" type="line"/>
      <point x="71" y="381" type="line"/>
      <point x="70" y="226" type="line"/>
    </contour>
    <contour>
      <point x="260" y="40" type="curve" smooth="yes"/>
      <point x="140" y="40"/>
      <point x="86" y="81"/>
      <point x="86" y="230" type="curve" smooth="yes"/>
      <point x="86" y="310"/>
      <point x="140" y="392"/>
      <point x="258" y="392" type="curve" smooth="yes"/>
      <point x="380" y="392"/>
      <point x="435" y="304"/>
      <point x="435" y="224" type="curve" smooth="yes"/>
      <point x="435" y="81"/>
      <point x="380" y="40"/>
    </contour>
    <contour>
      <point x="86" y="342" type="line"/>
      <point x="86" y="361" type="line" smooth="yes"/>
      <point x="86" y="611"/>
      <point x="149" y="640"/>
      <point x="269" y="640" type="curve" smooth="yes"/>
      <point x="389" y="640"/>
      <point x="416" y="611"/>
      <point x="416" y="598" type="curve"/>
      <point x="431" y="598" type="line"/>
      <point x="431" y="630"/>
      <point x="400" y="690"/>
      <point x="268" y="690" type="curve" smooth="yes"/>
      <point x="142" y="690"/>
      <point x="71" y="630"/>
      <point x="71" y="432" type="curve" smooth="yes"/>
      <point x="71" y="342" type="line"/>
    </contour>
  </outline>
</glyph>
<glyph name="seven" format="2">
  <advance width="515"/>
  <unicode hex="0037"/>
  <outline>
    <contour>
      <point x="202" y="0" type="curve"/>
      <point x="285" y="0" type="line"/>
      <point x="285" y="15" type="line"/>
      <point x="268" y="15"/>
      <point x="252" y="55"/>
      <point x="252" y="114" type="curve" smooth="yes"/>
      <point x="252" y="261"/>
      <point x="460" y="630"/>
      <point x="460" y="630" type="curve"/>
      <point x="460" y="680" type="line"/>
      <point x="149" y="680" type="line" smooth="yes"/>
      <point x="105" y="680"/>
      <point x="94" y="658"/>
      <point x="94" y="638" type="curve"/>
      <point x="117" y="638" type="line"/>
      <point x="117" y="658"/>
      <point x="99" y="680"/>
      <point x="55" y="680" type="curve"/>
      <point x="55" y="630" type="line"/>
      <point x="456" y="630" type="line"/>
      <point x="460" y="660" type="line"/>
      <point x="460" y="660"/>
      <point x="202" y="217"/>
    </contour>
    <contour>
      <point x="55" y="599" type="line"/>
      <point x="70" y="599" type="line"/>
      <point x="70" y="658" type="line"/>
      <point x="55" y="658" type="line"/>
    </contour>
  </outline>
</glyph>
<glyph name="eight" format="2">
  <advance width="562"/>
  <unicode hex="0038"/>
  <outline>
    <contour>
      <point x="283" y="-10" type="curve" smooth="yes"/>
      <point x="397" y="-11"/>
      <point x="482" y="86"/>
      <point x="482" y="185" type="curve" smooth="yes"/>
      <point x="482" y="244"/>
      <point x="426" y="366"/>
      <point x="283" y="365" type="curve" smooth="yes"/>
      <point x="119" y="364"/>
      <point x="80" y="242"/>
      <point x="80" y="185" type="curve" smooth="yes"/>
      <point x="80" y="86"/>
      <point x="160" y="-9"/>
    </contour>
    <contour>
      <point x="283" y="52" type="curve" smooth="yes"/>
      <point x="190" y="52"/>
      <point x="95" y="74"/>
      <point x="95" y="185" type="curve" smooth="yes"/>
      <point x="95" y="272"/>
      <point x="161" y="350"/>
      <point x="283" y="350" type="curve" smooth="yes"/>
      <point x="393" y="350"/>
      <point x="467" y="272"/>
      <point x="467" y="185" type="curve" smooth="yes"/>
      <point x="467" y="74"/>
      <point x="367" y="52"/>
    </contour>
    <contour>
      <point x="283" y="365" type="curve" smooth="yes"/>
      <point x="161" y="365"/>
      <point x="125" y="440"/>
      <point x="125" y="490" type="curve" smooth="yes"/>
      <point x="125" y="611"/>
      <point x="190" y="638"/>
      <point x="283" y="638" type="curve" smooth="yes"/>
      <point x="367" y="638"/>
      <point x="437" y="611"/>
      <point x="437" y="490" type="curve" smooth="yes"/>
      <point x="437" y="440"/>
      <point x="405" y="365"/>
    </contour>
    <contour>
      <point x="283" y="351" type="curve" smooth="yes"/>
      <point x="403" y="350"/>
      <point x="452" y="428"/>
      <point x="452" y="490" type="curve" smooth="yes"/>
      <point x="452" y="587"/>
      <point x="397" y="689"/>
      <point x="283" y="688" type="curve" smooth="yes"/>
      <point x="160" y="687"/>
      <point x="110" y="587"/>
      <point x="110" y="490" type="curve" smooth="yes"/>
      <point x="110" y="419"/>
      <point x="168" y="352"/>
    </contour>
  </outline>
</glyph>
<glyph name="nine" format="2">
  <advance width="530"/>
  <unicode hex="0039"/>
  <outline>
    <contour>
      <point x="266" y="270" type="curve" smooth="yes"/>
      <point x="402" y="270"/>
      <point x="458" y="362"/>
      <point x="458" y="463" type="curve"/>
      <point x="460" y="454" type="line"/>
      <point x="460" y="611"/>
      <point x="402" y="690"/>
      <point x="265" y="690" type="curve" smooth="yes"/>
      <point x="128" y="690"/>
      <point x="70" y="611"/>
      <point x="70" y="456" type="curve" smooth="yes"/>
      <point x="70" y="362"/>
      <point x="128" y="270"/>
    </contour>
    <contour>
      <point x="252" y="-10" type="curve" smooth="yes"/>
      <point x="398" y="-10"/>
      <point x="459" y="40"/>
      <point x="459" y="287" type="curve" smooth="yes"/>
      <point x="459" y="338" type="line"/>
      <point x="444" y="338" type="line"/>
      <point x="444" y="319" type="line" smooth="yes"/>
      <point x="444" y="59"/>
      <point x="389" y="40"/>
      <point x="252" y="40" type="curve" smooth="yes"/>
      <point x="139" y="40"/>
      <point x="94" y="59"/>
      <point x="94" y="83" type="curve"/>
      <point x="79" y="83" type="line"/>
      <point x="79" y="40"/>
      <point x="130" y="-10"/>
    </contour>
    <contour>
      <point x="267" y="288" type="curve" smooth="yes"/>
      <point x="140" y="288"/>
      <point x="85" y="376"/>
      <point x="85" y="456" type="curve" smooth="yes"/>
      <point x="85" y="599"/>
      <point x="140" y="640"/>
      <point x="265" y="640" type="curve" smooth="yes"/>
      <point x="390" y="640"/>
      <point x="444" y="599"/>
      <point x="444" y="450" type="curve" smooth="yes"/>
      <point x="444" y="370"/>
      <point x="390" y="288"/>
    </contour>
    <contour>
      <point x="444" y="299" type="line"/>
      <point x="459" y="299" type="line"/>
      <point x="460" y="454" type="line"/>
      <point x="444" y="517" type="line"/>
    </contour>
  </outline>
</glyph>
<glyph name="equal" format="2">
  <advance width="405"/>
  <unicode hex="003D"/>
  <outline>
    <contour>
      <point x="50" y="337" type="curve"/>
      <point x="355" y="337" type="line"/>
      <point x="355" y="358"/>
      <point x="345" y="367"/>
      <point x="335" y="367" type="curve"/>
      <point x="335" y="356" type="line"/>
      <point x="345" y="356"/>
      <point x="355" y="365"/>
      <point x="355" y="387" type="curve"/>
      <point x="50" y="387" type="line"/>
      <point x="50" y="365"/>
      <point x="61" y="356"/>
      <point x="71" y="356" type="curve"/>
      <point x="71" y="367" type="line"/>
      <point x="61" y="367"/>
      <point x="50" y="358"/>
    </contour>
    <contour>
      <point x="50" y="166" type="curve"/>
      <point x="355" y="166" type="line"/>
      <point x="355" y="187"/>
      <point x="345" y="196"/>
      <point x="335" y="196" type="curve"/>
      <point x="335" y="185" type="line"/>
      <point x="345" y="185"/>
      <point x="355" y="194"/>
      <point x="355" y="216" type="curve"/>
      <point x="50" y="216" type="line"/>
      <point x="50" y="194"/>
      <point x="61" y="185"/>
      <point x="71" y="185" type="curve"/>
      <point x="71" y="196" type="line"/>
      <point x="61" y="196"/>
      <point x="50" y="187"/>
    </contour>
  </outline>
</glyph>
<glyph name="greater" format="2">
  <advance width="509"/>
  <unicode hex="003E"/>
  <outline>
    <contour>
      <point x="50" y="32" type="line"/>
      <point x="459" y="249" type="line"/>
      <point x="459" y="299" type="line"/>
      <point x="50" y="517" type="line"/>
      <point x="50" y="478" type="line"/>
      <point x="50" y="447"/>
      <point x="395" y="277"/>
      <point x="418" y="277" type="curve"/>
      <point x="418" y="271" type="line"/>
      <point x="395" y="271"/>
      <point x="50" y="102"/>
      <point x="50" y="71" type="curve"/>
    </contour>
  </outline>
</glyph>
<glyph name="question" format="2">
  <advance width="410"/>
  <unicode hex="003F"/>
  <outline>
    <contour>
      <point x="141" y="105" type="curve"/>
      <point x="157" y="105" type="line"/>
      <point x="157" y="366"/>
      <point x="380" y="331"/>
      <point x="380" y="533" type="curve" smooth="yes"/>
      <point x="380" y="686"/>
      <point x="339" y="750"/>
      <point x="208" y="750" type="curve" smooth="yes"/>
      <point x="61" y="750"/>
      <point x="25" y="686"/>
      <point x="25" y="637" type="curve"/>
      <point x="40" y="637" type="line"/>
      <point x="40" y="661"/>
      <point x="69" y="699"/>
      <point x="208" y="699" type="curve" smooth="yes"/>
      <point x="331" y="699"/>
      <point x="360" y="661"/>
      <point x="360" y="531" type="curve" smooth="yes"/>
      <point x="360" y="334"/>
      <point x="141" y="395"/>
    </contour>
    <contour>
      <point x="149" y="0" type="curve" smooth="yes"/>
      <point x="168" y="0"/>
      <point x="184" y="16"/>
      <point x="184" y="35" type="curve" smooth="yes"/>
      <point x="184" y="54"/>
      <point x="168" y="70"/>
      <point x="149" y="70" type="curve" smooth="yes"/>
      <point x="130" y="70"/>
      <point x="114" y="54"/>
      <point x="114" y="35" type="curve" smooth="yes"/>
      <point x="114" y="16"/>
      <point x="130" y="0"/>
    </contour>
  </outline>
</glyph>
<glyph name="at" format="2">
  <advance width="747"/>
  <unicode hex="0040"/>
  <outline>
    <contour>
      <point x="301" y="-230" type="curve" smooth="yes"/>
      <point x="374" y="-230"/>
      <point x="476" y="-230"/>
      <point x="549" y="-230" type="curve"/>
      <point x="557" y="-180" type="line"/>
      <point x="481" y="-180"/>
      <point x="375" y="-180"/>
      <point x="299" y="-180" type="curve" smooth="yes"/>
      <point x="134" y="-180"/>
      <point x="65" y="-42"/>
      <point x="65" y="133" type="curve" smooth="yes"/>
      <point x="65" y="406"/>
      <point x="203" y="700"/>
      <point x="445" y="700" type="curve" smooth="yes"/>
      <point x="591" y="700"/>
      <point x="677" y="627"/>
      <point x="677" y="431" type="curve" smooth="yes"/>
      <point x="677" y="272"/>
      <point x="638" y="40"/>
      <point x="539" y="40" type="curve" smooth="yes"/>
      <point x="501" y="40"/>
      <point x="489" y="68"/>
      <point x="489" y="118" type="curve" smooth="yes"/>
      <point x="489" y="158"/>
      <point x="497" y="205"/>
      <point x="504" y="248" type="curve" smooth="yes"/>
      <point x="506" y="260" type="line"/>
      <point x="491" y="260" type="line"/>
      <point x="482" y="209"/>
      <point x="474" y="151"/>
      <point x="474" y="103" type="curve" smooth="yes"/>
      <point x="474" y="39"/>
      <point x="488" y="-10"/>
      <point x="532" y="-10" type="curve" smooth="yes"/>
      <point x="649" y="-10"/>
      <point x="697" y="315"/>
      <point x="697" y="427" type="curve" smooth="yes"/>
      <point x="697" y="680"/>
      <point x="593" y="750"/>
      <point x="451" y="750" type="curve" smooth="yes"/>
      <point x="179" y="750"/>
      <point x="50" y="414"/>
      <point x="50" y="118" type="curve" smooth="yes"/>
      <point x="50" y="-109"/>
      <point x="149" y="-230"/>
    </contour>
    <contour>
      <point x="323" y="40" type="curve" smooth="yes"/>
      <point x="243" y="40"/>
      <point x="219" y="92"/>
      <point x="219" y="163" type="curve" smooth="yes"/>
      <point x="219" y="291"/>
      <point x="281" y="480"/>
      <point x="400" y="480" type="curve" smooth="yes"/>
      <point x="472" y="480"/>
      <point x="501" y="440"/>
      <point x="501" y="361" type="curve" smooth="yes"/>
      <point x="501" y="226"/>
      <point x="441" y="40"/>
    </contour>
    <contour>
      <point x="314" y="-10" type="curve" smooth="yes"/>
      <point x="413" y="-10"/>
      <point x="471" y="123"/>
      <point x="485" y="203" type="curve"/>
      <point x="517" y="325" type="line"/>
      <point x="520" y="342"/>
      <point x="522" y="360"/>
      <point x="522" y="377" type="curve" smooth="yes"/>
      <point x="522" y="453"/>
      <point x="501" y="530"/>
      <point x="418" y="530" type="curve" smooth="yes"/>
      <point x="288" y="530"/>
      <point x="203" y="308"/>
      <point x="203" y="146" type="curve" smooth="yes"/>
      <point x="203" y="59"/>
      <point x="230" y="-10"/>
    </contour>
    <contour>
      <point x="487" y="236" type="line"/>
      <point x="502" y="236" type="line"/>
      <point x="517" y="325" type="line"/>
      <point x="508" y="357" type="line"/>
    </contour>
  </outline>
</glyph>
<glyph name="A" format="2">
  <advance width="680"/>
  <unicode hex="0041"/>
  <anchor x="342" y="0" name="bottom"/>
  <anchor x="599" y="-1" name="ogonek"/>
  <anchor x="336" y="680" name="top"/>
  <outline>
    <contour>
      <point x="557" y="46" type="line"/>
      <point x="575" y="46" type="line"/>
      <point x="366" y="620" type="line"/>
      <point x="357" y="632" type="line"/>
      <point x="339" y="632" type="line"/>
      <point x="546" y="61" type="line"/>
    </contour>
    <contour>
      <point x="70" y="0" type="line"/>
      <point x="91" y="0"/>
      <point x="127" y="11"/>
      <point x="127" y="46" type="curve"/>
      <point x="112" y="46" type="line"/>
      <point x="112" y="11"/>
      <point x="146" y="0"/>
      <point x="169" y="0" type="curve"/>
      <point x="169" y="50" type="line"/>
      <point x="70" y="50" type="line"/>
    </contour>
    <contour>
      <point x="105" y="46" type="line"/>
      <point x="123" y="46" type="line"/>
      <point x="134" y="63" type="line"/>
      <point x="341" y="632" type="line"/>
      <point x="323" y="632" type="line"/>
      <point x="314" y="620" type="line"/>
    </contour>
    <contour>
      <point x="511" y="0" type="line"/>
      <point x="534" y="0"/>
      <point x="568" y="11"/>
      <point x="568" y="46" type="curve"/>
      <point x="553" y="46" type="line"/>
      <point x="553" y="11"/>
      <point x="589" y="0"/>
      <point x="610" y="0" type="curve"/>
      <point x="610" y="50" type="line"/>
      <point x="511" y="50" type="line"/>
    </contour>
    <contour>
      <point x="193" y="249" type="line"/>
      <point x="478" y="249" type="line"/>
      <point x="478" y="274" type="line"/>
      <point x="193" y="274" type="line"/>
    </contour>
    <contour>
      <point x="291" y="630" type="line"/>
      <point x="390" y="630" type="line"/>
      <point x="390" y="680" type="line"/>
      <point x="367" y="680"/>
      <point x="323" y="665"/>
      <point x="323" y="630" type="curve"/>
      <point x="357" y="630" type="line"/>
      <point x="357" y="665"/>
      <point x="312" y="680"/>
      <point x="291" y="680" type="curve"/>
    </contour>
  </outline>
</glyph>
<glyph name="B" format="2">
  <advance width="630"/>
  <unicode hex="0042"/>
  <anchor x="324" y="0" name="bottom"/>
  <anchor x="324" y="680" name="top"/>
  <outline>
    <contour>
      <point x="332" y="-10" type="curve" smooth="yes"/>
      <point x="479" y="-10"/>
      <point x="535" y="76"/>
      <point x="535" y="178" type="curve" smooth="yes"/>
      <point x="535" y="290"/>
      <point x="449" y="347"/>
      <point x="384" y="347" type="curve"/>
      <point x="384" y="332" type="line"/>
      <point x="449" y="332"/>
      <point x="515" y="384"/>
      <point x="515" y="503" type="curve" smooth="yes"/>
      <point x="515" y="604"/>
      <point x="469" y="690"/>
      <point x="322" y="690" type="curve" smooth="yes"/>
      <point x="172" y="690"/>
      <point x="151" y="614"/>
      <point x="151" y="597" type="curve"/>
      <point x="157" y="567" type="line"/>
      <point x="157" y="621"/>
      <point x="189" y="640"/>
      <point x="309" y="640" type="curve" smooth="yes"/>
      <point x="427" y="640"/>
      <point x="500" y="597"/>
      <point x="500" y="503" type="curve" smooth="yes"/>
      <point x="500" y="401"/>
      <point x="447" y="353"/>
      <point x="396" y="353" type="curve" smooth="yes"/>
      <point x="151" y="353" type="line"/>
      <point x="151" y="327" type="line"/>
      <point x="396" y="327" type="line" smooth="yes"/>
      <point x="447" y="327"/>
      <point x="520" y="279"/>
      <point x="520" y="178" type="curve" smooth="yes"/>
      <point x="520" y="83"/>
      <point x="457" y="40"/>
      <point x="319" y="40" type="curve" smooth="yes"/>
      <point x="189" y="40"/>
      <point x="157" y="63"/>
      <point x="157" y="121" type="curve"/>
      <point x="151" y="82" type="line"/>
      <point x="151" y="63"/>
      <point x="182" y="-10"/>
    </contour>
    <contour>
      <point x="100" y="0" type="line"/>
      <point x="154" y="0"/>
      <point x="157" y="53"/>
      <point x="157" y="105" type="curve" smooth="yes"/>
      <point x="157" y="119"/>
      <point x="157" y="122"/>
      <point x="157" y="152" type="curve"/>
      <point x="142" y="152" type="line"/>
      <point x="142" y="93"/>
      <point x="135" y="57"/>
      <point x="100" y="57" type="curve"/>
    </contour>
    <contour>
      <point x="142" y="125" type="line"/>
      <point x="157" y="125" type="line"/>
      <point x="157" y="567" type="line"/>
      <point x="142" y="567" type="line"/>
    </contour>
    <contour>
      <point x="142" y="528" type="curve"/>
      <point x="157" y="528" type="line"/>
      <point x="157" y="528"/>
      <point x="157" y="561"/>
      <point x="157" y="575" type="curve" smooth="yes"/>
      <point x="157" y="627"/>
      <point x="154" y="680"/>
      <point x="100" y="680" type="curve"/>
      <point x="100" y="623" type="line"/>
      <point x="135" y="623"/>
      <point x="142" y="587"/>
    </contour>
  </outline>
</glyph>
<glyph name="C" format="2">
  <advance width="630"/>
  <unicode hex="0043"/>
  <anchor x="345" y="-10" name="bottom"/>
  <anchor x="347" y="650" name="top"/>
  <outline>
    <contour>
      <point x="355" y="-10" type="curve" smooth="yes"/>
      <point x="507" y="-10"/>
      <point x="550" y="42"/>
      <point x="550" y="83" type="curve"/>
      <point x="535" y="83" type="line"/>
      <point x="535" y="59"/>
      <point x="482" y="40"/>
      <point x="355" y="40" type="curve" smooth="yes"/>
      <point x="195" y="40"/>
      <point x="103" y="123"/>
      <point x="103" y="335" type="curve" smooth="yes"/>
      <point x="103" y="562"/>
      <point x="195" y="640"/>
      <point x="355" y="640" type="curve" smooth="yes"/>
      <point x="482" y="640"/>
      <point x="535" y="618"/>
      <point x="535" y="599" type="curve"/>
      <point x="550" y="599" type="line"/>
      <point x="550" y="641"/>
      <point x="507" y="690"/>
      <point x="355" y="690" type="curve" smooth="yes"/>
      <point x="183" y="690"/>
      <point x="90" y="575"/>
      <point x="90" y="335" type="curve" smooth="yes"/>
      <point x="90" y="113"/>
      <point x="183" y="-10"/>
    </contour>
    <contour>
      <point x="550" y="599" type="line"/>
      <point x="550" y="690" type="line"/>
      <point x="527" y="690"/>
      <point x="496" y="665"/>
      <point x="496" y="641" type="curve"/>
      <point x="527" y="623" type="line"/>
    </contour>
  </outline>
</glyph>
<glyph name="D" format="2">
  <advance width="679"/>
  <unicode hex="0044"/>
  <anchor x="349" y="0" name="bottom"/>
  <anchor x="349" y="340" name="center"/>
  <anchor x="349" y="650" name="top"/>
  <outline>
    <contour>
      <point x="346" y="-10" type="curve" smooth="yes"/>
      <point x="521" y="-10"/>
      <point x="588" y="83"/>
      <point x="589" y="340" type="curve" smooth="yes"/>
      <point x="590" y="597"/>
      <point x="521" y="689"/>
      <point x="346" y="690" type="curve" smooth="yes"/>
      <point x="211" y="691"/>
      <point x="150" y="645"/>
      <point x="150" y="572" type="curve"/>
      <point x="157" y="572" type="line"/>
      <point x="157" y="619"/>
      <point x="230" y="640"/>
      <point x="346" y="640" type="curve" smooth="yes"/>
      <point x="494" y="640"/>
      <point x="579" y="583"/>
      <point x="576" y="340" type="curve" smooth="yes"/>
      <point x="573" y="100"/>
      <point x="494" y="40"/>
      <point x="346" y="40" type="curve" smooth="yes"/>
      <point x="224" y="40"/>
      <point x="157" y="59"/>
      <point x="157" y="114" type="curve"/>
      <point x="150" y="112" type="line"/>
      <point x="150" y="39"/>
      <point x="204" y="-10"/>
    </contour>
    <contour>
      <point x="100" y="0" type="line"/>
      <point x="154" y="0"/>
      <point x="157" y="53"/>
      <point x="157" y="105" type="curve" smooth="yes"/>
      <point x="157" y="119"/>
      <point x="157" y="122"/>
      <point x="157" y="152" type="curve"/>
      <point x="142" y="152" type="line"/>
      <point x="142" y="93"/>
      <point x="135" y="57"/>
      <point x="100" y="57" type="curve"/>
    </contour>
    <contour>
      <point x="142" y="125" type="line"/>
      <point x="157" y="125" type="line"/>
      <point x="157" y="567" type="line"/>
      <point x="142" y="567" type="line"/>
    </contour>
    <contour>
      <point x="142" y="528" type="curve"/>
      <point x="157" y="528" type="line"/>
      <point x="157" y="575" type="line" smooth="yes"/>
      <point x="157" y="627"/>
      <point x="154" y="680"/>
      <point x="100" y="680" type="curve"/>
      <point x="100" y="623" type="line"/>
      <point x="135" y="623"/>
      <point x="142" y="587"/>
    </contour>
  </outline>
</glyph>
<glyph name="E" format="2">
  <advance width="615"/>
  <unicode hex="0045"/>
  <anchor x="364" y="0" name="bottom"/>
  <anchor x="538" y="0" name="ogonek"/>
  <anchor x="352" y="680" name="top"/>
  <anchor x="140" y="681" name="topleft"/>
  <outline>
    <contour>
      <point x="142" y="635" type="line"/>
      <point x="540" y="635" type="line"/>
      <point x="540" y="680" type="line"/>
      <point x="199" y="680" type="line"/>
      <point x="168" y="680"/>
      <point x="142" y="670"/>
      <point x="142" y="637" type="curve"/>
    </contour>
    <contour>
      <point x="199" y="0" type="curve"/>
      <point x="540" y="0" type="line"/>
      <point x="540" y="46" type="line"/>
      <point x="142" y="46" type="line"/>
      <point x="142" y="44" type="line"/>
      <point x="142" y="11"/>
      <point x="168" y="0"/>
    </contour>
    <contour>
      <point x="100" y="0" type="line"/>
      <point x="130" y="0"/>
      <point x="157" y="11"/>
      <point x="157" y="44" type="curve"/>
      <point x="157" y="46" type="line"/>
      <point x="100" y="46" type="line"/>
    </contour>
    <contour>
      <point x="142" y="43" type="line"/>
      <point x="157" y="43" type="line"/>
      <point x="198" y="46" type="line"/>
      <point x="168" y="46"/>
      <point x="157" y="54"/>
      <point x="157" y="103" type="curve"/>
      <point x="142" y="103" type="line"/>
      <point x="142" y="54"/>
      <point x="130" y="46"/>
      <point x="100" y="46" type="curve"/>
    </contour>
    <contour>
      <point x="142" y="66" type="line"/>
      <point x="157" y="66" type="line"/>
      <point x="157" y="641" type="line"/>
      <point x="142" y="641" type="line"/>
    </contour>
    <contour>
      <point x="149" y="339" type="line"/>
      <point x="453" y="339" type="line"/>
      <point x="453" y="364" type="line"/>
      <point x="149" y="364" type="line"/>
    </contour>
    <contour>
      <point x="142" y="582" type="curve"/>
      <point x="157" y="582" type="line"/>
      <point x="157" y="627"/>
      <point x="168" y="635"/>
      <point x="198" y="635" type="curve"/>
      <point x="157" y="638" type="line"/>
      <point x="142" y="638" type="line"/>
      <point x="100" y="635" type="line"/>
      <point x="130" y="635"/>
      <point x="142" y="627"/>
    </contour>
    <contour>
      <point x="100" y="635" type="line"/>
      <point x="157" y="635" type="line"/>
      <point x="157" y="637" type="line"/>
      <point x="157" y="670"/>
      <point x="130" y="680"/>
      <point x="100" y="680" type="curve"/>
    </contour>
    <contour>
      <point x="525" y="16" type="line"/>
      <point x="540" y="16" type="line"/>
      <point x="540" y="83" type="line"/>
      <point x="525" y="83" type="line"/>
    </contour>
    <contour>
      <point x="525" y="599" type="line"/>
      <point x="540" y="599" type="line"/>
      <point x="540" y="673" type="line"/>
      <point x="525" y="673" type="line"/>
    </contour>
  </outline>
</glyph>
<glyph name="F" format="2">
  <advance width="605"/>
  <unicode hex="0046"/>
  <anchor x="214" y="0" name="bottom"/>
  <anchor x="214" y="680" name="top"/>
  <outline>
    <contour>
      <point x="142" y="630" type="line"/>
      <point x="530" y="630" type="line"/>
      <point x="530" y="680" type="line"/>
      <point x="199" y="680" type="line"/>
      <point x="168" y="680"/>
      <point x="142" y="665"/>
      <point x="142" y="632" type="curve"/>
    </contour>
    <contour>
      <point x="142" y="70" type="line"/>
      <point x="157" y="70" type="line"/>
      <point x="157" y="636" type="line"/>
      <point x="142" y="636" type="line"/>
    </contour>
    <contour>
      <point x="147" y="302" type="line"/>
      <point x="447" y="302" type="line"/>
      <point x="447" y="327" type="line"/>
      <point x="147" y="327" type="line"/>
    </contour>
    <contour>
      <point x="142" y="577" type="curve"/>
      <point x="157" y="577" type="line"/>
      <point x="157" y="622"/>
      <point x="168" y="630"/>
      <point x="198" y="630" type="curve"/>
      <point x="157" y="633" type="line"/>
      <point x="142" y="633" type="line"/>
      <point x="100" y="630" type="line"/>
      <point x="130" y="630"/>
      <point x="142" y="622"/>
    </contour>
    <contour>
      <point x="100" y="630" type="line"/>
      <point x="157" y="630" type="line"/>
      <point x="157" y="632" type="line"/>
      <point x="157" y="665"/>
      <point x="130" y="680"/>
      <point x="100" y="680" type="curve"/>
    </contour>
    <contour>
      <point x="515" y="599" type="line"/>
      <point x="530" y="599" type="line"/>
      <point x="530" y="673" type="line"/>
      <point x="515" y="673" type="line"/>
    </contour>
    <component base="serif_inf_der" xOffset="2"/>
    <component base="serif_inf_izq" xOffset="2"/>
  </outline>
</glyph>
<glyph name="G" format="2">
  <advance width="650"/>
  <unicode hex="0047"/>
  <anchor x="341" y="0" name="bottom"/>
  <anchor x="348" y="650" name="top"/>
  <outline>
    <contour>
      <point x="339" y="-10" type="curve" smooth="yes"/>
      <point x="499" y="-10"/>
      <point x="547" y="86"/>
      <point x="553" y="320" type="curve"/>
      <point x="540" y="310" type="line"/>
      <point x="540" y="116"/>
      <point x="498" y="40"/>
      <point x="339" y="40" type="curve" smooth="yes"/>
      <point x="187" y="40"/>
      <point x="103" y="166"/>
      <point x="103" y="339" type="curve" smooth="yes"/>
      <point x="103" y="553"/>
      <point x="177" y="640"/>
      <point x="339" y="640" type="curve" smooth="yes"/>
      <point x="498" y="640"/>
      <point x="540" y="613"/>
      <point x="540" y="599" type="curve"/>
      <point x="540" y="599"/>
      <point x="555" y="599"/>
      <point x="555" y="599" type="curve"/>
      <point x="555" y="638"/>
      <point x="508" y="689"/>
      <point x="339" y="690" type="curve" smooth="yes"/>
      <point x="169" y="691"/>
      <point x="90" y="578"/>
      <point x="90" y="341" type="curve" smooth="yes"/>
      <point x="90" y="136"/>
      <point x="179" y="-10"/>
    </contour>
    <contour>
      <point x="540" y="0" type="line"/>
      <point x="560" y="0" type="line"/>
      <point x="560" y="320" type="line"/>
      <point x="540" y="320" type="line"/>
    </contour>
    <contour>
      <point x="313" y="295" type="line"/>
      <point x="560" y="295" type="line"/>
      <point x="560" y="320" type="line"/>
      <point x="313" y="320" type="line"/>
    </contour>
    <contour>
      <point x="555" y="599" type="line"/>
      <point x="555" y="690" type="line"/>
      <point x="532" y="690"/>
      <point x="501" y="665"/>
      <point x="501" y="641" type="curve"/>
      <point x="553" y="606" type="line"/>
    </contour>
  </outline>
</glyph>
<glyph name="H" format="2">
  <advance width="734"/>
  <unicode hex="0048"/>
  <anchor x="380" y="0" name="bottom"/>
  <anchor x="380" y="340" name="center"/>
  <anchor x="377" y="651" name="top"/>
  <anchor x="89" y="680" name="topleft"/>
  <outline>
    <contour>
      <point x="577" y="70" type="line"/>
      <point x="592" y="70" type="line"/>
      <point x="592" y="620" type="line"/>
      <point x="577" y="620" type="line"/>
    </contour>
    <contour>
      <point x="142" y="70" type="line"/>
      <point x="157" y="70" type="line"/>
      <point x="157" y="620" type="line"/>
      <point x="142" y="620" type="line"/>
    </contour>
    <contour>
      <point x="151" y="340" type="line"/>
      <point x="586" y="340" type="line"/>
      <point x="586" y="365" type="line"/>
      <point x="151" y="365" type="line"/>
    </contour>
    <component base="serif_sup_izq" xOffset="5" yOffset="160"/>
    <component base="serif_sup_der" xOffset="-25" yOffset="160"/>
    <component base="serif_inf_der" xOffset="2"/>
    <component base="serif_inf_izq" xOffset="2"/>
    <component base="serif_sup_izq" xOffset="440" yOffset="160"/>
    <component base="serif_sup_der" xOffset="410" yOffset="160"/>
    <component base="serif_inf_der" xOffset="437"/>
    <component base="serif_inf_izq" xOffset="437"/>
  </outline>
</glyph>
<glyph name="I" format="2">
  <advance width="400"/>
  <unicode hex="0049"/>
  <anchor x="200" y="-10" name="bottom"/>
  <anchor x="299" y="-1" name="ogonek"/>
  <anchor x="204" y="650" name="top"/>
  <anchor x="100" y="680" name="topleft"/>
  <outline>
    <contour>
      <point x="142" y="630" type="line"/>
      <point x="258" y="630" type="line"/>
      <point x="258" y="633" type="line" smooth="yes"/>
      <point x="258" y="659"/>
      <point x="235" y="680"/>
      <point x="200" y="680" type="curve" smooth="yes"/>
      <point x="165" y="680"/>
      <point x="142" y="659"/>
      <point x="142" y="633" type="curve" smooth="yes"/>
    </contour>
    <contour>
      <point x="100" y="0" type="line"/>
      <point x="134" y="0"/>
      <point x="157" y="21"/>
      <point x="157" y="47" type="curve" smooth="yes"/>
      <point x="157" y="50" type="line"/>
      <point x="100" y="50" type="line"/>
    </contour>
    <contour>
      <point x="100" y="31" type="line"/>
      <point x="115" y="31" type="line"/>
      <point x="115" y="83" type="line"/>
      <point x="100" y="83" type="line"/>
    </contour>
    <contour>
      <point x="200" y="0" type="curve" smooth="yes"/>
      <point x="235" y="0"/>
      <point x="258" y="21"/>
      <point x="258" y="47" type="curve" smooth="yes"/>
      <point x="258" y="50" type="line"/>
      <point x="142" y="50" type="line"/>
      <point x="142" y="47" type="line" smooth="yes"/>
      <point x="142" y="21"/>
      <point x="165" y="0"/>
    </contour>
    <contour>
      <point x="189" y="32" type="line"/>
      <point x="204" y="32" type="line"/>
      <point x="245" y="50" type="line"/>
      <point x="215" y="50"/>
      <point x="204" y="48"/>
      <point x="204" y="93" type="curve"/>
      <point x="189" y="93" type="line"/>
      <point x="189" y="48"/>
      <point x="177" y="50"/>
      <point x="147" y="50" type="curve"/>
    </contour>
    <contour>
      <point x="300" y="0" type="curve"/>
      <point x="300" y="50" type="line"/>
      <point x="243" y="50" type="line"/>
      <point x="243" y="47" type="line" smooth="yes"/>
      <point x="243" y="21"/>
      <point x="266" y="0"/>
    </contour>
    <contour>
      <point x="100" y="599" type="line"/>
      <point x="115" y="599" type="line"/>
      <point x="115" y="658" type="line"/>
      <point x="100" y="658" type="line"/>
    </contour>
    <contour>
      <point x="189" y="70" type="line"/>
      <point x="204" y="70" type="line"/>
      <point x="204" y="620" type="line"/>
      <point x="189" y="620" type="line"/>
    </contour>
    <contour>
      <point x="285" y="31" type="line"/>
      <point x="300" y="31" type="line"/>
      <point x="300" y="83" type="line"/>
      <point x="285" y="83" type="line"/>
    </contour>
    <contour>
      <point x="100" y="630" type="line"/>
      <point x="157" y="630" type="line"/>
      <point x="157" y="633" type="line" smooth="yes"/>
      <point x="157" y="659"/>
      <point x="134" y="680"/>
      <point x="100" y="680" type="curve"/>
    </contour>
    <contour>
      <point x="189" y="577" type="curve"/>
      <point x="204" y="577" type="line"/>
      <point x="204" y="622"/>
      <point x="215" y="630"/>
      <point x="245" y="630" type="curve"/>
      <point x="204" y="648" type="line"/>
      <point x="189" y="648" type="line"/>
      <point x="147" y="630" type="line"/>
      <point x="177" y="630"/>
      <point x="189" y="622"/>
    </contour>
    <contour>
      <point x="285" y="599" type="line"/>
      <point x="300" y="599" type="line"/>
      <point x="300" y="658" type="line"/>
      <point x="285" y="658" type="line"/>
    </contour>
    <contour>
      <point x="243" y="630" type="line"/>
      <point x="300" y="630" type="line"/>
      <point x="300" y="680" type="line"/>
      <point x="266" y="680"/>
      <point x="243" y="659"/>
      <point x="243" y="633" type="curve" smooth="yes"/>
    </contour>
  </outline>
</glyph>
<glyph name="J" format="2">
  <advance width="450"/>
  <unicode hex="004A"/>
  <anchor x="228" y="0" name="bottom"/>
  <anchor x="215" y="650" name="top"/>
  <outline>
    <contour>
      <point x="184" y="-12" type="curve" smooth="yes"/>
      <point x="344" y="-12"/>
      <point x="369" y="22"/>
      <point x="369" y="206" type="curve"/>
      <point x="354" y="206" type="line"/>
      <point x="354" y="62"/>
      <point x="354" y="40"/>
      <point x="184" y="40" type="curve" smooth="yes"/>
      <point x="75" y="40"/>
      <point x="45" y="62"/>
      <point x="45" y="83" type="curve"/>
      <point x="30" y="83" type="line"/>
      <point x="30" y="22"/>
      <point x="85" y="-12"/>
    </contour>
    <contour>
      <point x="30" y="599" type="line"/>
      <point x="45" y="599" type="line"/>
      <point x="45" y="673" type="line"/>
      <point x="30" y="673" type="line"/>
    </contour>
    <contour>
      <point x="354" y="206" type="line"/>
      <point x="369" y="206" type="line"/>
      <point x="369" y="646" type="line"/>
      <point x="354" y="646" type="line"/>
    </contour>
    <contour>
      <point x="30" y="635" type="line"/>
      <point x="368" y="635" type="line"/>
      <point x="368" y="661"/>
      <point x="345" y="680"/>
      <point x="308" y="680" type="curve"/>
      <point x="30" y="680" type="line"/>
    </contour>
    <contour>
      <point x="354" y="581" type="curve"/>
      <point x="369" y="581" type="line"/>
      <point x="369" y="626"/>
      <point x="380" y="635"/>
      <point x="410" y="635" type="curve"/>
      <point x="369" y="653" type="line"/>
      <point x="354" y="653" type="line"/>
      <point x="312" y="635" type="line"/>
      <point x="342" y="635"/>
      <point x="354" y="626"/>
    </contour>
    <contour>
      <point x="353" y="635" type="line"/>
      <point x="410" y="635" type="line"/>
      <point x="410" y="680" type="line"/>
      <point x="376" y="680"/>
      <point x="353" y="661"/>
      <point x="353" y="636" type="curve" smooth="yes"/>
    </contour>
  </outline>
</glyph>
<glyph name="K" format="2">
  <advance width="702"/>
  <unicode hex="004B"/>
  <anchor x="292" y="0" name="bottom"/>
  <anchor x="312" y="650" name="top"/>
  <outline>
    <contour>
      <point x="577" y="35" type="line"/>
      <point x="577" y="50" type="line"/>
      <point x="152" y="442" type="line"/>
      <point x="152" y="408" type="line"/>
      <point x="539" y="61" type="line"/>
    </contour>
    <contour>
      <point x="142" y="60" type="line"/>
      <point x="157" y="60" type="line"/>
      <point x="157" y="620" type="line"/>
      <point x="142" y="620" type="line"/>
    </contour>
    <contour>
      <point x="520" y="0" type="line"/>
      <point x="557" y="0"/>
      <point x="577" y="22"/>
      <point x="577" y="46" type="curve"/>
      <point x="562" y="46" type="line"/>
      <point x="562" y="22"/>
      <point x="582" y="0"/>
      <point x="619" y="0" type="curve"/>
      <point x="619" y="50" type="line"/>
      <point x="520" y="50" type="line"/>
    </contour>
    <contour>
      <point x="278" y="294" type="line"/>
      <point x="304" y="294" type="line"/>
      <point x="581" y="630" type="line"/>
      <point x="560" y="630" type="line"/>
      <point x="548" y="620" type="line"/>
    </contour>
    <contour>
      <point x="523" y="630" type="line"/>
      <point x="622" y="630" type="line"/>
      <point x="622" y="680" type="line"/>
      <point x="585" y="680"/>
      <point x="565" y="658"/>
      <point x="565" y="634" type="curve"/>
      <point x="580" y="634" type="line"/>
      <point x="580" y="658"/>
      <point x="560" y="680"/>
      <point x="523" y="680" type="curve"/>
    </contour>
    <component base="serif_sup_izq" xOffset="5" yOffset="160"/>
    <component base="serif_sup_der" xOffset="-25" yOffset="160"/>
    <component base="serif_inf_der" xOffset="2"/>
    <component base="serif_inf_izq" xOffset="2"/>
  </outline>
</glyph>
<glyph name="L" format="2">
  <advance width="569"/>
  <unicode hex="004C"/>
  <anchor x="239" y="0" name="bottom"/>
  <anchor x="147" y="370" name="center"/>
  <anchor x="149" y="650" name="top"/>
  <anchor x="375" y="680" name="topright"/>
  <outline>
    <contour>
      <point x="199" y="0" type="curve" smooth="yes"/>
      <point x="519" y="0" type="line"/>
      <point x="519" y="50" type="line"/>
      <point x="142" y="50" type="line"/>
      <point x="142" y="48" type="line" smooth="yes"/>
      <point x="142" y="15"/>
      <point x="168" y="0"/>
    </contour>
    <contour>
      <point x="100" y="0" type="line"/>
      <point x="130" y="0"/>
      <point x="157" y="15"/>
      <point x="157" y="48" type="curve" smooth="yes"/>
      <point x="157" y="50" type="line"/>
      <point x="100" y="50" type="line"/>
    </contour>
    <contour>
      <point x="142" y="47" type="line"/>
      <point x="157" y="47" type="line"/>
      <point x="198" y="50" type="line"/>
      <point x="168" y="50"/>
      <point x="157" y="58"/>
      <point x="157" y="103" type="curve"/>
      <point x="142" y="103" type="line"/>
      <point x="142" y="58"/>
      <point x="130" y="50"/>
      <point x="100" y="50" type="curve"/>
    </contour>
    <contour>
      <point x="142" y="44" type="line"/>
      <point x="157" y="44" type="line"/>
      <point x="157" y="610" type="line"/>
      <point x="142" y="610" type="line"/>
    </contour>
    <contour>
      <point x="504" y="16" type="line"/>
      <point x="519" y="16" type="line"/>
      <point x="519" y="83" type="line"/>
      <point x="504" y="83" type="line"/>
    </contour>
    <component base="serif_sup_izq" xOffset="5" yOffset="160"/>
    <component base="serif_sup_der" xOffset="-25" yOffset="160"/>
  </outline>
</glyph>
<glyph name="M" format="2">
  <advance width="922"/>
  <unicode hex="004D"/>
  <guideline x="268"/>
  <anchor x="461" y="0" name="bottom"/>
  <anchor x="461" y="650" name="top"/>
  <outline>
    <contour>
      <point x="803" y="46" type="line"/>
      <point x="819" y="46" type="line"/>
      <point x="676" y="620" type="line"/>
      <point x="668" y="632" type="line"/>
      <point x="650" y="632" type="line"/>
      <point x="794" y="61" type="line"/>
    </contour>
    <contour>
      <point x="70" y="0" type="line"/>
      <point x="91" y="0"/>
      <point x="127" y="11"/>
      <point x="127" y="46" type="curve"/>
      <point x="112" y="46" type="line"/>
      <point x="112" y="11"/>
      <point x="146" y="0"/>
      <point x="169" y="0" type="curve"/>
      <point x="169" y="50" type="line"/>
      <point x="70" y="50" type="line"/>
    </contour>
    <contour>
      <point x="411" y="0" type="line"/>
      <point x="432" y="0"/>
      <point x="477" y="15"/>
      <point x="477" y="50" type="curve"/>
      <point x="445" y="50" type="line"/>
      <point x="445" y="15"/>
      <point x="487" y="0"/>
      <point x="510" y="0" type="curve"/>
      <point x="510" y="50" type="line"/>
      <point x="411" y="50" type="line"/>
    </contour>
    <contour>
      <point x="103" y="46" type="line"/>
      <point x="119" y="46" type="line"/>
      <point x="128" y="62" type="line"/>
      <point x="272" y="632" type="line"/>
      <point x="254" y="632" type="line"/>
      <point x="246" y="620" type="line"/>
    </contour>
    <contour>
      <point x="442" y="48" type="line"/>
      <point x="461" y="48" type="line"/>
      <point x="461" y="60" type="line"/>
      <point x="295" y="619" type="line"/>
      <point x="287" y="632" type="line"/>
      <point x="270" y="632" type="line"/>
    </contour>
    <contour>
      <point x="753" y="0" type="line"/>
      <point x="776" y="0"/>
      <point x="810" y="11"/>
      <point x="810" y="46" type="curve"/>
      <point x="795" y="46" type="line"/>
      <point x="795" y="11"/>
      <point x="831" y="0"/>
      <point x="852" y="0" type="curve"/>
      <point x="852" y="50" type="line"/>
      <point x="753" y="50" type="line"/>
    </contour>
    <contour>
      <point x="221" y="630" type="line"/>
      <point x="320" y="630" type="line"/>
      <point x="320" y="680" type="line"/>
      <point x="297" y="680"/>
      <point x="263" y="669"/>
      <point x="263" y="634" type="curve"/>
      <point x="278" y="634" type="line"/>
      <point x="278" y="669"/>
      <point x="242" y="680"/>
      <point x="221" y="680" type="curve"/>
    </contour>
    <contour>
      <point x="463" y="48" type="line"/>
      <point x="481" y="48" type="line"/>
      <point x="652" y="632" type="line"/>
      <point x="635" y="632" type="line"/>
      <point x="627" y="620" type="line"/>
      <point x="463" y="60" type="line"/>
    </contour>
    <contour>
      <point x="602" y="630" type="line"/>
      <point x="701" y="630" type="line"/>
      <point x="701" y="680" type="line"/>
      <point x="680" y="680"/>
      <point x="644" y="669"/>
      <point x="644" y="634" type="curve"/>
      <point x="659" y="634" type="line"/>
      <point x="659" y="669"/>
      <point x="625" y="680"/>
      <point x="602" y="680" type="curve"/>
    </contour>
  </outline>
</glyph>
<glyph name="N" format="2">
  <advance width="736"/>
  <unicode hex="004E"/>
  <anchor x="396" y="0" name="bottom"/>
  <anchor x="402" y="653" name="top"/>
  <outline>
    <contour>
      <point x="636" y="0" type="curve"/>
      <point x="636" y="50" type="line"/>
      <point x="461" y="50"/>
      <point x="388" y="76"/>
      <point x="375" y="312" type="curve" smooth="yes"/>
      <point x="359" y="606"/>
      <point x="333" y="680"/>
      <point x="101" y="680" type="curve"/>
      <point x="101" y="630" type="line"/>
      <point x="304" y="630"/>
      <point x="347" y="583"/>
      <point x="361" y="317" type="curve" smooth="yes"/>
      <point x="375" y="50"/>
      <point x="433" y="0"/>
    </contour>
    <contour>
      <point x="143" y="60" type="line"/>
      <point x="158" y="60" type="line"/>
      <point x="158" y="640" type="line"/>
      <point x="143" y="640" type="line"/>
    </contour>
    <contour>
      <point x="579" y="23" type="line"/>
      <point x="594" y="23" type="line"/>
      <point x="594" y="595" type="line"/>
      <point x="579" y="595" type="line"/>
    </contour>
    <component base="serif_inf_der" xOffset="3"/>
    <component base="serif_inf_izq" xOffset="2"/>
    <component base="serif_sup_izq" xOffset="442" yOffset="160"/>
    <component base="serif_sup_der" xOffset="412" yOffset="160"/>
  </outline>
</glyph>
<glyph name="O" format="2">
  <advance width="660"/>
  <unicode hex="004F"/>
  <anchor x="330" y="0" name="bottom"/>
  <anchor x="342" y="330" name="center"/>
  <anchor x="331" y="9" name="ogonek"/>
  <anchor x="331" y="680" name="top"/>
  <anchor x="272" y="689" name="topleft"/>
  <anchor x="641" y="680" name="topright"/>
  <outline>
    <contour>
      <point x="330" y="-10" type="curve" smooth="yes"/>
      <point x="472" y="-10"/>
      <point x="570" y="58"/>
      <point x="570" y="338" type="curve" smooth="yes"/>
      <point x="570" y="617"/>
      <point x="472" y="689"/>
      <point x="330" y="690" type="curve" smooth="yes"/>
      <point x="188" y="691"/>
      <point x="90" y="617"/>
      <point x="90" y="338" type="curve" smooth="yes"/>
      <point x="90" y="58"/>
      <point x="188" y="-10"/>
    </contour>
    <contour>
      <point x="330" y="38" type="curve" smooth="yes"/>
      <point x="208" y="38"/>
      <point x="103" y="76"/>
      <point x="103" y="338" type="curve" smooth="yes"/>
      <point x="103" y="602"/>
      <point x="208" y="640"/>
      <point x="330" y="640" type="curve" smooth="yes"/>
      <point x="445" y="640"/>
      <point x="559" y="602"/>
      <point x="557" y="338" type="curve" smooth="yes"/>
      <point x="555" y="76"/>
      <point x="445" y="38"/>
    </contour>
  </outline>
</glyph>
<glyph name="P" format="2">
  <advance width="650"/>
  <unicode hex="0050"/>
  <anchor x="286" y="0" name="bottom"/>
  <anchor x="286" y="680" name="top"/>
  <outline>
    <contour>
      <point x="362" y="250" type="curve" smooth="yes"/>
      <point x="477" y="250"/>
      <point x="570" y="301"/>
      <point x="570" y="463" type="curve" smooth="yes"/>
      <point x="570" y="611"/>
      <point x="499" y="690"/>
      <point x="362" y="690" type="curve" smooth="yes"/>
      <point x="233" y="690"/>
      <point x="151" y="630"/>
      <point x="151" y="564" type="curve" smooth="yes"/>
      <point x="151" y="521"/>
      <point x="146" y="428"/>
      <point x="146" y="428" type="curve"/>
      <point x="146" y="344"/>
      <point x="179" y="250"/>
    </contour>
    <contour>
      <point x="142" y="83" type="line"/>
      <point x="157" y="83" type="line"/>
      <point x="157" y="555" type="line"/>
      <point x="142" y="555" type="line"/>
    </contour>
    <contour>
      <point x="142" y="528" type="curve"/>
      <point x="157" y="528" type="line"/>
      <point x="157" y="528"/>
      <point x="157" y="561"/>
      <point x="157" y="575" type="curve" smooth="yes"/>
      <point x="157" y="627"/>
      <point x="154" y="680"/>
      <point x="100" y="680" type="curve"/>
      <point x="100" y="623" type="line"/>
      <point x="135" y="623"/>
      <point x="142" y="587"/>
    </contour>
    <contour>
      <point x="349" y="270" type="curve" smooth="yes"/>
      <point x="217" y="270"/>
      <point x="157" y="336"/>
      <point x="157" y="439" type="curve" smooth="yes"/>
      <point x="157" y="444"/>
      <point x="157" y="510"/>
      <point x="157" y="539" type="curve" smooth="yes"/>
      <point x="157" y="617"/>
      <point x="233" y="640"/>
      <point x="349" y="640" type="curve" smooth="yes"/>
      <point x="477" y="640"/>
      <point x="553" y="597"/>
      <point x="553" y="463" type="curve" smooth="yes"/>
      <point x="553" y="333"/>
      <point x="477" y="270"/>
    </contour>
    <component base="serif_inf_izq" xOffset="2"/>
    <component base="serif_inf_der" xOffset="2"/>
  </outline>
</glyph>
<glyph name="R" format="2">
  <advance width="639"/>
  <unicode hex="0052"/>
  <anchor x="323" y="0" name="bottom"/>
  <anchor x="335" y="650" name="top"/>
  <outline>
    <contour>
      <point x="152" y="270" type="line"/>
      <point x="368" y="270" type="line"/>
      <point x="467" y="270"/>
      <point x="560" y="321"/>
      <point x="560" y="480" type="curve" smooth="yes"/>
      <point x="560" y="591"/>
      <point x="489" y="690"/>
      <point x="358" y="690" type="curve" smooth="yes"/>
      <point x="233" y="690"/>
      <point x="151" y="630"/>
      <point x="151" y="564" type="curve"/>
      <point x="157" y="539" type="line"/>
      <point x="157" y="617"/>
      <point x="233" y="640"/>
      <point x="345" y="640" type="curve" smooth="yes"/>
      <point x="467" y="640"/>
      <point x="540" y="587"/>
      <point x="540" y="465" type="curve" smooth="yes"/>
      <point x="540" y="353"/>
      <point x="467" y="290"/>
      <point x="355" y="290" type="curve"/>
      <point x="151" y="290" type="line"/>
    </contour>
    <contour>
      <point x="142" y="93" type="line"/>
      <point x="157" y="93" type="line"/>
      <point x="157" y="555" type="line"/>
      <point x="142" y="555" type="line"/>
    </contour>
    <contour>
      <point x="459" y="0" type="line"/>
      <point x="496" y="0"/>
      <point x="516" y="22"/>
      <point x="516" y="46" type="curve"/>
      <point x="501" y="46" type="line"/>
      <point x="501" y="22"/>
      <point x="521" y="0"/>
      <point x="558" y="0" type="curve"/>
      <point x="558" y="50" type="line"/>
      <point x="459" y="50" type="line"/>
    </contour>
    <contour>
      <point x="142" y="528" type="curve"/>
      <point x="157" y="528" type="line"/>
      <point x="157" y="575" type="line" smooth="yes"/>
      <point x="157" y="627"/>
      <point x="154" y="680"/>
      <point x="100" y="680" type="curve"/>
      <point x="100" y="623" type="line"/>
      <point x="135" y="623"/>
      <point x="142" y="587"/>
    </contour>
    <contour>
      <point x="501" y="50" type="line"/>
      <point x="521" y="50" type="line"/>
      <point x="365" y="280" type="line"/>
      <point x="345" y="280" type="line"/>
    </contour>
    <component base="serif_inf_izq" xOffset="2"/>
    <component base="serif_inf_der" xOffset="2"/>
  </outline>
</glyph>
<glyph name="S" format="2">
  <advance width="532"/>
  <unicode hex="0053"/>
  <anchor x="254" y="-10" name="bottom"/>
  <anchor x="257" y="650" name="top"/>
  <outline>
    <contour>
      <point x="241" y="328" type="curve"/>
      <point x="241" y="348" type="line"/>
      <point x="126" y="348"/>
      <point x="46" y="399"/>
      <point x="46" y="502" type="curve" smooth="yes"/>
      <point x="46" y="603"/>
      <point x="126" y="640"/>
      <point x="250" y="640" type="curve" smooth="yes"/>
      <point x="390" y="640"/>
      <point x="436" y="621"/>
      <point x="436" y="599" type="curve"/>
      <point x="451" y="599" type="line"/>
      <point x="451" y="630"/>
      <point x="407" y="690"/>
      <point x="250" y="690" type="curve" smooth="yes"/>
      <point x="112" y="690"/>
      <point x="31" y="623"/>
      <point x="31" y="502" type="curve" smooth="yes"/>
      <point x="31" y="380"/>
      <point x="112" y="328"/>
    </contour>
    <contour>
      <point x="237" y="-10" type="curve" smooth="yes"/>
      <point x="367" y="-10"/>
      <point x="451" y="59"/>
      <point x="451" y="184" type="curve" smooth="yes"/>
      <point x="451" y="299"/>
      <point x="372" y="348"/>
      <point x="241" y="348" type="curve"/>
      <point x="241" y="328" type="line"/>
      <point x="360" y="328"/>
      <point x="436" y="282"/>
      <point x="436" y="184" type="curve" smooth="yes"/>
      <point x="436" y="91"/>
      <point x="365" y="40"/>
      <point x="237" y="40" type="curve" smooth="yes"/>
      <point x="93" y="40"/>
      <point x="46" y="62"/>
      <point x="46" y="83" type="curve"/>
      <point x="31" y="83" type="line"/>
      <point x="31" y="30"/>
      <point x="92" y="-10"/>
    </contour>
    <contour>
      <point x="451" y="599" type="line"/>
      <point x="451" y="690" type="line"/>
      <point x="428" y="690"/>
      <point x="397" y="665"/>
      <point x="397" y="641" type="curve"/>
      <point x="434" y="623" type="line"/>
    </contour>
  </outline>
</glyph>
<glyph name="T" format="2">
  <advance width="550"/>
  <unicode hex="0054"/>
  <anchor x="274" y="0" name="bottom"/>
  <anchor x="272" y="340" name="center"/>
  <anchor x="274" y="650" name="top"/>
  <outline>
    <contour>
      <point x="170" y="630" type="line"/>
      <point x="380" y="630" type="line"/>
      <point x="380" y="680" type="line"/>
      <point x="170" y="680" type="line"/>
    </contour>
    <contour>
      <point x="423" y="630" type="line"/>
      <point x="480" y="630" type="line"/>
      <point x="480" y="680" type="line"/>
      <point x="446" y="680"/>
      <point x="423" y="659"/>
      <point x="423" y="633" type="curve" smooth="yes"/>
    </contour>
    <contour>
      <point x="70" y="599" type="line"/>
      <point x="85" y="599" type="line"/>
      <point x="85" y="658" type="line"/>
      <point x="70" y="658" type="line"/>
    </contour>
    <contour>
      <point x="267" y="70" type="line"/>
      <point x="282" y="70" type="line"/>
      <point x="282" y="620" type="line"/>
      <point x="267" y="620" type="line"/>
    </contour>
    <contour>
      <point x="70" y="630" type="line"/>
      <point x="127" y="630" type="line"/>
      <point x="127" y="633" type="line" smooth="yes"/>
      <point x="127" y="659"/>
      <point x="104" y="680"/>
      <point x="70" y="680" type="curve"/>
    </contour>
    <contour>
      <point x="267" y="577" type="curve"/>
      <point x="282" y="577" type="line"/>
      <point x="282" y="622"/>
      <point x="293" y="630"/>
      <point x="323" y="630" type="curve"/>
      <point x="282" y="648" type="line"/>
      <point x="267" y="648" type="line"/>
      <point x="225" y="630" type="line"/>
      <point x="255" y="630"/>
      <point x="267" y="622"/>
    </contour>
    <contour>
      <point x="112" y="630" type="line"/>
      <point x="170" y="630" type="line"/>
      <point x="170" y="680" type="line"/>
      <point x="135" y="680"/>
      <point x="112" y="659"/>
      <point x="112" y="633" type="curve" smooth="yes"/>
    </contour>
    <contour>
      <point x="380" y="630" type="line"/>
      <point x="438" y="630" type="line"/>
      <point x="438" y="633" type="line" smooth="yes"/>
      <point x="438" y="659"/>
      <point x="413" y="680"/>
      <point x="380" y="680" type="curve"/>
    </contour>
    <contour>
      <point x="465" y="599" type="line"/>
      <point x="480" y="599" type="line"/>
      <point x="480" y="658" type="line"/>
      <point x="465" y="658" type="line"/>
    </contour>
    <component base="serif_inf_der" xOffset="127"/>
    <component base="serif_inf_izq" xOffset="127"/>
  </outline>
</glyph>
<glyph name="U" format="2">
  <advance width="706"/>
  <unicode hex="0055"/>
  <anchor x="353" y="0" name="bottom"/>
  <anchor x="379" y="-10" name="ogonek"/>
  <anchor x="361" y="649" name="top"/>
  <anchor x="576" y="680" name="topright"/>
  <outline>
    <contour>
      <point x="353" y="-10" type="curve" smooth="yes"/>
      <point x="507" y="-10"/>
      <point x="564" y="78"/>
      <point x="564" y="168" type="curve" smooth="yes"/>
      <point x="564" y="333"/>
      <point x="564" y="595"/>
      <point x="564" y="608" type="curve"/>
      <point x="549" y="608" type="line"/>
      <point x="549" y="596"/>
      <point x="549" y="334"/>
      <point x="549" y="198" type="curve" smooth="yes"/>
      <point x="549" y="96"/>
      <point x="480" y="38"/>
      <point x="353" y="38" type="curve" smooth="yes"/>
      <point x="226" y="38"/>
      <point x="158" y="96"/>
      <point x="158" y="198" type="curve" smooth="yes"/>
      <point x="158" y="334"/>
      <point x="157" y="596"/>
      <point x="157" y="608" type="curve"/>
      <point x="142" y="608" type="line"/>
      <point x="142" y="595"/>
      <point x="142" y="333"/>
      <point x="142" y="168" type="curve" smooth="yes"/>
      <point x="142" y="78"/>
      <point x="199" y="-10"/>
    </contour>
    <component base="serif_sup_izq" xOffset="5" yOffset="160"/>
    <component base="serif_sup_der" xOffset="-25" yOffset="160"/>
    <component base="serif_sup_izq" xOffset="412" yOffset="160"/>
    <component base="serif_sup_der" xOffset="382" yOffset="160"/>
  </outline>
</glyph>
<glyph name="V" format="2">
  <advance width="680"/>
  <unicode hex="0056"/>
  <guideline x="160" y="630" angle="284.9622"/>
  <guideline x="175" y="648" angle="284.9622"/>
  <anchor x="338" y="0" name="bottom"/>
  <anchor x="338" y="680" name="top"/>
  <outline>
    <contour>
      <point x="342" y="48" type="line"/>
      <point x="361" y="48" type="line"/>
      <point x="575" y="634" type="line"/>
      <point x="557" y="634" type="line"/>
      <point x="546" y="619" type="line"/>
      <point x="344" y="61" type="line"/>
    </contour>
    <contour>
      <point x="291" y="0" type="line"/>
      <point x="312" y="0"/>
      <point x="357" y="15"/>
      <point x="357" y="50" type="curve"/>
      <point x="323" y="50" type="line"/>
      <point x="323" y="15"/>
      <point x="367" y="0"/>
      <point x="390" y="0" type="curve"/>
      <point x="390" y="50" type="line"/>
      <point x="291" y="50" type="line"/>
    </contour>
    <contour>
      <point x="319" y="48" type="line"/>
      <point x="338" y="48" type="line"/>
      <point x="336" y="61" type="line"/>
      <point x="134" y="617" type="line"/>
      <point x="123" y="634" type="line"/>
      <point x="105" y="634" type="line"/>
    </contour>
    <contour>
      <point x="70" y="630" type="line"/>
      <point x="169" y="630" type="line"/>
      <point x="169" y="680" type="line"/>
      <point x="146" y="680"/>
      <point x="112" y="669"/>
      <point x="112" y="634" type="curve"/>
      <point x="127" y="634" type="line"/>
      <point x="127" y="669"/>
      <point x="91" y="680"/>
      <point x="70" y="680" type="curve"/>
    </contour>
    <contour>
      <point x="511" y="630" type="line"/>
      <point x="610" y="630" type="line"/>
      <point x="610" y="680" type="line"/>
      <point x="589" y="680"/>
      <point x="553" y="669"/>
      <point x="553" y="634" type="curve"/>
      <point x="568" y="634" type="line"/>
      <point x="568" y="669"/>
      <point x="534" y="680"/>
      <point x="511" y="680" type="curve"/>
    </contour>
  </outline>
</glyph>
<glyph name="W" format="2">
  <advance width="942"/>
  <unicode hex="0057"/>
  <anchor x="477" y="0" name="bottom"/>
  <anchor x="472" y="680" name="top"/>
  <outline>
    <contour>
      <point x="655" y="48" type="line"/>
      <point x="672" y="48" type="line"/>
      <point x="495" y="619" type="line"/>
      <point x="486" y="632" type="line"/>
      <point x="469" y="632" type="line"/>
      <point x="646" y="61" type="line"/>
    </contour>
    <contour>
      <point x="221" y="0" type="line"/>
      <point x="242" y="0"/>
      <point x="278" y="11"/>
      <point x="278" y="46" type="curve"/>
      <point x="263" y="46" type="line"/>
      <point x="263" y="11"/>
      <point x="297" y="0"/>
      <point x="320" y="0" type="curve"/>
      <point x="320" y="50" type="line"/>
      <point x="221" y="50" type="line"/>
    </contour>
    <contour>
      <point x="254" y="48" type="line"/>
      <point x="272" y="48" type="line"/>
      <point x="124" y="634" type="line"/>
      <point x="108" y="634" type="line"/>
      <point x="106" y="620" type="line"/>
      <point x="246" y="60" type="line"/>
    </contour>
    <contour>
      <point x="270" y="48" type="line"/>
      <point x="287" y="48" type="line"/>
      <point x="296" y="59" type="line"/>
      <point x="473" y="632" type="line"/>
      <point x="456" y="632" type="line"/>
      <point x="447" y="620" type="line"/>
    </contour>
    <contour>
      <point x="70" y="630" type="line"/>
      <point x="169" y="630" type="line"/>
      <point x="169" y="680" type="line"/>
      <point x="146" y="680"/>
      <point x="112" y="669"/>
      <point x="112" y="634" type="curve"/>
      <point x="127" y="634" type="line"/>
      <point x="127" y="669"/>
      <point x="91" y="680"/>
      <point x="70" y="680" type="curve"/>
    </contour>
    <contour>
      <point x="622" y="0" type="line"/>
      <point x="645" y="0"/>
      <point x="679" y="11"/>
      <point x="679" y="46" type="curve"/>
      <point x="664" y="46" type="line"/>
      <point x="664" y="11"/>
      <point x="700" y="0"/>
      <point x="721" y="0" type="curve"/>
      <point x="721" y="50" type="line"/>
      <point x="622" y="50" type="line"/>
    </contour>
    <contour>
      <point x="421" y="630" type="line"/>
      <point x="520" y="630" type="line"/>
      <point x="520" y="680" type="line"/>
      <point x="497" y="680"/>
      <point x="455" y="665"/>
      <point x="455" y="630" type="curve"/>
      <point x="487" y="630" type="line"/>
      <point x="487" y="665"/>
      <point x="442" y="680"/>
      <point x="421" y="680" type="curve"/>
    </contour>
    <contour>
      <point x="670" y="48" type="line"/>
      <point x="688" y="48" type="line"/>
      <point x="696" y="60" type="line"/>
      <point x="834" y="620" type="line"/>
      <point x="833" y="634" type="line"/>
      <point x="818" y="634" type="line"/>
    </contour>
    <contour>
      <point x="773" y="630" type="line"/>
      <point x="872" y="630" type="line"/>
      <point x="872" y="680" type="line"/>
      <point x="851" y="680"/>
      <point x="815" y="669"/>
      <point x="815" y="634" type="curve"/>
      <point x="830" y="634" type="line"/>
      <point x="830" y="669"/>
      <point x="796" y="680"/>
      <point x="773" y="680" type="curve"/>
    </contour>
  </outline>
</glyph>
<glyph name="X" format="2">
  <advance width="640"/>
  <unicode hex="0058"/>
  <anchor x="315" y="0" name="bottom"/>
  <anchor x="315" y="680" name="top"/>
  <outline>
    <contour>
      <point x="461" y="630" type="line"/>
      <point x="560" y="630" type="line"/>
      <point x="560" y="680" type="line"/>
      <point x="523" y="680"/>
      <point x="503" y="658"/>
      <point x="503" y="634" type="curve"/>
      <point x="518" y="634" type="line"/>
      <point x="518" y="658"/>
      <point x="498" y="680"/>
      <point x="461" y="680" type="curve"/>
    </contour>
    <contour>
      <point x="80" y="0" type="line"/>
      <point x="117" y="0"/>
      <point x="137" y="22"/>
      <point x="137" y="46" type="curve"/>
      <point x="122" y="46" type="line"/>
      <point x="122" y="22"/>
      <point x="142" y="0"/>
      <point x="179" y="0" type="curve"/>
      <point x="179" y="50" type="line"/>
      <point x="80" y="50" type="line"/>
    </contour>
    <contour>
      <point x="116" y="30" type="line"/>
      <point x="150" y="60" type="line"/>
      <point x="320" y="316" type="line"/>
      <point x="320" y="355" type="line"/>
      <point x="116" y="50" type="line"/>
    </contour>
    <contour>
      <point x="461" y="0" type="line"/>
      <point x="498" y="0"/>
      <point x="518" y="22"/>
      <point x="518" y="46" type="curve"/>
      <point x="503" y="46" type="line"/>
      <point x="503" y="22"/>
      <point x="523" y="0"/>
      <point x="560" y="0" type="curve"/>
      <point x="560" y="50" type="line"/>
      <point x="461" y="50" type="line"/>
    </contour>
    <contour>
      <point x="320" y="316" type="line"/>
      <point x="320" y="355" type="line"/>
      <point x="148" y="620" type="line"/>
      <point x="115" y="651" type="line"/>
      <point x="116" y="630" type="line"/>
    </contour>
    <contour>
      <point x="524" y="30" type="line"/>
      <point x="524" y="50" type="line"/>
      <point x="320" y="355" type="line"/>
      <point x="320" y="316" type="line"/>
      <point x="491" y="59" type="line"/>
    </contour>
    <contour>
      <point x="80" y="630" type="line"/>
      <point x="179" y="630" type="line"/>
      <point x="179" y="680" type="line"/>
      <point x="142" y="680"/>
      <point x="122" y="658"/>
      <point x="122" y="634" type="curve"/>
      <point x="137" y="634" type="line"/>
      <point x="137" y="658"/>
      <point x="117" y="680"/>
      <point x="80" y="680" type="curve"/>
    </contour>
    <contour>
      <point x="320" y="316" type="line"/>
      <point x="524" y="630" type="line"/>
      <point x="523" y="651" type="line"/>
      <point x="491" y="621" type="line"/>
      <point x="320" y="355" type="line"/>
    </contour>
  </outline>
</glyph>
<glyph name="Y" format="2">
  <advance width="681"/>
  <unicode hex="0059"/>
  <anchor x="356" y="0" name="bottom"/>
  <anchor x="344" y="629" name="top"/>
  <anchor x="76" y="680" name="topleft"/>
  <outline>
    <contour>
      <point x="347" y="218" type="line"/>
      <point x="604" y="633" type="line"/>
      <point x="594" y="643" type="line"/>
      <point x="570" y="620" type="line"/>
      <point x="332" y="238" type="line"/>
    </contour>
    <contour>
      <point x="331" y="63" type="line"/>
      <point x="346" y="63" type="line"/>
      <point x="347" y="238" type="line"/>
      <point x="332" y="238" type="line"/>
    </contour>
    <contour>
      <point x="332" y="218" type="line"/>
      <point x="347" y="238" type="line"/>
      <point x="109" y="620" type="line"/>
      <point x="85" y="643" type="line"/>
      <point x="75" y="633" type="line"/>
    </contour>
    <contour>
      <point x="38" y="630" type="line"/>
      <point x="137" y="630" type="line"/>
      <point x="137" y="680" type="line"/>
      <point x="114" y="680"/>
      <point x="80" y="669"/>
      <point x="80" y="634" type="curve"/>
      <point x="95" y="634" type="line"/>
      <point x="95" y="669"/>
      <point x="59" y="680"/>
      <point x="38" y="680" type="curve"/>
    </contour>
    <contour>
      <point x="542" y="630" type="line"/>
      <point x="641" y="630" type="line"/>
      <point x="641" y="680" type="line"/>
      <point x="620" y="680"/>
      <point x="584" y="669"/>
      <point x="584" y="634" type="curve"/>
      <point x="599" y="634" type="line"/>
      <point x="599" y="669"/>
      <point x="565" y="680"/>
      <point x="542" y="680" type="curve"/>
    </contour>
    <component base="serif_inf_der" xOffset="191"/>
    <component base="serif_inf_izq" xOffset="191"/>
  </outline>
</glyph>
<glyph name="Z" format="2">
  <advance width="560"/>
  <unicode hex="005A"/>
  <anchor x="327" y="0" name="bottom"/>
  <anchor x="297" y="650" name="top"/>
  <outline>
    <contour>
      <point x="80" y="40" type="line"/>
      <point x="96" y="40" type="line"/>
      <point x="111" y="58" type="line"/>
      <point x="480" y="639" type="line"/>
      <point x="465" y="639" type="line"/>
      <point x="449" y="622" type="line"/>
    </contour>
    <contour>
      <point x="80" y="0" type="line"/>
      <point x="373" y="0" type="line" smooth="yes"/>
      <point x="410" y="0"/>
      <point x="433" y="19"/>
      <point x="433" y="39" type="curve" smooth="yes"/>
      <point x="433" y="40" type="line"/>
      <point x="80" y="40" type="line"/>
    </contour>
    <contour>
      <point x="475" y="0" type="curve"/>
      <point x="475" y="40" type="line"/>
      <point x="418" y="40" type="line"/>
      <point x="418" y="39" type="line" smooth="yes"/>
      <point x="418" y="19"/>
      <point x="441" y="0"/>
    </contour>
    <contour>
      <point x="90" y="599" type="line"/>
      <point x="105" y="599" type="line"/>
      <point x="105" y="658" type="line"/>
      <point x="90" y="658" type="line"/>
    </contour>
    <contour>
      <point x="460" y="26" type="line"/>
      <point x="475" y="26" type="line"/>
      <point x="475" y="83" type="line"/>
      <point x="460" y="83" type="line"/>
    </contour>
    <contour>
      <point x="90" y="639" type="line"/>
      <point x="147" y="639" type="line"/>
      <point x="147" y="640" type="line" smooth="yes"/>
      <point x="147" y="660"/>
      <point x="124" y="679"/>
      <point x="90" y="679" type="curve"/>
    </contour>
    <contour>
      <point x="132" y="639" type="line"/>
      <point x="480" y="639" type="line"/>
      <point x="480" y="679" type="line"/>
      <point x="192" y="679" type="line" smooth="yes"/>
      <point x="155" y="679"/>
      <point x="132" y="660"/>
      <point x="132" y="640" type="curve" smooth="yes"/>
    </contour>
  </outline>
</glyph>
<glyph name="backslash" format="2">
  <advance width="296"/>
  <unicode hex="005C"/>
  <outline>
    <contour>
      <point x="245" y="-129" type="line"/>
      <point x="266" y="-129" type="line"/>
      <point x="51" y="680" type="line"/>
      <point x="30" y="680" type="line"/>
    </contour>
  </outline>
</glyph>
<glyph name="bracketright" format="2">
  <advance width="171"/>
  <unicode hex="005D"/>
  <outline>
    <contour>
      <point x="42" y="673" type="curve"/>
      <point x="141" y="673" type="line"/>
      <point x="141" y="723" type="line"/>
      <point x="42" y="723" type="line"/>
      <point x="42" y="701"/>
      <point x="52" y="692"/>
      <point x="62" y="692" type="curve"/>
      <point x="62" y="704" type="line"/>
      <point x="52" y="704"/>
      <point x="42" y="694"/>
    </contour>
    <contour>
      <point x="42" y="-191" type="curve"/>
      <point x="141" y="-191" type="line"/>
      <point x="141" y="-141" type="line"/>
      <point x="42" y="-141" type="line"/>
      <point x="42" y="-164"/>
      <point x="52" y="-172"/>
      <point x="62" y="-172" type="curve"/>
      <point x="62" y="-160" type="line"/>
      <point x="52" y="-160"/>
      <point x="42" y="-170"/>
    </contour>
    <contour>
      <point x="126" y="-148" type="line"/>
      <point x="141" y="-148" type="line"/>
      <point x="141" y="721" type="line"/>
      <point x="126" y="721" type="line"/>
    </contour>
  </outline>
</glyph>
<glyph name="asciicircum" format="2">
  <advance width="433"/>
  <unicode hex="005E"/>
  <outline>
    <contour>
      <point x="50" y="346" type="line"/>
      <point x="71" y="346" type="line"/>
      <point x="206" y="680" type="line"/>
      <point x="226" y="680" type="line"/>
      <point x="362" y="346" type="line"/>
      <point x="383" y="346" type="line"/>
      <point x="228" y="735" type="line"/>
      <point x="204" y="735" type="line"/>
    </contour>
  </outline>
</glyph>
<glyph name="underscore" format="2">
  <advance width="351"/>
  <unicode hex="005F"/>
  <outline>
    <contour>
      <point x="30" y="-55" type="curve"/>
      <point x="321" y="-55" type="line"/>
      <point x="321" y="-32"/>
      <point x="310" y="-21"/>
      <point x="299" y="-21" type="curve"/>
      <point x="299" y="-34" type="line"/>
      <point x="310" y="-34"/>
      <point x="321" y="-25"/>
      <point x="321" y="0" type="curve"/>
      <point x="30" y="0" type="line"/>
      <point x="30" y="-25"/>
      <point x="41" y="-34"/>
      <point x="52" y="-34" type="curve"/>
      <point x="52" y="-21" type="line"/>
      <point x="41" y="-21"/>
      <point x="30" y="-32"/>
    </contour>
  </outline>
</glyph>
<glyph name="a" format="2">
  <advance width="580"/>
  <unicode hex="0061"/>
  <guideline x="546" y="249" angle="0"/>
  <anchor x="254" y="-10" name="bottom"/>
  <anchor x="489" y="-1" name="ogonek"/>
  <anchor x="276" y="521" name="top"/>
  <outline>
    <contour>
      <point x="254" y="-10" type="curve" smooth="yes"/>
      <point x="383" y="-10"/>
      <point x="449" y="73"/>
      <point x="449" y="275" type="curve" smooth="yes"/>
      <point x="449" y="452"/>
      <point x="392" y="530"/>
      <point x="263" y="530" type="curve" smooth="yes"/>
      <point x="141" y="530"/>
      <point x="94" y="482"/>
      <point x="94" y="440" type="curve"/>
      <point x="109" y="440" type="line"/>
      <point x="109" y="463"/>
      <point x="148" y="480"/>
      <point x="262" y="480" type="curve" smooth="yes"/>
      <point x="383" y="480"/>
      <point x="434" y="433"/>
      <point x="434" y="288" type="curve" smooth="yes"/>
      <point x="434" y="103"/>
      <point x="402" y="40"/>
      <point x="256" y="40" type="curve" smooth="yes"/>
      <point x="146" y="40"/>
      <point x="105" y="62"/>
      <point x="105" y="140" type="curve" smooth="yes"/>
      <point x="105" y="191"/>
      <point x="128" y="230"/>
      <point x="242" y="230" type="curve" smooth="yes"/>
      <point x="439" y="230" type="line"/>
      <point x="439" y="250" type="line"/>
      <point x="256" y="250" type="line" smooth="yes"/>
      <point x="123" y="250"/>
      <point x="90" y="205"/>
      <point x="90" y="135" type="curve" smooth="yes"/>
      <point x="90" y="55"/>
      <point x="133" y="-10"/>
    </contour>
    <contour>
      <point x="490" y="0" type="curve"/>
      <point x="490" y="51" type="line"/>
      <point x="455" y="51"/>
      <point x="449" y="88"/>
      <point x="449" y="152" type="curve"/>
      <point x="449" y="259" type="line"/>
      <point x="434" y="155" type="line"/>
      <point x="434" y="46"/>
      <point x="436" y="0"/>
    </contour>
  </outline>
</glyph>
<glyph name="b" format="2">
  <advance width="613"/>
  <unicode hex="0062"/>
  <anchor x="280" y="0" name="bottom"/>
  <anchor x="280" y="520" name="top"/>
  <outline>
    <contour>
      <point x="100" y="0" type="line"/>
      <point x="154" y="0"/>
      <point x="157" y="42"/>
      <point x="157" y="105" type="curve"/>
      <point x="157" y="152" type="line"/>
      <point x="142" y="152" type="line"/>
      <point x="142" y="93"/>
      <point x="135" y="57"/>
      <point x="100" y="57" type="curve"/>
    </contour>
    <contour>
      <point x="142" y="123" type="line"/>
      <point x="157" y="123" type="line"/>
      <point x="157" y="695" type="line"/>
      <point x="142" y="695" type="line"/>
    </contour>
    <component base="serif_sup_der" xOffset="-25" yOffset="230"/>
    <component base="serif_sup_izq" xOffset="5" yOffset="230"/>
    <component base="aro_min" xOffset="126"/>
  </outline>
</glyph>
<glyph name="c" format="2">
  <advance width="532"/>
  <unicode hex="0063"/>
  <anchor x="282" y="-14" name="bottom"/>
  <anchor x="300" y="520" name="top"/>
  <outline>
    <contour>
      <point x="291" y="-10" type="curve"/>
      <point x="408" y="-10"/>
      <point x="496" y="150"/>
      <point x="496" y="219" type="curve"/>
      <point x="310" y="213" type="line"/>
      <point x="310" y="200"/>
      <point x="419" y="40"/>
      <point x="290" y="40" type="curve" smooth="yes"/>
      <point x="135" y="40"/>
      <point x="105" y="120"/>
      <point x="105" y="260" type="curve" smooth="yes"/>
      <point x="105" y="400"/>
      <point x="135" y="480"/>
      <point x="290" y="480" type="curve" smooth="yes"/>
      <point x="409" y="480"/>
      <point x="437" y="453"/>
      <point x="437" y="440" type="curve"/>
      <point x="452" y="440" type="line"/>
      <point x="452" y="485"/>
      <point x="389" y="530"/>
      <point x="291" y="530" type="curve" smooth="yes"/>
      <point x="288" y="530"/>
      <point x="285" y="530"/>
      <point x="283" y="530" type="curve" smooth="yes"/>
      <point x="149" y="526"/>
      <point x="90" y="421"/>
      <point x="90" y="260" type="curve" smooth="yes"/>
      <point x="90" y="96"/>
      <point x="151" y="-10"/>
    </contour>
  </outline>
</glyph>
<glyph name="d" format="2">
  <advance width="613"/>
  <unicode hex="0064"/>
  <anchor x="478" y="0" name="bottom"/>
  <anchor x="462" y="595" name="center"/>
  <anchor x="298" y="520" name="top"/>
  <anchor x="469" y="520" name="topright"/>
  <outline>
    <contour>
      <point x="513" y="0" type="line"/>
      <point x="459" y="0"/>
      <point x="456" y="53"/>
      <point x="456" y="105" type="curve" smooth="yes"/>
      <point x="456" y="152" type="line"/>
      <point x="471" y="152" type="line"/>
      <point x="471" y="93"/>
      <point x="478" y="57"/>
      <point x="513" y="57" type="curve"/>
    </contour>
    <contour>
      <point x="456" y="93" type="line"/>
      <point x="456" y="715" type="line"/>
      <point x="471" y="715" type="line"/>
      <point x="471" y="93" type="line"/>
    </contour>
    <component base="serif_sup_der" xOffset="289" yOffset="230"/>
    <component base="serif_sup_izq" xOffset="319" yOffset="230"/>
    <component base="aro_min" xScale="-1" xOffset="487"/>
  </outline>
</glyph>
<glyph name="e" format="2">
  <advance width="532"/>
  <unicode hex="0065"/>
  <anchor x="288" y="-10" name="bottom"/>
  <anchor x="318" y="0" name="ogonek"/>
  <anchor x="288" y="520" name="top"/>
  <outline>
    <contour>
      <point x="286" y="-10" type="curve" smooth="yes"/>
      <point x="405" y="-10"/>
      <point x="442" y="56"/>
      <point x="442" y="83" type="curve"/>
      <point x="427" y="83" type="line"/>
      <point x="427" y="71"/>
      <point x="400" y="40"/>
      <point x="291" y="40" type="curve" smooth="yes"/>
      <point x="145" y="40"/>
      <point x="105" y="91"/>
      <point x="105" y="260" type="curve" smooth="yes"/>
      <point x="105" y="411"/>
      <point x="145" y="480"/>
      <point x="277" y="480" type="curve" smooth="yes"/>
      <point x="405" y="480"/>
      <point x="437" y="427"/>
      <point x="437" y="290" type="curve"/>
      <point x="100" y="290" type="line"/>
      <point x="100" y="270" type="line"/>
      <point x="452" y="270" type="line"/>
      <point x="452" y="478"/>
      <point x="403" y="530"/>
      <point x="277" y="530" type="curve" smooth="yes"/>
      <point x="161" y="530"/>
      <point x="90" y="431"/>
      <point x="90" y="260" type="curve" smooth="yes"/>
      <point x="90" y="76"/>
      <point x="161" y="-10"/>
    </contour>
  </outline>
</glyph>
<glyph name="f" format="2">
  <advance width="324"/>
  <unicode hex="0066"/>
  <anchor x="134" y="0" name="bottom"/>
  <anchor x="134" y="520" name="top"/>
  <outline>
    <contour>
      <point x="92" y="510" type="line"/>
      <point x="107" y="510" type="line"/>
      <point x="107" y="555" type="line"/>
      <point x="107" y="678"/>
      <point x="132" y="701"/>
      <point x="324" y="701" type="curve"/>
      <point x="324" y="751" type="line"/>
      <point x="122" y="751"/>
      <point x="92" y="703"/>
      <point x="92" y="554" type="curve" smooth="yes"/>
    </contour>
    <contour>
      <point x="92" y="70" type="line"/>
      <point x="107" y="70" type="line"/>
      <point x="107" y="486" type="line"/>
      <point x="92" y="486" type="line"/>
    </contour>
    <contour>
      <point x="52" y="480" type="line"/>
      <point x="251" y="480" type="line"/>
      <point x="251" y="520" type="line"/>
      <point x="52" y="520" type="line"/>
    </contour>
    <component base="serif_inf_der" xOffset="-48"/>
    <component base="serif_inf_izq" xOffset="-48"/>
  </outline>
</glyph>
<glyph name="g" format="2">
  <advance width="583"/>
  <unicode hex="0067"/>
  <guideline x="140" y="234" angle="90"/>
  <anchor x="299" y="20" name="bottom"/>
  <anchor x="303" y="520" name="top"/>
  <outline>
    <contour>
      <point x="275" y="-10" type="curve" smooth="yes"/>
      <point x="404" y="-10"/>
      <point x="452" y="96"/>
      <point x="452" y="234" type="curve"/>
      <point x="452" y="268"/>
      <point x="452" y="288"/>
      <point x="452" y="286" type="curve"/>
      <point x="452" y="416"/>
      <point x="404" y="530"/>
      <point x="273" y="530" type="curve" smooth="yes"/>
      <point x="146" y="530"/>
      <point x="90" y="405"/>
      <point x="90" y="260" type="curve" smooth="yes"/>
      <point x="90" y="86"/>
      <point x="146" y="-10"/>
    </contour>
    <contour>
      <point x="283" y="-230" type="curve" smooth="yes"/>
      <point x="396" y="-230"/>
      <point x="461" y="-181"/>
      <point x="461" y="-17" type="curve" smooth="yes"/>
      <point x="461" y="99" type="line"/>
      <point x="446" y="99" type="line"/>
      <point x="446" y="-11" type="line" smooth="yes"/>
      <point x="446" y="-162"/>
      <point x="393" y="-180"/>
      <point x="285" y="-180" type="curve" smooth="yes"/>
      <point x="177" y="-180"/>
      <point x="125" y="-162"/>
      <point x="125" y="-126" type="curve"/>
      <point x="110" y="-126" type="line"/>
      <point x="110" y="-181"/>
      <point x="170" y="-230"/>
    </contour>
    <contour>
      <point x="275" y="40" type="curve" smooth="yes"/>
      <point x="138" y="40"/>
      <point x="105" y="125"/>
      <point x="105" y="260" type="curve" smooth="yes"/>
      <point x="105" y="395"/>
      <point x="138" y="480"/>
      <point x="273" y="480" type="curve" smooth="yes"/>
      <point x="425" y="480"/>
      <point x="446" y="378"/>
      <point x="446" y="260" type="curve" smooth="yes"/>
      <point x="446" y="142"/>
      <point x="425" y="40"/>
    </contour>
    <contour>
      <point x="446" y="84" type="line"/>
      <point x="461" y="84" type="line"/>
      <point x="461" y="381" type="line"/>
      <point x="446" y="381" type="line"/>
    </contour>
    <contour>
      <point x="446" y="368" type="line"/>
      <point x="461" y="368" type="line"/>
      <point x="461" y="427"/>
      <point x="468" y="463"/>
      <point x="503" y="463" type="curve"/>
      <point x="503" y="520" type="line"/>
      <point x="449" y="520"/>
      <point x="446" y="467"/>
      <point x="446" y="415" type="curve" smooth="yes"/>
    </contour>
  </outline>
</glyph>
<glyph name="h" format="2">
  <advance width="623"/>
  <unicode hex="0068"/>
  <anchor x="316" y="0" name="bottom"/>
  <anchor x="148" y="260" name="center"/>
  <anchor x="148" y="691" name="top"/>
  <outline>
    <contour>
      <point x="142" y="83" type="line"/>
      <point x="157" y="83" type="line"/>
      <point x="157" y="665" type="line"/>
      <point x="142" y="665" type="line"/>
    </contour>
    <contour>
      <point x="476" y="83" type="line"/>
      <point x="491" y="83" type="line"/>
      <point x="491" y="332" type="line"/>
      <point x="476" y="332" type="line"/>
    </contour>
    <component base="serif_inf_der" xOffset="336"/>
    <component base="serif_inf_izq" xOffset="336"/>
    <component base="serif_inf_der" xOffset="2"/>
    <component base="serif_inf_izq" xOffset="2"/>
    <component base="serif_sup_der" xOffset="-25" yOffset="230"/>
    <component base="ataque_n" xOffset="-25"/>
    <component base="serif_sup_izq" xOffset="5" yOffset="230"/>
  </outline>
</glyph>
<glyph name="i" format="2">
  <advance width="269"/>
  <unicode hex="0069"/>
  <anchor x="135" y="0" name="bottom"/>
  <anchor x="135" y="520" name="top"/>
  <outline>
    <contour>
      <point x="127" y="83" type="line"/>
      <point x="142" y="83" type="line"/>
      <point x="142" y="435" type="line"/>
      <point x="127" y="435" type="line"/>
    </contour>
    <component base="serif_sup_izq" xOffset="-10"/>
    <component base="serif_sup_der" xOffset="-40"/>
    <component base="serif_inf_der" xOffset="-13"/>
    <component base="serif_inf_izq" xOffset="-13"/>
    <component base="dotaccent" xOffset="72"/>
  </outline>
</glyph>
<glyph name="j" format="2">
  <advance width="264"/>
  <unicode hex="006A"/>
  <outline>
    <contour>
      <point x="85" y="-230" type="curve"/>
      <point x="139" y="-230"/>
      <point x="142" y="-177"/>
      <point x="142" y="-125" type="curve"/>
      <point x="142" y="-78" type="line"/>
      <point x="127" y="-78" type="line"/>
      <point x="127" y="-137"/>
      <point x="120" y="-173"/>
      <point x="85" y="-173" type="curve"/>
      <point x="85" y="-192"/>
      <point x="85" y="-211"/>
    </contour>
    <contour>
      <point x="127" y="-96" type="line"/>
      <point x="142" y="-96" type="line"/>
      <point x="142" y="435" type="line"/>
      <point x="127" y="435" type="line"/>
    </contour>
    <component base="serif_sup_izq" xOffset="-10"/>
    <component base="serif_sup_der" xOffset="-40"/>
    <component base="dotaccent" xOffset="74"/>
  </outline>
</glyph>
<glyph name="k" format="2">
  <advance width="617"/>
  <unicode hex="006B"/>
  <anchor x="291" y="0" name="bottom"/>
  <anchor x="291" y="520" name="top"/>
  <outline>
    <contour>
      <point x="490" y="16" type="line"/>
      <point x="490" y="50" type="line"/>
      <point x="151" y="328" type="line"/>
      <point x="151" y="295" type="line"/>
      <point x="451" y="60" type="line"/>
      <point x="467" y="50" type="line"/>
    </contour>
    <contour>
      <point x="433" y="0" type="line"/>
      <point x="470" y="0"/>
      <point x="490" y="20"/>
      <point x="490" y="46" type="curve"/>
      <point x="475" y="46" type="line"/>
      <point x="475" y="22"/>
      <point x="495" y="0"/>
      <point x="532" y="0" type="curve"/>
      <point x="532" y="50" type="line"/>
      <point x="433" y="50" type="line"/>
    </contour>
    <contour>
      <point x="142" y="83" type="line"/>
      <point x="157" y="83" type="line"/>
      <point x="157" y="695" type="line"/>
      <point x="142" y="695" type="line"/>
    </contour>
    <contour>
      <point x="298" y="183" type="line"/>
      <point x="320" y="183" type="line"/>
      <point x="500" y="470" type="line"/>
      <point x="483" y="470" type="line"/>
      <point x="473" y="459" type="line"/>
    </contour>
    <contour>
      <point x="443" y="470" type="line"/>
      <point x="542" y="470" type="line"/>
      <point x="542" y="520" type="line"/>
      <point x="505" y="520"/>
      <point x="485" y="498"/>
      <point x="485" y="474" type="curve"/>
      <point x="500" y="474" type="line"/>
      <point x="500" y="498"/>
      <point x="480" y="520"/>
      <point x="443" y="520" type="curve"/>
    </contour>
    <component base="serif_sup_der" xOffset="-25" yOffset="230"/>
    <component base="serif_sup_izq" xOffset="5" yOffset="230"/>
    <component base="serif_inf_der" xOffset="2"/>
    <component base="serif_inf_izq" xOffset="2"/>
  </outline>
</glyph>
<glyph name="l" format="2">
  <advance width="299"/>
  <unicode hex="006C"/>
  <anchor x="150" y="0" name="bottom"/>
  <anchor x="150" y="376" name="center"/>
  <anchor x="149" y="690" name="top"/>
  <anchor x="199" y="750" name="topright"/>
  <outline>
    <contour>
      <point x="142" y="63" type="line"/>
      <point x="157" y="63" type="line"/>
      <point x="157" y="675" type="line"/>
      <point x="142" y="675" type="line"/>
    </contour>
    <component base="serif_inf_der" xOffset="2"/>
    <component base="serif_inf_izq" xOffset="2"/>
    <component base="serif_sup_der" xOffset="-25" yOffset="230"/>
    <component base="serif_sup_izq" xOffset="5" yOffset="230"/>
  </outline>
</glyph>
<glyph name="m" format="2">
  <advance width="942"/>
  <unicode hex="006D"/>
  <anchor x="463" y="0" name="bottom"/>
  <anchor x="461" y="520" name="top"/>
  <outline>
    <contour>
      <point x="127" y="368" type="curve"/>
      <point x="142" y="368" type="line"/>
      <point x="142" y="368"/>
      <point x="142" y="401"/>
      <point x="142" y="415" type="curve" smooth="yes"/>
      <point x="142" y="467"/>
      <point x="139" y="520"/>
      <point x="85" y="520" type="curve"/>
      <point x="85" y="463" type="line"/>
      <point x="120" y="463"/>
      <point x="127" y="427"/>
    </contour>
    <contour>
      <point x="127" y="83" type="line"/>
      <point x="142" y="83" type="line"/>
      <point x="142" y="405" type="line"/>
      <point x="127" y="405" type="line"/>
    </contour>
    <contour>
      <point x="461" y="83" type="line"/>
      <point x="476" y="83" type="line"/>
      <point x="476" y="355" type="line"/>
      <point x="461" y="355" type="line"/>
    </contour>
    <contour>
      <point x="795" y="83" type="line"/>
      <point x="810" y="83" type="line"/>
      <point x="810" y="355" type="line"/>
      <point x="795" y="355" type="line"/>
    </contour>
    <component base="serif_inf_der" xOffset="-13"/>
    <component base="serif_inf_izq" xOffset="-13"/>
    <component base="serif_inf_der" xOffset="321"/>
    <component base="serif_inf_izq" xOffset="321"/>
    <component base="serif_inf_der" xOffset="655"/>
    <component base="ataque_n" xOffset="-40" yOffset="10"/>
    <component base="ataque_n" xOffset="294" yOffset="10"/>
    <component base="serif_inf_izq" xOffset="655"/>
  </outline>
</glyph>
<glyph name="n" format="2">
  <advance width="608"/>
  <unicode hex="006E"/>
  <guideline x="84" y="50" angle="90"/>
  <anchor x="293" y="0" name="bottom"/>
  <anchor x="304" y="520" name="top"/>
  <outline>
    <contour>
      <point x="127" y="368" type="curve"/>
      <point x="142" y="368" type="line"/>
      <point x="142" y="368"/>
      <point x="142" y="401"/>
      <point x="142" y="415" type="curve" smooth="yes"/>
      <point x="142" y="467"/>
      <point x="139" y="520"/>
      <point x="85" y="520" type="curve"/>
      <point x="85" y="463" type="line"/>
      <point x="120" y="463"/>
      <point x="127" y="427"/>
    </contour>
    <contour>
      <point x="127" y="83" type="line"/>
      <point x="142" y="83" type="line"/>
      <point x="142" y="415" type="line"/>
      <point x="127" y="415" type="line"/>
    </contour>
    <contour>
      <point x="461" y="83" type="line"/>
      <point x="476" y="83" type="line"/>
      <point x="476" y="342" type="line"/>
      <point x="461" y="342" type="line"/>
    </contour>
    <component base="serif_inf_der" xOffset="-13"/>
    <component base="serif_inf_izq" xOffset="-13"/>
    <component base="serif_inf_izq" xOffset="321"/>
    <component base="serif_inf_der" xOffset="321"/>
    <component base="ataque_n" xOffset="-40" yOffset="10"/>
  </outline>
</glyph>
<glyph name="o" format="2">
  <advance width="562"/>
  <unicode hex="006F"/>
  <anchor x="281" y="0" name="bottom"/>
  <anchor x="281" y="260" name="center"/>
  <anchor x="284" y="8" name="ogonek"/>
  <anchor x="283" y="583" name="top"/>
  <anchor x="482" y="520" name="topright"/>
  <outline>
    <contour>
      <point x="281" y="-12" type="curve" smooth="yes"/>
      <point x="422" y="-13"/>
      <point x="472" y="125"/>
      <point x="472" y="260" type="curve" smooth="yes"/>
      <point x="472" y="393"/>
      <point x="422" y="531"/>
      <point x="281" y="531" type="curve" smooth="yes"/>
      <point x="135" y="531"/>
      <point x="90" y="393"/>
      <point x="90" y="260" type="curve" smooth="yes"/>
      <point x="90" y="125"/>
      <point x="135" y="-11"/>
    </contour>
    <contour>
      <point x="281" y="38" type="curve" smooth="yes"/>
      <point x="155" y="38"/>
      <point x="105" y="103"/>
      <point x="105" y="260" type="curve" smooth="yes"/>
      <point x="105" y="415"/>
      <point x="155" y="480"/>
      <point x="281" y="480" type="curve" smooth="yes"/>
      <point x="402" y="480"/>
      <point x="457" y="415"/>
      <point x="457" y="260" type="curve" smooth="yes"/>
      <point x="457" y="103"/>
      <point x="402" y="38"/>
    </contour>
  </outline>
</glyph>
<glyph name="p" format="2">
  <advance width="600"/>
  <unicode hex="0070"/>
  <anchor x="265" y="0" name="bottom"/>
  <anchor x="265" y="520" name="top"/>
  <outline>
    <contour>
      <point x="127" y="368" type="curve"/>
      <point x="142" y="368" type="line"/>
      <point x="142" y="368"/>
      <point x="142" y="401"/>
      <point x="142" y="415" type="curve" smooth="yes"/>
      <point x="142" y="467"/>
      <point x="139" y="520"/>
      <point x="85" y="520" type="curve"/>
      <point x="85" y="463" type="line"/>
      <point x="120" y="463"/>
      <point x="127" y="427"/>
    </contour>
    <contour>
      <point x="127" y="-175" type="line"/>
      <point x="142" y="-175" type="line"/>
      <point x="142" y="385" type="line"/>
      <point x="127" y="385" type="line"/>
    </contour>
    <component base="serif_inf_izq" xOffset="-13" yOffset="-230"/>
    <component base="serif_inf_der" xOffset="-13" yOffset="-230"/>
    <component base="aro_min" xOffset="113"/>
  </outline>
</glyph>
<glyph name="q" format="2">
  <advance width="593"/>
  <unicode hex="0071"/>
  <anchor x="359" y="0" name="bottom"/>
  <anchor x="359" y="520" name="top"/>
  <outline>
    <contour>
      <point x="456" y="368" type="curve"/>
      <point x="456" y="368"/>
      <point x="471" y="368"/>
      <point x="471" y="368" type="curve" smooth="yes"/>
      <point x="471" y="427"/>
      <point x="478" y="463"/>
      <point x="513" y="463" type="curve"/>
      <point x="513" y="520" type="line"/>
      <point x="459" y="520"/>
      <point x="456" y="467"/>
      <point x="456" y="415" type="curve" smooth="yes"/>
      <point x="456" y="401"/>
      <point x="456" y="368"/>
    </contour>
    <contour>
      <point x="456" y="-175" type="line"/>
      <point x="471" y="-175" type="line"/>
      <point x="471" y="385" type="line"/>
      <point x="456" y="385" type="line"/>
    </contour>
    <component base="serif_inf_der" xOffset="316" yOffset="-230"/>
    <component base="serif_inf_izq" xOffset="316" yOffset="-230"/>
    <component base="aro_min" xScale="-1" xOffset="487"/>
  </outline>
</glyph>
<glyph name="r" format="2">
  <advance width="401"/>
  <unicode hex="0072"/>
  <anchor x="134" y="0" name="bottom"/>
  <anchor x="182" y="517" name="top"/>
  <outline>
    <contour>
      <point x="135" y="334" type="curve"/>
      <point x="142" y="334" type="line"/>
      <point x="142" y="457"/>
      <point x="171" y="480"/>
      <point x="361" y="480" type="curve"/>
      <point x="361" y="530" type="line"/>
      <point x="161" y="530"/>
      <point x="135" y="482"/>
    </contour>
    <contour>
      <point x="127" y="83" type="line"/>
      <point x="142" y="83" type="line"/>
      <point x="142" y="415" type="line"/>
      <point x="127" y="415" type="line"/>
    </contour>
    <contour>
      <point x="127" y="368" type="curve"/>
      <point x="142" y="368" type="line"/>
      <point x="142" y="368"/>
      <point x="142" y="411"/>
      <point x="142" y="415" type="curve" smooth="yes"/>
      <point x="142" y="467"/>
      <point x="139" y="520"/>
      <point x="85" y="520" type="curve"/>
      <point x="85" y="463" type="line"/>
      <point x="120" y="463"/>
      <point x="127" y="427"/>
    </contour>
    <component base="serif_inf_der" xOffset="-13"/>
    <component base="serif_inf_izq" xOffset="-13"/>
  </outline>
</glyph>
<glyph name="s" format="2">
  <advance width="500"/>
  <unicode hex="0073"/>
  <anchor x="254" y="-10" name="bottom"/>
  <anchor x="250" y="520" name="top"/>
  <outline>
    <contour>
      <point x="250" y="-10" type="curve" smooth="yes"/>
      <point x="380" y="-10"/>
      <point x="429" y="45"/>
      <point x="430" y="141" type="curve" smooth="yes"/>
      <point x="431" y="250"/>
      <point x="342" y="271"/>
      <point x="250" y="271" type="curve"/>
      <point x="250" y="251" type="line"/>
      <point x="350" y="252"/>
      <point x="415" y="216"/>
      <point x="415" y="141" type="curve" smooth="yes"/>
      <point x="415" y="64"/>
      <point x="360" y="40"/>
      <point x="250" y="40" type="curve" smooth="yes"/>
      <point x="140" y="40"/>
      <point x="85" y="60"/>
      <point x="85" y="85" type="curve"/>
      <point x="70" y="85" type="line"/>
      <point x="69" y="45"/>
      <point x="120" y="-10"/>
    </contour>
    <contour>
      <point x="250" y="251" type="curve"/>
      <point x="250" y="271" type="line"/>
      <point x="150" y="270"/>
      <point x="85" y="304"/>
      <point x="85" y="379" type="curve" smooth="yes"/>
      <point x="85" y="456"/>
      <point x="150" y="480"/>
      <point x="260" y="480" type="curve" smooth="yes"/>
      <point x="370" y="480"/>
      <point x="415" y="466"/>
      <point x="415" y="440" type="curve"/>
      <point x="430" y="440" type="line"/>
      <point x="430" y="476"/>
      <point x="389" y="530"/>
      <point x="259" y="530" type="curve" smooth="yes"/>
      <point x="129" y="530"/>
      <point x="69" y="476"/>
      <point x="70" y="379" type="curve" smooth="yes"/>
      <point x="71" y="270"/>
      <point x="158" y="251"/>
    </contour>
  </outline>
</glyph>
<glyph name="t" format="2">
  <advance width="510"/>
  <unicode hex="0074"/>
  <anchor x="286" y="-10" name="bottom"/>
  <anchor x="138" y="296" name="center"/>
  <anchor x="281" y="520" name="top"/>
  <anchor x="431" y="520" name="topright"/>
  <outline>
    <contour>
      <point x="291" y="-10" type="curve" smooth="yes"/>
      <point x="397" y="-10"/>
      <point x="435" y="50"/>
      <point x="435" y="83" type="curve"/>
      <point x="420" y="83" type="line"/>
      <point x="420" y="69"/>
      <point x="402" y="40"/>
      <point x="291" y="40" type="curve" smooth="yes"/>
      <point x="165" y="40"/>
      <point x="148" y="87"/>
      <point x="148" y="150" type="curve"/>
      <point x="133" y="150" type="line"/>
      <point x="133" y="62"/>
      <point x="175" y="-10"/>
    </contour>
    <contour>
      <point x="133" y="426" type="curve"/>
      <point x="148" y="426" type="line"/>
      <point x="148" y="471"/>
      <point x="159" y="480"/>
      <point x="189" y="480" type="curve"/>
      <point x="148" y="498" type="line"/>
      <point x="133" y="498" type="line"/>
      <point x="91" y="480" type="line"/>
      <point x="121" y="480"/>
      <point x="133" y="471"/>
    </contour>
    <contour>
      <point x="133" y="149" type="line"/>
      <point x="148" y="149" type="line"/>
      <point x="148" y="594" type="line"/>
      <point x="133" y="594" type="line"/>
    </contour>
    <contour>
      <point x="133" y="502" type="line"/>
      <point x="148" y="502" type="line"/>
      <point x="189" y="520" type="line"/>
      <point x="159" y="520"/>
      <point x="148" y="529"/>
      <point x="148" y="574" type="curve"/>
      <point x="133" y="574" type="line"/>
      <point x="133" y="529"/>
      <point x="121" y="520"/>
      <point x="91" y="520" type="curve"/>
    </contour>
    <contour>
      <point x="80" y="480" type="line"/>
      <point x="434" y="480" type="line"/>
      <point x="434" y="520" type="line"/>
      <point x="80" y="520" type="line"/>
    </contour>
  </outline>
</glyph>
<glyph name="u" format="2">
  <advance width="598"/>
  <unicode hex="0075"/>
  <anchor x="323" y="0" name="bottom"/>
  <anchor x="512" y="-1" name="ogonek"/>
  <anchor x="305" y="520" name="top"/>
  <anchor x="615" y="520" name="topright"/>
  <outline>
    <contour>
      <point x="513" y="0" type="curve"/>
      <point x="513" y="57" type="line"/>
      <point x="478" y="57"/>
      <point x="471" y="93"/>
      <point x="471" y="152" type="curve"/>
      <point x="456" y="152" type="line"/>
      <point x="456" y="105" type="line"/>
      <point x="456" y="53"/>
      <point x="459" y="0"/>
    </contour>
    <contour>
      <point x="122" y="158" type="line"/>
      <point x="137" y="158" type="line"/>
      <point x="137" y="435" type="line"/>
      <point x="122" y="435" type="line"/>
    </contour>
    <contour>
      <point x="456" y="138" type="line"/>
      <point x="471" y="138" type="line"/>
      <point x="471" y="435" type="line"/>
      <point x="456" y="435" type="line"/>
    </contour>
    <component base="serif_sup_izq" xOffset="-15"/>
    <component base="serif_sup_der" xOffset="-45"/>
    <component base="serif_sup_izq" xOffset="319"/>
    <component base="serif_sup_der" xOffset="289"/>
    <component base="ataque_n" xScale="-1" yScale="-1" xOffset="638" yOffset="510"/>
  </outline>
</glyph>
<glyph name="v" format="2">
  <advance width="540"/>
  <unicode hex="0076"/>
  <guideline x="119" y="470" angle="0"/>
  <anchor x="278" y="0" name="bottom"/>
  <anchor x="268" y="520" name="top"/>
  <outline>
    <contour>
      <point x="391" y="480" type="line"/>
      <point x="490" y="480" type="line"/>
      <point x="490" y="530" type="line"/>
      <point x="469" y="530"/>
      <point x="433" y="519"/>
      <point x="433" y="484" type="curve"/>
      <point x="448" y="484" type="line"/>
      <point x="448" y="519"/>
      <point x="414" y="530"/>
      <point x="391" y="530" type="curve"/>
    </contour>
    <contour>
      <point x="220" y="0" type="line"/>
      <point x="241" y="0"/>
      <point x="285" y="15"/>
      <point x="285" y="50" type="curve"/>
      <point x="254" y="50" type="line"/>
      <point x="254" y="15"/>
      <point x="296" y="0"/>
      <point x="319" y="0" type="curve"/>
      <point x="319" y="50" type="line"/>
      <point x="220" y="50" type="line"/>
    </contour>
    <contour>
      <point x="249" y="46" type="line"/>
      <point x="270" y="46" type="line"/>
      <point x="114" y="470" type="line"/>
      <point x="103" y="485" type="line"/>
      <point x="87" y="485" type="line"/>
    </contour>
    <contour>
      <point x="50" y="480" type="line"/>
      <point x="149" y="480" type="line"/>
      <point x="149" y="530" type="line"/>
      <point x="126" y="530"/>
      <point x="92" y="519"/>
      <point x="92" y="484" type="curve"/>
      <point x="107" y="484" type="line"/>
      <point x="107" y="519"/>
      <point x="71" y="530"/>
      <point x="50" y="530" type="curve"/>
    </contour>
    <contour>
      <point x="270" y="46" type="line"/>
      <point x="291" y="46" type="line"/>
      <point x="453" y="485" type="line"/>
      <point x="437" y="485" type="line"/>
      <point x="426" y="470" type="line"/>
    </contour>
  </outline>
</glyph>
<glyph name="w" format="2">
  <advance width="755"/>
  <unicode hex="0077"/>
  <anchor x="377" y="0" name="bottom"/>
  <anchor x="377" y="520" name="top"/>
  <outline>
    <contour>
      <point x="606" y="470" type="line"/>
      <point x="705" y="470" type="line"/>
      <point x="705" y="520" type="line"/>
      <point x="684" y="520"/>
      <point x="648" y="509"/>
      <point x="648" y="474" type="curve"/>
      <point x="663" y="474" type="line"/>
      <point x="663" y="509"/>
      <point x="629" y="520"/>
      <point x="606" y="520" type="curve"/>
    </contour>
    <contour>
      <point x="190" y="0" type="line"/>
      <point x="211" y="0"/>
      <point x="256" y="15"/>
      <point x="256" y="50" type="curve"/>
      <point x="224" y="50" type="line"/>
      <point x="224" y="15"/>
      <point x="266" y="0"/>
      <point x="289" y="0" type="curve"/>
      <point x="289" y="50" type="line"/>
      <point x="190" y="50" type="line"/>
    </contour>
    <contour>
      <point x="225" y="48" type="line"/>
      <point x="239" y="48" type="line"/>
      <point x="111" y="470" type="line"/>
      <point x="100" y="485" type="line"/>
      <point x="86" y="485" type="line"/>
      <point x="216" y="60" type="line"/>
    </contour>
    <contour>
      <point x="50" y="470" type="line"/>
      <point x="149" y="470" type="line"/>
      <point x="149" y="520" type="line"/>
      <point x="126" y="520"/>
      <point x="92" y="509"/>
      <point x="92" y="474" type="curve"/>
      <point x="107" y="474" type="line"/>
      <point x="107" y="509"/>
      <point x="71" y="520"/>
      <point x="50" y="520" type="curve"/>
    </contour>
    <contour>
      <point x="239" y="48" type="line"/>
      <point x="259" y="48" type="line"/>
      <point x="386" y="485" type="line"/>
      <point x="374" y="475" type="line"/>
      <point x="360" y="460" type="line"/>
    </contour>
    <contour>
      <point x="466" y="0" type="line"/>
      <point x="489" y="0"/>
      <point x="531" y="15"/>
      <point x="531" y="50" type="curve"/>
      <point x="499" y="50" type="line"/>
      <point x="499" y="15"/>
      <point x="544" y="0"/>
      <point x="565" y="0" type="curve"/>
      <point x="565" y="50" type="line"/>
      <point x="466" y="50" type="line"/>
    </contour>
    <contour>
      <point x="496" y="48" type="line"/>
      <point x="516" y="48" type="line"/>
      <point x="395" y="460" type="line"/>
      <point x="381" y="475" type="line"/>
      <point x="369" y="485" type="line"/>
    </contour>
    <contour>
      <point x="328" y="470" type="line"/>
      <point x="427" y="470" type="line"/>
      <point x="427" y="520" type="line"/>
      <point x="406" y="520"/>
      <point x="370" y="509"/>
      <point x="370" y="474" type="curve"/>
      <point x="385" y="474" type="line"/>
      <point x="385" y="509"/>
      <point x="351" y="520"/>
      <point x="328" y="520" type="curve"/>
    </contour>
    <contour>
      <point x="516" y="48" type="line"/>
      <point x="530" y="48" type="line"/>
      <point x="539" y="60" type="line"/>
      <point x="669" y="485" type="line"/>
      <point x="655" y="485" type="line"/>
      <point x="644" y="470" type="line"/>
    </contour>
  </outline>
</glyph>
<glyph name="x" format="2">
  <advance width="530"/>
  <unicode hex="0078"/>
  <guideline x="75" y="65" angle="0"/>
  <guideline x="75" y="455" angle="0"/>
  <anchor x="240" y="0" name="bottom"/>
  <anchor x="240" y="520" name="top"/>
  <outline>
    <contour>
      <point x="265" y="236" type="line"/>
      <point x="265" y="275" type="line"/>
      <point x="147" y="454" type="line"/>
      <point x="110" y="494" type="line"/>
      <point x="111" y="470" type="line"/>
    </contour>
    <contour>
      <point x="75" y="470" type="line"/>
      <point x="174" y="470" type="line"/>
      <point x="174" y="520" type="line"/>
      <point x="137" y="520"/>
      <point x="117" y="498"/>
      <point x="117" y="474" type="curve"/>
      <point x="132" y="474" type="line"/>
      <point x="132" y="498"/>
      <point x="112" y="520"/>
      <point x="75" y="520" type="curve"/>
    </contour>
    <contour>
      <point x="111" y="26" type="line"/>
      <point x="146" y="65" type="line"/>
      <point x="265" y="236" type="line"/>
      <point x="265" y="275" type="line"/>
      <point x="111" y="50" type="line"/>
    </contour>
    <contour>
      <point x="356" y="470" type="line"/>
      <point x="455" y="470" type="line"/>
      <point x="455" y="520" type="line"/>
      <point x="418" y="520"/>
      <point x="398" y="498"/>
      <point x="398" y="474" type="curve"/>
      <point x="413" y="474" type="line"/>
      <point x="413" y="498"/>
      <point x="393" y="520"/>
      <point x="356" y="520" type="curve"/>
    </contour>
    <contour>
      <point x="75" y="0" type="line"/>
      <point x="112" y="0"/>
      <point x="132" y="22"/>
      <point x="132" y="46" type="curve"/>
      <point x="117" y="46" type="line"/>
      <point x="117" y="22"/>
      <point x="137" y="0"/>
      <point x="174" y="0" type="curve"/>
      <point x="174" y="50" type="line"/>
      <point x="75" y="50" type="line"/>
    </contour>
    <contour>
      <point x="356" y="0" type="line"/>
      <point x="393" y="0"/>
      <point x="413" y="22"/>
      <point x="413" y="46" type="curve"/>
      <point x="398" y="46" type="line"/>
      <point x="398" y="22"/>
      <point x="418" y="0"/>
      <point x="455" y="0" type="curve"/>
      <point x="455" y="50" type="line"/>
      <point x="356" y="50" type="line"/>
    </contour>
    <contour>
      <point x="419" y="26" type="line"/>
      <point x="419" y="50" type="line"/>
      <point x="265" y="275" type="line"/>
      <point x="265" y="236" type="line"/>
      <point x="384" y="65" type="line"/>
    </contour>
    <contour>
      <point x="265" y="236" type="line"/>
      <point x="419" y="470" type="line"/>
      <point x="418" y="494" type="line"/>
      <point x="384" y="455" type="line"/>
      <point x="265" y="275" type="line"/>
    </contour>
  </outline>
</glyph>
<glyph name="y" format="2">
  <advance width="563"/>
  <unicode hex="0079"/>
  <anchor x="371" y="0" name="bottom"/>
  <anchor x="291" y="520" name="top"/>
  <outline>
    <contour>
      <point x="293" y="-230" type="curve" smooth="yes"/>
      <point x="406" y="-230"/>
      <point x="471" y="-181"/>
      <point x="471" y="-17" type="curve" smooth="yes"/>
      <point x="471" y="99" type="line"/>
      <point x="456" y="99" type="line"/>
      <point x="456" y="-11" type="line" smooth="yes"/>
      <point x="456" y="-162"/>
      <point x="403" y="-180"/>
      <point x="295" y="-180" type="curve" smooth="yes"/>
      <point x="187" y="-180"/>
      <point x="135" y="-162"/>
      <point x="135" y="-126" type="curve"/>
      <point x="120" y="-126" type="line"/>
      <point x="120" y="-181"/>
      <point x="180" y="-230"/>
    </contour>
    <contour>
      <point x="122" y="158" type="line"/>
      <point x="137" y="158" type="line"/>
      <point x="137" y="435" type="line"/>
      <point x="122" y="435" type="line"/>
    </contour>
    <contour>
      <point x="471" y="78" type="line"/>
      <point x="471" y="435" type="line"/>
      <point x="456" y="435" type="line"/>
      <point x="456" y="78" type="line"/>
    </contour>
    <component base="serif_sup_izq" xOffset="-15"/>
    <component base="serif_sup_der" xOffset="-45"/>
    <component base="serif_sup_izq" xOffset="319"/>
    <component base="serif_sup_der" xOffset="289"/>
    <component base="ataque_n" xScale="-1" yScale="-1" xOffset="638" yOffset="510"/>
  </outline>
</glyph>
<glyph name="z" format="2">
  <advance width="509"/>
  <unicode hex="007A"/>
  <guideline x="429" y="49" angle="90"/>
  <anchor x="213" y="0" name="bottom"/>
  <anchor x="261" y="520" name="top"/>
  <outline>
    <contour>
      <point x="80" y="-1" type="line"/>
      <point x="328" y="-1" type="line" smooth="yes"/>
      <point x="365" y="-1"/>
      <point x="388" y="18"/>
      <point x="388" y="43" type="curve" smooth="yes"/>
      <point x="388" y="44" type="line"/>
      <point x="90" y="44" type="line"/>
      <point x="90" y="39" type="line"/>
      <point x="115" y="59" type="line"/>
      <point x="430" y="475" type="line"/>
      <point x="430" y="520" type="line"/>
      <point x="182" y="520" type="line" smooth="yes"/>
      <point x="145" y="520"/>
      <point x="122" y="501"/>
      <point x="122" y="476" type="curve" smooth="yes"/>
      <point x="122" y="475" type="line"/>
      <point x="420" y="475" type="line"/>
      <point x="420" y="480" type="line"/>
      <point x="395" y="460" type="line"/>
      <point x="80" y="44" type="line"/>
    </contour>
    <contour>
      <point x="80" y="440" type="line"/>
      <point x="95" y="440" type="line"/>
      <point x="95" y="499" type="line"/>
      <point x="80" y="499" type="line"/>
    </contour>
    <contour>
      <point x="430" y="-1" type="curve"/>
      <point x="430" y="44" type="line"/>
      <point x="373" y="44" type="line"/>
      <point x="373" y="43" type="line"/>
      <point x="373" y="18"/>
      <point x="396" y="-1"/>
    </contour>
    <contour>
      <point x="80" y="475" type="line"/>
      <point x="137" y="475" type="line"/>
      <point x="137" y="476" type="line"/>
      <point x="137" y="501"/>
      <point x="114" y="520"/>
      <point x="80" y="520" type="curve"/>
    </contour>
    <contour>
      <point x="415" y="24" type="line"/>
      <point x="430" y="24" type="line"/>
      <point x="430" y="83" type="line"/>
      <point x="415" y="83" type="line"/>
    </contour>
  </outline>
</glyph>
<glyph name="bar" format="2">
  <advance width="120"/>
  <unicode hex="007C"/>
  <outline>
    <contour>
      <point x="50" y="-188" type="line"/>
      <point x="70" y="-188" type="line"/>
      <point x="70" y="710" type="line"/>
      <point x="50" y="710" type="line"/>
    </contour>
  </outline>
</glyph>
<glyph name="braceright" format="2">
  <advance width="221"/>
  <unicode hex="007D"/>
  <outline>
    <contour>
      <point x="191" y="256" type="curve"/>
      <point x="191" y="273" type="line"/>
      <point x="166" y="273"/>
      <point x="145" y="299"/>
      <point x="145" y="398" type="curve" smooth="yes"/>
      <point x="145" y="705"/>
      <point x="118" y="740"/>
      <point x="30" y="740" type="curve"/>
      <point x="30" y="690" type="line"/>
      <point x="76" y="690"/>
      <point x="130" y="680"/>
      <point x="130" y="399" type="curve" smooth="yes"/>
      <point x="130" y="287"/>
      <point x="147" y="256"/>
    </contour>
    <contour>
      <point x="30" y="-210" type="line"/>
      <point x="118" y="-210"/>
      <point x="145" y="-175"/>
      <point x="145" y="132" type="curve" smooth="yes"/>
      <point x="145" y="231"/>
      <point x="166" y="253"/>
      <point x="191" y="253" type="curve"/>
      <point x="191" y="270" type="line"/>
      <point x="147" y="270"/>
      <point x="130" y="243"/>
      <point x="130" y="131" type="curve" smooth="yes"/>
      <point x="130" y="-164"/>
      <point x="76" y="-160"/>
      <point x="30" y="-160" type="curve"/>
    </contour>
  </outline>
</glyph>
<glyph name="asciitilde" format="2">
  <advance width="408"/>
  <unicode hex="007E"/>
  <outline>
    <contour>
      <point x="20" y="264" type="curve"/>
      <point x="47" y="264"/>
      <point x="59" y="277"/>
      <point x="59" y="290" type="curve"/>
      <point x="43" y="290" type="line"/>
      <point x="43" y="277"/>
      <point x="56" y="264"/>
      <point x="84" y="264" type="curve"/>
      <point x="84" y="284"/>
      <point x="92" y="297"/>
      <point x="175" y="277" type="curve" smooth="yes"/>
      <point x="286" y="251"/>
      <point x="275" y="238"/>
      <point x="336" y="238" type="curve" smooth="yes"/>
      <point x="370" y="238"/>
      <point x="388" y="247"/>
      <point x="388" y="306" type="curve"/>
      <point x="360" y="306"/>
      <point x="349" y="293"/>
      <point x="349" y="278" type="curve"/>
      <point x="362" y="278" type="line"/>
      <point x="362" y="293"/>
      <point x="352" y="306"/>
      <point x="323" y="306" type="curve"/>
      <point x="323" y="284"/>
      <point x="299" y="263"/>
      <point x="190" y="291" type="curve" smooth="yes"/>
      <point x="114" y="311"/>
      <point x="123" y="333"/>
      <point x="72" y="333" type="curve" smooth="yes"/>
      <point x="44" y="333"/>
      <point x="20" y="319"/>
    </contour>
  </outline>
</glyph>
<glyph name="cent" format="2">
  <advance width="473"/>
  <unicode hex="00A2"/>
  <outline>
    <contour>
      <point x="231" y="44" type="curve" smooth="yes"/>
      <point x="320" y="44"/>
      <point x="372" y="91"/>
      <point x="372" y="155" type="curve"/>
      <point x="356" y="155" type="line"/>
      <point x="356" y="141"/>
      <point x="339" y="94"/>
      <point x="230" y="94" type="curve" smooth="yes"/>
      <point x="75" y="94"/>
      <point x="65" y="204"/>
      <point x="65" y="314" type="curve" smooth="yes"/>
      <point x="65" y="424"/>
      <point x="75" y="534"/>
      <point x="230" y="534" type="curve" smooth="yes"/>
      <point x="339" y="534"/>
      <point x="357" y="478"/>
      <point x="357" y="464" type="curve"/>
      <point x="357" y="464"/>
      <point x="372" y="464"/>
      <point x="372" y="464" type="curve"/>
      <point x="372" y="539"/>
      <point x="329" y="584"/>
      <point x="231" y="584" type="curve" smooth="yes"/>
      <point x="91" y="584"/>
      <point x="50" y="478"/>
      <point x="50" y="314" type="curve" smooth="yes"/>
      <point x="50" y="150"/>
      <point x="91" y="44"/>
    </contour>
    <contour>
      <point x="214" y="-63" type="line"/>
      <point x="234" y="-63" type="line"/>
      <point x="234" y="85" type="line"/>
      <point x="214" y="85" type="line"/>
    </contour>
    <contour>
      <point x="214" y="535" type="line"/>
      <point x="234" y="535" type="line"/>
      <point x="234" y="683" type="line"/>
      <point x="214" y="683" type="line"/>
    </contour>
  </outline>
</glyph>
<glyph name="sterling" format="2">
  <advance width="515"/>
  <unicode hex="00A3"/>
  <outline>
    <contour>
      <point x="91" y="43" type="line"/>
      <point x="155" y="43"/>
      <point x="205" y="132"/>
      <point x="205" y="218" type="curve" smooth="yes"/>
      <point x="205" y="322"/>
      <point x="135" y="359"/>
      <point x="135" y="499" type="curve" smooth="yes"/>
      <point x="135" y="588"/>
      <point x="189" y="630"/>
      <point x="303" y="630" type="curve" smooth="yes"/>
      <point x="408" y="630"/>
      <point x="443" y="621"/>
      <point x="444" y="591" type="curve"/>
      <point x="459" y="591" type="line"/>
      <point x="459" y="655"/>
      <point x="419" y="680"/>
      <point x="303" y="680" type="curve" smooth="yes"/>
      <point x="179" y="680"/>
      <point x="120" y="622"/>
      <point x="120" y="499" type="curve" smooth="yes"/>
      <point x="120" y="347"/>
      <point x="190" y="303"/>
      <point x="190" y="218" type="curve" smooth="yes"/>
      <point x="190" y="141"/>
      <point x="145" y="56"/>
      <point x="91" y="56" type="curve"/>
    </contour>
    <contour>
      <point x="91" y="0" type="line"/>
      <point x="121" y="0"/>
      <point x="148" y="15"/>
      <point x="148" y="48" type="curve" smooth="yes"/>
      <point x="148" y="50" type="line"/>
      <point x="91" y="50" type="line"/>
    </contour>
    <contour>
      <point x="190" y="0" type="curve" smooth="yes"/>
      <point x="452" y="0" type="line"/>
      <point x="452" y="50" type="line"/>
      <point x="133" y="50" type="line"/>
      <point x="133" y="48" type="line" smooth="yes"/>
      <point x="133" y="15"/>
      <point x="159" y="0"/>
    </contour>
    <contour>
      <point x="80" y="284" type="line"/>
      <point x="358" y="284" type="line"/>
      <point x="358" y="310" type="line"/>
      <point x="80" y="310" type="line"/>
    </contour>
  </outline>
</glyph>
<glyph name="currency" format="2">
  <advance width="558"/>
  <unicode hex="00A4"/>
  <guideline x="220" y="395" angle="315"/>
  <outline>
    <contour>
      <point x="280" y="49" type="curve" smooth="yes"/>
      <point x="429" y="49"/>
      <point x="509" y="170"/>
      <point x="509" y="319" type="curve" smooth="yes"/>
      <point x="509" y="467"/>
      <point x="429" y="588"/>
      <point x="280" y="588" type="curve" smooth="yes"/>
      <point x="131" y="588"/>
      <point x="51" y="467"/>
      <point x="51" y="319" type="curve" smooth="yes"/>
      <point x="51" y="170"/>
      <point x="131" y="49"/>
    </contour>
    <contour>
      <point x="72" y="94" type="line"/>
      <point x="118" y="140" type="line"/>
      <point x="96" y="162" type="line"/>
      <point x="50" y="116" type="line"/>
    </contour>
    <contour>
      <point x="96" y="475" type="line"/>
      <point x="118" y="497" type="line"/>
      <point x="72" y="543" type="line"/>
      <point x="50" y="521" type="line"/>
    </contour>
    <contour>
      <point x="487" y="94" type="line"/>
      <point x="509" y="116" type="line"/>
      <point x="463" y="162" type="line"/>
      <point x="441" y="140" type="line"/>
    </contour>
    <contour>
      <point x="280" y="98" type="curve"/>
      <point x="136" y="98"/>
      <point x="66" y="189"/>
      <point x="66" y="318" type="curve"/>
      <point x="66" y="448"/>
      <point x="136" y="538"/>
      <point x="280" y="538" type="curve"/>
      <point x="424" y="538"/>
      <point x="494" y="448"/>
      <point x="494" y="318" type="curve"/>
      <point x="494" y="189"/>
      <point x="424" y="98"/>
    </contour>
    <contour>
      <point x="463" y="475" type="line"/>
      <point x="509" y="521" type="line"/>
      <point x="487" y="543" type="line"/>
      <point x="441" y="497" type="line"/>
    </contour>
  </outline>
</glyph>
<glyph name="yen" format="2">
  <advance width="556"/>
  <unicode hex="00A5"/>
  <outline>
    <contour>
      <point x="407" y="630" type="line"/>
      <point x="506" y="630" type="line"/>
      <point x="506" y="680" type="line"/>
      <point x="485" y="680"/>
      <point x="449" y="669"/>
      <point x="449" y="634" type="curve"/>
      <point x="464" y="634" type="line"/>
      <point x="464" y="669"/>
      <point x="430" y="680"/>
      <point x="407" y="680" type="curve"/>
    </contour>
    <contour>
      <point x="269" y="63" type="line"/>
      <point x="284" y="63" type="line"/>
      <point x="284" y="318" type="line"/>
      <point x="269" y="318" type="line"/>
    </contour>
    <contour>
      <point x="90" y="225" type="line"/>
      <point x="464" y="225" type="line"/>
      <point x="464" y="249" type="line"/>
      <point x="90" y="249" type="line"/>
    </contour>
    <contour>
      <point x="90" y="294" type="line"/>
      <point x="310" y="294" type="line"/>
      <point x="310" y="318" type="line"/>
      <point x="90" y="318" type="line"/>
    </contour>
    <contour>
      <point x="265" y="317" type="line"/>
      <point x="282" y="317" type="line"/>
      <point x="104" y="634" type="line"/>
      <point x="87" y="634" type="line"/>
    </contour>
    <contour>
      <point x="279" y="294" type="line"/>
      <point x="464" y="294" type="line"/>
      <point x="464" y="318" type="line"/>
      <point x="279" y="318" type="line"/>
    </contour>
    <contour>
      <point x="46" y="630" type="line"/>
      <point x="145" y="630" type="line"/>
      <point x="145" y="680" type="line"/>
      <point x="122" y="680"/>
      <point x="88" y="669"/>
      <point x="88" y="634" type="curve"/>
      <point x="103" y="634" type="line"/>
      <point x="103" y="669"/>
      <point x="67" y="680"/>
      <point x="46" y="680" type="curve"/>
    </contour>
    <contour>
      <point x="271" y="317" type="line"/>
      <point x="289" y="317" type="line"/>
      <point x="466" y="634" type="line"/>
      <point x="448" y="634" type="line"/>
    </contour>
    <component base="serif_inf_der" xOffset="129" yOffset="-10"/>
    <component base="serif_inf_izq" xOffset="129" yOffset="-10"/>
  </outline>
</glyph>
<glyph name="brokenbar" format="2">
  <advance width="120"/>
  <unicode hex="00A6"/>
  <outline>
    <contour>
      <point x="50" y="342" type="line"/>
      <point x="70" y="342" type="line"/>
      <point x="70" y="710" type="line"/>
      <point x="50" y="710" type="line"/>
    </contour>
    <contour>
      <point x="50" y="-178" type="line"/>
      <point x="70" y="-178" type="line"/>
      <point x="70" y="190" type="line"/>
      <point x="50" y="190" type="line"/>
    </contour>
  </outline>
</glyph>
<glyph name="dieresis" format="2">
  <advance width="259"/>
  <unicode hex="00A8"/>
  <anchor x="131" y="520" name="_top"/>
  <outline>
    <contour>
      <point x="200" y="631" type="curve" smooth="yes"/>
      <point x="221" y="631"/>
      <point x="239" y="648"/>
      <point x="239" y="669" type="curve" smooth="yes"/>
      <point x="239" y="690"/>
      <point x="221" y="707"/>
      <point x="200" y="707" type="curve" smooth="yes"/>
      <point x="181" y="707"/>
      <point x="163" y="690"/>
      <point x="163" y="669" type="curve" smooth="yes"/>
      <point x="163" y="648"/>
      <point x="181" y="631"/>
    </contour>
    <contour>
      <point x="59" y="631" type="curve" smooth="yes"/>
      <point x="78" y="631"/>
      <point x="96" y="648"/>
      <point x="96" y="669" type="curve" smooth="yes"/>
      <point x="96" y="690"/>
      <point x="78" y="707"/>
      <point x="59" y="707" type="curve" smooth="yes"/>
      <point x="38" y="707"/>
      <point x="20" y="690"/>
      <point x="20" y="669" type="curve" smooth="yes"/>
      <point x="20" y="648"/>
      <point x="38" y="631"/>
    </contour>
  </outline>
</glyph>
<glyph name="copyright" format="2">
  <advance width="865"/>
  <unicode hex="00A9"/>
  <outline>
    <contour>
      <point x="433" y="-17" type="curve" smooth="yes"/>
      <point x="644" y="-17"/>
      <point x="815" y="154"/>
      <point x="815" y="365" type="curve" smooth="yes"/>
      <point x="815" y="576"/>
      <point x="644" y="747"/>
      <point x="433" y="747" type="curve" smooth="yes"/>
      <point x="221" y="747"/>
      <point x="50" y="576"/>
      <point x="50" y="365" type="curve" smooth="yes"/>
      <point x="50" y="154"/>
      <point x="221" y="-17"/>
    </contour>
    <contour>
      <point x="452" y="81" type="curve" smooth="yes"/>
      <point x="298" y="81"/>
      <point x="207" y="168"/>
      <point x="207" y="342" type="curve" smooth="yes"/>
      <point x="207" y="549"/>
      <point x="298" y="630"/>
      <point x="452" y="631" type="curve" smooth="yes"/>
      <point x="598" y="632"/>
      <point x="645" y="549"/>
      <point x="645" y="454" type="curve"/>
      <point x="620" y="454" type="line"/>
      <point x="620" y="501"/>
      <point x="578" y="561"/>
      <point x="452" y="561" type="curve" smooth="yes"/>
      <point x="335" y="561"/>
      <point x="225" y="529"/>
      <point x="225" y="342" type="curve" smooth="yes"/>
      <point x="225" y="193"/>
      <point x="335" y="151"/>
      <point x="452" y="151" type="curve" smooth="yes"/>
      <point x="599" y="151"/>
      <point x="620" y="223"/>
      <point x="620" y="252" type="curve"/>
      <point x="645" y="252" type="line"/>
      <point x="645" y="168"/>
      <point x="598" y="81"/>
    </contour>
  </outline>
</glyph>
<glyph name="ordfeminine" format="2">
  <advance width="432"/>
  <unicode hex="00AA"/>
  <anchor x="295" y="70" name="bottom"/>
  <anchor x="498" y="80" name="ogonek"/>
  <anchor x="271" y="590" name="top"/>
  <outline>
    <contour>
      <point x="193" y="303" type="curve" smooth="yes"/>
      <point x="304" y="303"/>
      <point x="380" y="384"/>
      <point x="380" y="531" type="curve" smooth="yes"/>
      <point x="380" y="713"/>
      <point x="334" y="760"/>
      <point x="202" y="760" type="curve" smooth="yes"/>
      <point x="69" y="760"/>
      <point x="21" y="713"/>
      <point x="21" y="651" type="curve"/>
      <point x="35" y="651" type="line"/>
      <point x="35" y="683"/>
      <point x="77" y="710"/>
      <point x="200" y="710" type="curve" smooth="yes"/>
      <point x="323" y="710"/>
      <point x="365" y="683"/>
      <point x="365" y="531" type="curve" smooth="yes"/>
      <point x="365" y="400"/>
      <point x="311" y="367"/>
      <point x="194" y="367" type="curve" smooth="yes"/>
      <point x="78" y="367"/>
      <point x="35" y="382"/>
      <point x="35" y="451" type="curve" smooth="yes"/>
      <point x="35" y="483"/>
      <point x="63" y="506"/>
      <point x="194" y="506" type="curve" smooth="yes"/>
      <point x="369" y="506" type="line"/>
      <point x="369" y="521" type="line"/>
      <point x="194" y="521" type="line" smooth="yes"/>
      <point x="48" y="521"/>
      <point x="20" y="495"/>
      <point x="20" y="446" type="curve" smooth="yes"/>
      <point x="20" y="389"/>
      <point x="57" y="303"/>
    </contour>
    <contour>
      <point x="412" y="312" type="curve"/>
      <point x="412" y="355" type="line"/>
      <point x="383" y="355"/>
      <point x="380" y="386"/>
      <point x="380" y="440" type="curve"/>
      <point x="380" y="531" type="line"/>
      <point x="365" y="443" type="line"/>
      <point x="365" y="351"/>
      <point x="367" y="312"/>
    </contour>
  </outline>
</glyph>
<glyph name="logicalnot" format="2">
  <advance width="468"/>
  <unicode hex="00AC"/>
  <outline>
    <contour>
      <point x="40" y="279" type="curve"/>
      <point x="427" y="279" type="line"/>
      <point x="427" y="333" type="line"/>
      <point x="40" y="333" type="line"/>
      <point x="40" y="310"/>
      <point x="51" y="300"/>
      <point x="62" y="300" type="curve"/>
      <point x="62" y="312" type="line"/>
      <point x="51" y="312"/>
      <point x="40" y="303"/>
    </contour>
    <contour>
      <point x="410" y="195" type="line"/>
      <point x="428" y="195" type="line"/>
      <point x="428" y="319" type="line"/>
      <point x="410" y="319" type="line"/>
    </contour>
  </outline>
</glyph>
<glyph name="softhyphen" format="2">
  <advance width="297"/>
  <unicode hex="00AD"/>
  <outline>
    <contour>
      <point x="50" y="302" type="curve"/>
      <point x="247" y="302" type="line"/>
      <point x="247" y="321"/>
      <point x="238" y="330"/>
      <point x="229" y="330" type="curve"/>
      <point x="229" y="318" type="line"/>
      <point x="238" y="318"/>
      <point x="247" y="326"/>
      <point x="247" y="347" type="curve"/>
      <point x="50" y="347" type="line"/>
      <point x="50" y="326"/>
      <point x="59" y="318"/>
      <point x="68" y="318" type="curve"/>
      <point x="68" y="330" type="line"/>
      <point x="59" y="330"/>
      <point x="50" y="321"/>
    </contour>
  </outline>
</glyph>
<glyph name="registered" format="2">
  <advance width="865"/>
  <unicode hex="00AE"/>
  <outline>
    <contour>
      <point x="433" y="-17" type="curve" smooth="yes"/>
      <point x="644" y="-17"/>
      <point x="815" y="154"/>
      <point x="815" y="365" type="curve" smooth="yes"/>
      <point x="815" y="576"/>
      <point x="644" y="747"/>
      <point x="433" y="747" type="curve" smooth="yes"/>
      <point x="221" y="747"/>
      <point x="50" y="576"/>
      <point x="50" y="365" type="curve" smooth="yes"/>
      <point x="50" y="154"/>
      <point x="221" y="-17"/>
    </contour>
    <contour>
      <point x="501" y="136" type="curve"/>
      <point x="501" y="186" type="line"/>
      <point x="534" y="186" type="line"/>
      <point x="453" y="347" type="line"/>
      <point x="401" y="347"/>
      <point x="355" y="347"/>
      <point x="303" y="347" type="curve"/>
      <point x="303" y="222" type="line" smooth="yes"/>
      <point x="303" y="191"/>
      <point x="317" y="181"/>
      <point x="340" y="181" type="curve"/>
      <point x="340" y="137" type="line"/>
      <point x="325" y="137"/>
      <point x="302" y="143"/>
      <point x="292" y="156" type="curve"/>
      <point x="282" y="143"/>
      <point x="257" y="137"/>
      <point x="242" y="137" type="curve"/>
      <point x="242" y="181" type="line"/>
      <point x="265" y="181"/>
      <point x="279" y="191"/>
      <point x="279" y="222" type="curve" smooth="yes"/>
      <point x="279" y="476" type="line" smooth="yes"/>
      <point x="279" y="529"/>
      <point x="273" y="560"/>
      <point x="242" y="560" type="curve"/>
      <point x="242" y="611" type="line"/>
      <point x="284" y="611"/>
      <point x="301" y="576"/>
      <point x="303" y="536" type="curve"/>
      <point x="322" y="583"/>
      <point x="387" y="620"/>
      <point x="467" y="620" type="curve" smooth="yes"/>
      <point x="574" y="620"/>
      <point x="637" y="582"/>
      <point x="637" y="483" type="curve" smooth="yes"/>
      <point x="637" y="379.354"/>
      <point x="600.6" y="350.284"/>
      <point x="478.444" y="347.272" type="curve"/>
      <point x="565" y="186" type="line"/>
      <point x="602" y="186" type="line"/>
      <point x="602" y="136" type="line"/>
      <point x="578" y="136"/>
      <point x="561" y="145"/>
      <point x="553" y="158" type="curve"/>
      <point x="544" y="145"/>
      <point x="525" y="136"/>
    </contour>
    <contour>
      <point x="303" y="375" type="line"/>
      <point x="355" y="375"/>
      <point x="404" y="375"/>
      <point x="456" y="375" type="curve" smooth="yes"/>
      <point x="554" y="375"/>
      <point x="619" y="381"/>
      <point x="619" y="470" type="curve" smooth="yes"/>
      <point x="619" y="569"/>
      <point x="554" y="566"/>
      <point x="456" y="566" type="curve" smooth="yes"/>
      <point x="370" y="566"/>
      <point x="303" y="555"/>
      <point x="303" y="486" type="curve" smooth="yes"/>
    </contour>
  </outline>
</glyph>
<glyph name="macron" format="2">
  <advance width="239"/>
  <unicode hex="00AF"/>
  <anchor x="119" y="520" name="_top"/>
  <outline>
    <contour>
      <point x="20" y="641" type="curve"/>
      <point x="219" y="641" type="line"/>
      <point x="219" y="662"/>
      <point x="210" y="671"/>
      <point x="199" y="671" type="curve"/>
      <point x="199" y="661" type="line"/>
      <point x="210" y="661"/>
      <point x="219" y="670"/>
      <point x="219" y="691" type="curve"/>
      <point x="20" y="691" type="line"/>
      <point x="20" y="670"/>
      <point x="29" y="661"/>
      <point x="40" y="661" type="curve"/>
      <point x="40" y="671" type="line"/>
      <point x="29" y="671"/>
      <point x="20" y="662"/>
    </contour>
  </outline>
</glyph>
<glyph name="degree" format="2">
  <advance width="472"/>
  <unicode hex="00B0"/>
  <outline>
    <contour>
      <point x="237" y="286" type="curve" smooth="yes"/>
      <point x="372" y="286"/>
      <point x="422" y="402"/>
      <point x="422" y="518" type="curve" smooth="yes"/>
      <point x="422" y="641"/>
      <point x="372" y="749"/>
      <point x="236" y="749" type="curve" smooth="yes"/>
      <point x="95" y="749"/>
      <point x="50" y="634"/>
      <point x="50" y="518" type="curve" smooth="yes"/>
      <point x="50" y="392"/>
      <point x="96" y="286"/>
    </contour>
    <contour>
      <point x="247" y="334" type="curve" smooth="yes"/>
      <point x="85" y="334"/>
      <point x="70" y="436"/>
      <point x="70" y="552" type="curve" smooth="yes"/>
      <point x="70" y="634"/>
      <point x="121" y="699"/>
      <point x="221" y="699" type="curve" smooth="yes"/>
      <point x="384" y="699"/>
      <point x="402" y="598"/>
      <point x="402" y="495" type="curve" smooth="yes"/>
      <point x="402" y="402"/>
      <point x="352" y="334"/>
    </contour>
  </outline>
</glyph>
<glyph name="plusminus" format="2">
  <advance width="419"/>
  <unicode hex="00B1"/>
  <outline>
    <contour>
      <point x="30" y="331" type="curve"/>
      <point x="385" y="331" type="line"/>
      <point x="385" y="352"/>
      <point x="375" y="361"/>
      <point x="365" y="361" type="curve"/>
      <point x="365" y="350" type="line"/>
      <point x="375" y="350"/>
      <point x="385" y="359"/>
      <point x="385" y="381" type="curve"/>
      <point x="30" y="381" type="line"/>
      <point x="30" y="359"/>
      <point x="41" y="350"/>
      <point x="51" y="350" type="curve"/>
      <point x="51" y="361" type="line"/>
      <point x="41" y="361"/>
      <point x="30" y="352"/>
    </contour>
    <contour>
      <point x="34" y="151" type="curve"/>
      <point x="389" y="151" type="line"/>
      <point x="389" y="172"/>
      <point x="379" y="181"/>
      <point x="369" y="181" type="curve"/>
      <point x="369" y="170" type="line"/>
      <point x="379" y="170"/>
      <point x="389" y="179"/>
      <point x="389" y="201" type="curve"/>
      <point x="34" y="201" type="line"/>
      <point x="34" y="179"/>
      <point x="45" y="170"/>
      <point x="55" y="170" type="curve"/>
      <point x="55" y="181" type="line"/>
      <point x="45" y="181"/>
      <point x="34" y="172"/>
    </contour>
    <contour>
      <point x="193" y="236" type="line"/>
      <point x="222" y="236" type="line"/>
      <point x="222" y="475" type="line"/>
      <point x="193" y="475" type="line"/>
    </contour>
  </outline>
</glyph>
<glyph name="twosuperior" format="2">
  <advance width="437"/>
  <unicode hex="00B2"/>
  <outline>
    <contour>
      <point x="50" y="294" type="line"/>
      <point x="287" y="294" type="line" smooth="yes"/>
      <point x="322" y="294"/>
      <point x="345" y="317"/>
      <point x="345" y="344" type="curve"/>
      <point x="330" y="344" type="line"/>
      <point x="330" y="317"/>
      <point x="352" y="294"/>
      <point x="387" y="294" type="curve"/>
      <point x="387" y="344" type="line"/>
      <point x="65" y="344" type="line"/>
      <point x="65" y="338" type="line"/>
      <point x="65" y="453"/>
      <point x="131" y="481"/>
      <point x="212" y="481" type="curve" smooth="yes"/>
      <point x="353" y="481"/>
      <point x="383" y="515"/>
      <point x="383" y="601" type="curve" smooth="yes"/>
      <point x="383" y="709"/>
      <point x="321" y="754"/>
      <point x="216" y="754" type="curve" smooth="yes"/>
      <point x="119" y="754"/>
      <point x="53" y="709"/>
      <point x="53" y="641" type="curve"/>
      <point x="68" y="641" type="line"/>
      <point x="68" y="674"/>
      <point x="113" y="703"/>
      <point x="218" y="703" type="curve" smooth="yes"/>
      <point x="325" y="703"/>
      <point x="368" y="674"/>
      <point x="368" y="601" type="curve" smooth="yes"/>
      <point x="368" y="520"/>
      <point x="345" y="496"/>
      <point x="209" y="496" type="curve" smooth="yes"/>
      <point x="134" y="496"/>
      <point x="50" y="464"/>
      <point x="50" y="329" type="curve"/>
    </contour>
  </outline>
</glyph>
<glyph name="threesuperior" format="2">
  <advance width="475"/>
  <unicode hex="00B3"/>
  <outline>
    <contour>
      <point x="237" y="282" type="curve" smooth="yes"/>
      <point x="376" y="282"/>
      <point x="425" y="339"/>
      <point x="425" y="434" type="curve" smooth="yes"/>
      <point x="425" y="531"/>
      <point x="383" y="552"/>
      <point x="190" y="551" type="curve"/>
      <point x="190" y="545"/>
      <point x="190" y="540"/>
      <point x="190" y="534" type="curve"/>
      <point x="356" y="534"/>
      <point x="410" y="518"/>
      <point x="410" y="434" type="curve" smooth="yes"/>
      <point x="410" y="360"/>
      <point x="374" y="333"/>
      <point x="237" y="333" type="curve" smooth="yes"/>
      <point x="113" y="333"/>
      <point x="67" y="360"/>
      <point x="67" y="391" type="curve"/>
      <point x="65" y="391"/>
      <point x="52" y="391"/>
      <point x="50" y="391" type="curve"/>
      <point x="50" y="324"/>
      <point x="107" y="282"/>
    </contour>
    <contour>
      <point x="59" y="700" type="line"/>
      <point x="116" y="700" type="line"/>
      <point x="116" y="701" type="line"/>
      <point x="116" y="726"/>
      <point x="93" y="750"/>
      <point x="59" y="750" type="curve"/>
    </contour>
    <contour>
      <point x="195" y="534" type="line"/>
      <point x="195" y="534"/>
      <point x="408" y="700"/>
      <point x="408" y="700" type="curve"/>
      <point x="408" y="750" type="line"/>
      <point x="160" y="750" type="line" smooth="yes"/>
      <point x="118" y="750"/>
      <point x="101" y="719"/>
      <point x="101" y="705" type="curve" smooth="yes"/>
      <point x="101" y="700" type="line"/>
      <point x="396" y="700" type="line"/>
      <point x="403" y="718" type="line"/>
      <point x="403" y="718"/>
      <point x="190" y="551"/>
      <point x="190" y="551" type="curve"/>
    </contour>
  </outline>
</glyph>
<glyph name="acute" format="2">
  <advance width="196"/>
  <unicode hex="00B4"/>
  <anchor x="40" y="520" name="_top"/>
  <outline>
    <contour>
      <point x="32" y="611" type="line"/>
      <point x="176" y="673" type="line"/>
      <point x="156" y="703"/>
      <point x="125" y="700"/>
      <point x="104" y="683" type="curve"/>
      <point x="114" y="669" type="line"/>
      <point x="135" y="684"/>
      <point x="149" y="711"/>
      <point x="129" y="743" type="curve"/>
      <point x="20" y="626" type="line"/>
    </contour>
  </outline>
</glyph>
<glyph name="micro" format="2">
  <advance width="503"/>
  <unicode hex="00B5"/>
  <anchor x="263" y="0" name="bottom"/>
  <anchor x="513" y="10" name="ogonek"/>
  <anchor x="245" y="520" name="top"/>
  <anchor x="555" y="520" name="topright"/>
  <outline>
    <contour>
      <point x="259" y="-10" type="curve" smooth="yes"/>
      <point x="368" y="-10"/>
      <point x="411" y="103"/>
      <point x="411" y="160" type="curve"/>
      <point x="396" y="160" type="line"/>
      <point x="396" y="82"/>
      <point x="338" y="40"/>
      <point x="265" y="40" type="curve" smooth="yes"/>
      <point x="183" y="40"/>
      <point x="107" y="76"/>
      <point x="107" y="180" type="curve"/>
      <point x="92" y="180" type="line"/>
      <point x="92" y="168" type="line" smooth="yes"/>
      <point x="92" y="67"/>
      <point x="149" y="-10"/>
    </contour>
    <contour>
      <point x="75" y="-232" type="line"/>
      <point x="124" y="-232" type="line"/>
      <point x="107" y="8" type="line"/>
      <point x="107" y="435" type="line"/>
      <point x="92" y="435" type="line"/>
      <point x="92" y="7" type="line"/>
    </contour>
    <contour>
      <point x="396" y="38" type="line"/>
      <point x="411" y="38" type="line"/>
      <point x="411" y="435" type="line"/>
      <point x="396" y="435" type="line"/>
    </contour>
    <component base="serif_sup_izq" xOffset="-45" yOffset="10"/>
    <component base="serif_sup_der" xOffset="-75" yOffset="10"/>
    <component base="serif_sup_izq" xOffset="259" yOffset="10"/>
    <component base="serif_sup_der" xOffset="229" yOffset="10"/>
    <component base="serif_inf_der" xOffset="256" yOffset="-10"/>
  </outline>
</glyph>
<glyph name="paragraph" format="2">
  <advance width="690"/>
  <unicode hex="00B6"/>
  <outline>
    <contour>
      <point x="230" y="334" type="curve"/>
      <point x="250" y="701" type="line"/>
      <point x="590" y="701" type="line"/>
      <point x="590" y="746" type="line"/>
      <point x="250" y="747" type="line" smooth="yes"/>
      <point x="75" y="748"/>
      <point x="20" y="621"/>
      <point x="20" y="538" type="curve" smooth="yes"/>
      <point x="20" y="433"/>
      <point x="85" y="335"/>
    </contour>
    <contour>
      <point x="230" y="-140" type="line"/>
      <point x="250" y="-140" type="line"/>
      <point x="250" y="719" type="line"/>
      <point x="230" y="719" type="line"/>
    </contour>
    <contour>
      <point x="504" y="-140" type="line"/>
      <point x="525" y="-140" type="line"/>
      <point x="525" y="746" type="line"/>
      <point x="504" y="746" type="line"/>
    </contour>
  </outline>
</glyph>
<glyph name="cedilla" format="2">
  <advance width="250"/>
  <unicode hex="00B8"/>
  <anchor x="129" y="-8" name="_bottom"/>
  <outline>
    <contour>
      <point x="125" y="-149" type="curve" smooth="yes"/>
      <point x="190" y="-149"/>
      <point x="220" y="-123"/>
      <point x="220" y="-83" type="curve" smooth="yes"/>
      <point x="220" y="-43"/>
      <point x="209" y="-19"/>
      <point x="122" y="-19" type="curve"/>
      <point x="115" y="-34" type="line"/>
      <point x="186" y="-34"/>
      <point x="205" y="-46"/>
      <point x="205" y="-66" type="curve" smooth="yes"/>
      <point x="205" y="-86"/>
      <point x="186" y="-98"/>
      <point x="124" y="-98" type="curve" smooth="yes"/>
      <point x="56" y="-98"/>
      <point x="45" y="-86"/>
      <point x="45" y="-66" type="curve"/>
      <point x="30" y="-66" type="line"/>
      <point x="30" y="-123"/>
      <point x="60" y="-149"/>
    </contour>
    <contour>
      <point x="108" y="-34" type="line"/>
      <point x="123" y="-34" type="line"/>
      <point x="142" y="19" type="line"/>
      <point x="127" y="19" type="line"/>
    </contour>
  </outline>
</glyph>
<glyph name="onesuperior" format="2">
  <advance width="199"/>
  <unicode hex="00B9"/>
  <outline>
    <contour>
      <point x="149" y="293" type="curve"/>
      <point x="149" y="343" type="line"/>
      <point x="123" y="343"/>
      <point x="107" y="354"/>
      <point x="107" y="389" type="curve"/>
      <point x="92" y="389" type="line"/>
      <point x="92" y="389"/>
      <point x="92" y="348"/>
      <point x="92" y="338" type="curve" smooth="yes"/>
      <point x="92" y="306"/>
      <point x="124" y="293"/>
    </contour>
    <contour>
      <point x="50" y="293" type="line"/>
      <point x="75" y="293"/>
      <point x="107" y="306"/>
      <point x="107" y="338" type="curve" smooth="yes"/>
      <point x="107" y="348"/>
      <point x="107" y="389"/>
      <point x="107" y="389" type="curve"/>
      <point x="92" y="389" type="line"/>
      <point x="92" y="354"/>
      <point x="76" y="343"/>
      <point x="50" y="343" type="curve"/>
    </contour>
    <contour>
      <point x="92" y="334" type="line"/>
      <point x="107" y="334" type="line"/>
      <point x="107" y="710" type="line"/>
      <point x="92" y="710" type="line"/>
    </contour>
    <contour>
      <point x="50" y="693" type="line"/>
      <point x="107" y="693" type="line"/>
      <point x="107" y="750" type="line"/>
      <point x="74" y="750" type="line"/>
    </contour>
  </outline>
</glyph>
<glyph name="ordmasculine" format="2">
  <advance width="518"/>
  <unicode hex="00BA"/>
  <outline>
    <contour>
      <point x="259" y="291" type="curve" smooth="yes"/>
      <point x="396" y="290"/>
      <point x="468" y="377"/>
      <point x="468" y="520" type="curve" smooth="yes"/>
      <point x="468" y="663"/>
      <point x="396" y="749"/>
      <point x="259" y="748" type="curve" smooth="yes"/>
      <point x="118" y="747"/>
      <point x="50" y="663"/>
      <point x="50" y="520" type="curve" smooth="yes"/>
      <point x="50" y="377"/>
      <point x="118" y="292"/>
    </contour>
    <contour>
      <point x="259" y="343" type="curve" smooth="yes"/>
      <point x="122" y="343"/>
      <point x="65" y="405"/>
      <point x="65" y="520" type="curve" smooth="yes"/>
      <point x="65" y="634"/>
      <point x="122" y="698"/>
      <point x="259" y="698" type="curve" smooth="yes"/>
      <point x="390" y="698"/>
      <point x="453" y="634"/>
      <point x="453" y="520" type="curve" smooth="yes"/>
      <point x="453" y="405"/>
      <point x="390" y="343"/>
    </contour>
  </outline>
</glyph>
<glyph name="onequarter" format="2">
  <advance width="721"/>
  <unicode hex="00BC"/>
  <outline>
    <contour>
      <point x="365" y="97" type="line"/>
      <point x="614" y="429" type="line"/>
      <point x="614" y="451" type="line"/>
      <point x="365" y="119" type="line"/>
    </contour>
    <contour>
      <point x="365" y="69" type="line"/>
      <point x="629" y="69" type="line"/>
      <point x="629" y="119" type="line"/>
      <point x="365" y="119" type="line"/>
      <point x="365" y="118" type="line"/>
    </contour>
    <contour>
      <point x="671" y="69" type="curve"/>
      <point x="671" y="119" type="line"/>
      <point x="614" y="119" type="line"/>
      <point x="614" y="118" type="line"/>
      <point x="614" y="93"/>
      <point x="637" y="69"/>
    </contour>
    <contour>
      <point x="614" y="-12" type="line"/>
      <point x="629" y="-12" type="line"/>
      <point x="629" y="451" type="line"/>
      <point x="614" y="451" type="line"/>
    </contour>
    <component base="onesuperior"/>
    <component base="fraction" xOffset="67"/>
  </outline>
</glyph>
<glyph name="threequarters" format="2">
  <advance width="871"/>
  <unicode hex="00BE"/>
  <outline>
    <contour>
      <point x="545" y="97" type="line"/>
      <point x="794" y="429" type="line"/>
      <point x="794" y="451" type="line"/>
      <point x="545" y="119" type="line"/>
    </contour>
    <contour>
      <point x="545" y="69" type="line"/>
      <point x="809" y="69" type="line"/>
      <point x="809" y="119" type="line"/>
      <point x="545" y="119" type="line"/>
      <point x="545" y="118" type="line"/>
    </contour>
    <contour>
      <point x="851" y="69" type="curve"/>
      <point x="851" y="119" type="line"/>
      <point x="794" y="119" type="line"/>
      <point x="794" y="118" type="line"/>
      <point x="794" y="93"/>
      <point x="817" y="69"/>
    </contour>
    <contour>
      <point x="794" y="-12" type="line"/>
      <point x="809" y="-12" type="line"/>
      <point x="809" y="451" type="line"/>
      <point x="794" y="451" type="line"/>
    </contour>
    <component base="fraction" xOffset="269"/>
    <component base="threesuperior"/>
  </outline>
</glyph>
<glyph name="AE" format="2">
  <advance width="837"/>
  <unicode hex="00C6"/>
  <anchor x="413" y="0" name="bottom"/>
  <anchor x="478" y="680" name="top"/>
  <outline>
    <contour>
      <point x="415" y="630" type="line"/>
      <point x="762" y="630" type="line"/>
      <point x="762" y="680" type="line"/>
      <point x="415" y="680" type="line"/>
      <point x="415" y="632" type="line"/>
    </contour>
    <contour>
      <point x="70" y="0" type="line"/>
      <point x="91" y="0"/>
      <point x="127" y="11"/>
      <point x="127" y="46" type="curve"/>
      <point x="112" y="46" type="line"/>
      <point x="112" y="11"/>
      <point x="146" y="0"/>
      <point x="169" y="0" type="curve"/>
      <point x="169" y="50" type="line"/>
      <point x="70" y="50" type="line"/>
    </contour>
    <contour>
      <point x="383" y="0" type="line"/>
      <point x="413" y="0"/>
      <point x="440" y="15"/>
      <point x="440" y="48" type="curve"/>
      <point x="440" y="50" type="line"/>
      <point x="383" y="50" type="line"/>
    </contour>
    <contour>
      <point x="109" y="50" type="line"/>
      <point x="127" y="50" type="line"/>
      <point x="375" y="630" type="line"/>
      <point x="357" y="630" type="line"/>
    </contour>
    <contour>
      <point x="425" y="47" type="line"/>
      <point x="440" y="47" type="line"/>
      <point x="481" y="50" type="line"/>
      <point x="451" y="50"/>
      <point x="440" y="58"/>
      <point x="440" y="103" type="curve"/>
      <point x="425" y="103" type="line"/>
      <point x="425" y="58"/>
      <point x="413" y="50"/>
      <point x="383" y="50" type="curve"/>
    </contour>
    <contour>
      <point x="482" y="0" type="curve"/>
      <point x="762" y="0" type="line"/>
      <point x="762" y="50" type="line"/>
      <point x="425" y="50" type="line"/>
      <point x="425" y="48" type="line"/>
      <point x="425" y="15"/>
      <point x="451" y="0"/>
    </contour>
    <contour>
      <point x="241" y="319" type="line"/>
      <point x="722" y="319" type="line"/>
      <point x="722" y="344" type="line"/>
      <point x="241" y="344" type="line"/>
    </contour>
    <contour>
      <point x="425" y="70" type="line"/>
      <point x="440" y="70" type="line"/>
      <point x="440" y="636" type="line"/>
      <point x="425" y="636" type="line"/>
    </contour>
    <contour>
      <point x="316" y="630" type="line"/>
      <point x="415" y="630" type="line"/>
      <point x="415" y="680" type="line"/>
      <point x="392" y="680"/>
      <point x="350" y="665"/>
      <point x="350" y="630" type="curve"/>
      <point x="382" y="630" type="line"/>
      <point x="382" y="665"/>
      <point x="337" y="680"/>
      <point x="316" y="680" type="curve"/>
    </contour>
    <contour>
      <point x="425" y="577" type="curve"/>
      <point x="440" y="577" type="line"/>
      <point x="440" y="622"/>
      <point x="451" y="630"/>
      <point x="481" y="630" type="curve"/>
      <point x="440" y="633" type="line"/>
      <point x="425" y="633" type="line"/>
      <point x="383" y="630" type="line"/>
      <point x="413" y="630"/>
      <point x="425" y="622"/>
    </contour>
    <contour>
      <point x="747" y="16" type="line"/>
      <point x="762" y="16" type="line"/>
      <point x="762" y="93" type="line"/>
      <point x="747" y="93" type="line"/>
    </contour>
    <contour>
      <point x="747" y="599" type="line"/>
      <point x="762" y="599" type="line"/>
      <point x="762" y="673" type="line"/>
      <point x="747" y="673" type="line"/>
    </contour>
  </outline>
</glyph>
<glyph name="Eth" format="2">
  <advance width="679"/>
  <unicode hex="00D0"/>
  <anchor x="349" y="0" name="bottom"/>
  <anchor x="349" y="340" name="center"/>
  <anchor x="349" y="650" name="top"/>
  <outline>
    <contour>
      <point x="104" y="329" type="line"/>
      <point x="415" y="329" type="line"/>
      <point x="415" y="354" type="line"/>
      <point x="104" y="354" type="line"/>
    </contour>
    <component base="D"/>
  </outline>
</glyph>
<glyph name="multiply" format="2">
  <advance width="448"/>
  <unicode hex="00D7"/>
  <outline>
    <contour>
      <point x="104" y="92" type="line"/>
      <point x="221" y="234" type="line"/>
      <point x="353" y="86" type="line"/>
      <point x="398" y="131" type="line"/>
      <point x="250" y="263" type="line"/>
      <point x="392" y="382" type="line"/>
      <point x="346" y="427" type="line"/>
      <point x="227" y="285" type="line"/>
      <point x="95" y="433" type="line"/>
      <point x="50" y="388" type="line"/>
      <point x="199" y="256" type="line"/>
      <point x="56" y="137" type="line"/>
    </contour>
  </outline>
</glyph>
<glyph name="Oslash" format="2">
  <advance width="550"/>
  <unicode hex="00D8"/>
  <anchor x="330" y="0" name="bottom"/>
  <anchor x="342" y="330" name="center"/>
  <anchor x="331" y="9" name="ogonek"/>
  <anchor x="331" y="680" name="top"/>
  <anchor x="272" y="689" name="topleft"/>
  <anchor x="641" y="680" name="topright"/>
  <outline>
    <contour>
      <point x="176" y="78" type="line"/>
      <point x="190" y="55" type="line"/>
      <point x="485" y="609" type="line"/>
      <point x="468" y="626" type="line"/>
    </contour>
    <component base="O"/>
  </outline>
</glyph>
<glyph name="Thorn" format="2">
  <advance width="538"/>
  <unicode hex="00DE"/>
  <anchor x="226" y="680" name="top"/>
  <outline>
    <contour>
      <point x="297" y="170" type="curve" smooth="yes"/>
      <point x="395" y="170"/>
      <point x="488" y="221"/>
      <point x="488" y="390" type="curve" smooth="yes"/>
      <point x="488" y="521"/>
      <point x="417" y="610"/>
      <point x="297" y="610" type="curve" smooth="yes"/>
      <point x="183" y="610"/>
      <point x="95" y="530"/>
      <point x="95" y="431" type="curve" smooth="yes"/>
      <point x="95" y="421"/>
      <point x="96" y="348"/>
      <point x="96" y="348" type="curve"/>
      <point x="96" y="264"/>
      <point x="129" y="170"/>
    </contour>
    <contour>
      <point x="149" y="0" type="curve"/>
      <point x="149" y="50" type="line"/>
      <point x="123" y="50"/>
      <point x="107" y="61"/>
      <point x="107" y="96" type="curve"/>
      <point x="92" y="96" type="line"/>
      <point x="92" y="96"/>
      <point x="92" y="55"/>
      <point x="92" y="45" type="curve" smooth="yes"/>
      <point x="92" y="13"/>
      <point x="124" y="0"/>
    </contour>
    <contour>
      <point x="92" y="83" type="line"/>
      <point x="107" y="83" type="line"/>
      <point x="107" y="605" type="line"/>
      <point x="92" y="605" type="line"/>
    </contour>
    <contour>
      <point x="284" y="190" type="curve" smooth="yes"/>
      <point x="167" y="190"/>
      <point x="107" y="256"/>
      <point x="107" y="359" type="curve" smooth="yes"/>
      <point x="107" y="364"/>
      <point x="107" y="410"/>
      <point x="107" y="439" type="curve" smooth="yes"/>
      <point x="107" y="517"/>
      <point x="183" y="560"/>
      <point x="284" y="560" type="curve" smooth="yes"/>
      <point x="395" y="560"/>
      <point x="473" y="517"/>
      <point x="473" y="375" type="curve" smooth="yes"/>
      <point x="473" y="253"/>
      <point x="395" y="190"/>
    </contour>
    <contour>
      <point x="92" y="598" type="curve"/>
      <point x="107" y="598" type="line"/>
      <point x="107" y="598"/>
      <point x="107" y="631"/>
      <point x="107" y="645" type="curve" smooth="yes"/>
      <point x="107" y="697"/>
      <point x="104" y="750"/>
      <point x="50" y="750" type="curve"/>
      <point x="50" y="693" type="line"/>
      <point x="85" y="693"/>
      <point x="92" y="657"/>
    </contour>
    <component base="serif_inf_izq" xOffset="-48"/>
  </outline>
</glyph>
<glyph name="germandbls" format="2">
  <advance width="528"/>
  <unicode hex="00DF"/>
  <anchor x="252" y="0" name="bottom"/>
  <anchor x="252" y="520" name="top"/>
  <outline>
    <contour>
      <point x="327" y="250" type="curve"/>
      <point x="327" y="271" type="line"/>
      <point x="204" y="270"/>
      <point x="187" y="307"/>
      <point x="187" y="357" type="curve" smooth="yes"/>
      <point x="187" y="402"/>
      <point x="204" y="430"/>
      <point x="327" y="430" type="curve" smooth="yes"/>
      <point x="403" y="430"/>
      <point x="478" y="454"/>
      <point x="478" y="555" type="curve" smooth="yes"/>
      <point x="478" y="653"/>
      <point x="442" y="751"/>
      <point x="299" y="751" type="curve" smooth="yes"/>
      <point x="139" y="751"/>
      <point x="92" y="650"/>
      <point x="92" y="538" type="curve" smooth="yes"/>
      <point x="92" y="499" type="line"/>
      <point x="107" y="499" type="line"/>
      <point x="107" y="650"/>
      <point x="133" y="701"/>
      <point x="304" y="701" type="curve" smooth="yes"/>
      <point x="442" y="701"/>
      <point x="463" y="637"/>
      <point x="463" y="561" type="curve" smooth="yes"/>
      <point x="463" y="493"/>
      <point x="423" y="480"/>
      <point x="327" y="480" type="curve" smooth="yes"/>
      <point x="211" y="480"/>
      <point x="172" y="437"/>
      <point x="172" y="362" type="curve" smooth="yes"/>
      <point x="172" y="287"/>
      <point x="211" y="250"/>
    </contour>
    <contour>
      <point x="92" y="65" type="line"/>
      <point x="107" y="65" type="line"/>
      <point x="107" y="522" type="line"/>
      <point x="92" y="522" type="line"/>
    </contour>
    <contour>
      <point x="331" y="-10" type="curve" smooth="yes"/>
      <point x="421" y="-10"/>
      <point x="491" y="45"/>
      <point x="491" y="141" type="curve" smooth="yes"/>
      <point x="491" y="250"/>
      <point x="403" y="271"/>
      <point x="321" y="271" type="curve"/>
      <point x="321" y="250" type="line"/>
      <point x="411" y="251"/>
      <point x="476" y="216"/>
      <point x="476" y="141" type="curve" smooth="yes"/>
      <point x="476" y="64"/>
      <point x="421" y="40"/>
      <point x="331" y="40" type="curve" smooth="yes"/>
      <point x="221" y="40"/>
      <point x="186" y="64"/>
      <point x="186" y="110" type="curve"/>
      <point x="171" y="110" type="line"/>
      <point x="171" y="45"/>
      <point x="221" y="-10"/>
    </contour>
    <component base="serif_inf_der" xOffset="-48"/>
    <component base="serif_inf_izq" xOffset="-48"/>
  </outline>
</glyph>
<glyph name="ae" format="2">
  <advance width="874"/>
  <unicode hex="00E6"/>
  <anchor x="446" y="0" name="bottom"/>
  <anchor x="446" y="520" name="top"/>
  <outline>
    <contour>
      <point x="624" y="-10" type="curve" smooth="yes"/>
      <point x="757" y="-10"/>
      <point x="794" y="66"/>
      <point x="794" y="103" type="curve"/>
      <point x="779" y="103" type="line"/>
      <point x="779" y="81"/>
      <point x="752" y="40"/>
      <point x="629" y="40" type="curve" smooth="yes"/>
      <point x="487" y="40"/>
      <point x="447" y="91"/>
      <point x="447" y="260" type="curve" smooth="yes"/>
      <point x="447" y="441"/>
      <point x="487" y="480"/>
      <point x="629" y="480" type="curve" smooth="yes"/>
      <point x="721" y="480"/>
      <point x="779" y="445"/>
      <point x="779" y="280" type="curve"/>
      <point x="442" y="280" type="line"/>
      <point x="442" y="260" type="line"/>
      <point x="794" y="260" type="line"/>
      <point x="794" y="451"/>
      <point x="757" y="530"/>
      <point x="624" y="530" type="curve" smooth="yes"/>
      <point x="503" y="530"/>
      <point x="432" y="461"/>
      <point x="432" y="260" type="curve" smooth="yes"/>
      <point x="432" y="66"/>
      <point x="503" y="-10"/>
    </contour>
    <contour>
      <point x="251" y="-10" type="curve" smooth="yes"/>
      <point x="380" y="-10"/>
      <point x="446" y="73"/>
      <point x="446" y="275" type="curve" smooth="yes"/>
      <point x="446" y="462"/>
      <point x="389" y="530"/>
      <point x="250" y="530" type="curve" smooth="yes"/>
      <point x="131" y="530"/>
      <point x="94" y="482"/>
      <point x="94" y="438" type="curve"/>
      <point x="107" y="438" type="line"/>
      <point x="107" y="463"/>
      <point x="138" y="480"/>
      <point x="249" y="480" type="curve" smooth="yes"/>
      <point x="380" y="480"/>
      <point x="431" y="443"/>
      <point x="431" y="288" type="curve" smooth="yes"/>
      <point x="431" y="103"/>
      <point x="399" y="40"/>
      <point x="253" y="40" type="curve" smooth="yes"/>
      <point x="146" y="40"/>
      <point x="105" y="62"/>
      <point x="105" y="150" type="curve" smooth="yes"/>
      <point x="105" y="221"/>
      <point x="128" y="260"/>
      <point x="239" y="260" type="curve" smooth="yes"/>
      <point x="436" y="260" type="line"/>
      <point x="436" y="280" type="line"/>
      <point x="253" y="280" type="line" smooth="yes"/>
      <point x="123" y="280"/>
      <point x="90" y="235"/>
      <point x="90" y="145" type="curve" smooth="yes"/>
      <point x="90" y="55"/>
      <point x="133" y="-10"/>
    </contour>
  </outline>
</glyph>
<glyph name="eth" format="2">
  <advance width="557"/>
  <unicode hex="00F0"/>
  <outline>
    <contour>
      <point x="284" y="-10" type="curve" smooth="yes"/>
      <point x="414" y="-10"/>
      <point x="472" y="111"/>
      <point x="472" y="234" type="curve"/>
      <point x="472" y="268"/>
      <point x="467" y="288"/>
      <point x="467" y="286" type="curve"/>
      <point x="467" y="416"/>
      <point x="414" y="530"/>
      <point x="284" y="530" type="curve" smooth="yes"/>
      <point x="146" y="530"/>
      <point x="90" y="405"/>
      <point x="90" y="260" type="curve" smooth="yes"/>
      <point x="90" y="86"/>
      <point x="146" y="-10"/>
    </contour>
    <contour>
      <point x="284" y="40" type="curve" smooth="yes"/>
      <point x="138" y="40"/>
      <point x="105" y="125"/>
      <point x="105" y="260" type="curve" smooth="yes"/>
      <point x="105" y="395"/>
      <point x="138" y="480"/>
      <point x="284" y="480" type="curve" smooth="yes"/>
      <point x="435" y="480"/>
      <point x="456" y="378"/>
      <point x="456" y="260" type="curve" smooth="yes"/>
      <point x="456" y="142"/>
      <point x="435" y="40"/>
    </contour>
    <contour>
      <point x="456" y="242" type="curve"/>
      <point x="472" y="242" type="line"/>
      <point x="472" y="641"/>
      <point x="362" y="755"/>
      <point x="228" y="755" type="curve"/>
      <point x="210" y="705" type="line"/>
      <point x="366" y="705"/>
      <point x="456" y="610"/>
    </contour>
    <contour>
      <point x="364" y="554" type="line"/>
      <point x="456" y="652" type="line"/>
      <point x="440" y="667" type="line"/>
      <point x="349" y="569" type="line"/>
    </contour>
  </outline>
</glyph>
<glyph name="divide" format="2">
  <advance width="465"/>
  <unicode hex="00F7"/>
  <outline>
    <contour>
      <point x="50" y="231" type="curve"/>
      <point x="415" y="231" type="line"/>
      <point x="415" y="252"/>
      <point x="404" y="260"/>
      <point x="391" y="260" type="curve"/>
      <point x="391" y="249" type="line"/>
      <point x="404" y="249"/>
      <point x="415" y="259"/>
      <point x="415" y="281" type="curve"/>
      <point x="50" y="281" type="line"/>
      <point x="50" y="259"/>
      <point x="63" y="249"/>
      <point x="75" y="249" type="curve"/>
      <point x="75" y="260" type="line"/>
      <point x="63" y="260"/>
      <point x="50" y="252"/>
    </contour>
    <component base="period" xScale="1.2" yScale="1.2" xOffset="154" yOffset="364"/>
    <component base="period" xScale="1.2" yScale="1.2" xOffset="154" yOffset="100"/>
  </outline>
</glyph>
<glyph name="oslash" format="2">
  <advance width="562"/>
  <unicode hex="00F8"/>
  <anchor x="281" y="0" name="bottom"/>
  <anchor x="281" y="260" name="center"/>
  <anchor x="284" y="8" name="ogonek"/>
  <anchor x="241" y="520" name="top"/>
  <anchor x="482" y="520" name="topright"/>
  <outline>
    <contour>
      <point x="142" y="36" type="line"/>
      <point x="351" y="458" type="line"/>
      <point x="341" y="483" type="line"/>
      <point x="132" y="61" type="line"/>
    </contour>
    <component base="o"/>
  </outline>
</glyph>
<glyph name="thorn" format="2">
  <advance width="565"/>
  <unicode hex="00FE"/>
  <anchor x="230" y="0" name="bottom"/>
  <anchor x="230" y="520" name="top"/>
  <outline>
    <contour>
      <point x="92" y="-175" type="line"/>
      <point x="107" y="-175" type="line"/>
      <point x="107" y="598" type="line"/>
      <point x="92" y="598" type="line"/>
    </contour>
    <contour>
      <point x="92" y="598" type="curve"/>
      <point x="107" y="598" type="line"/>
      <point x="107" y="598"/>
      <point x="107" y="631"/>
      <point x="107" y="645" type="curve" smooth="yes"/>
      <point x="107" y="697"/>
      <point x="104" y="750"/>
      <point x="50" y="750" type="curve"/>
      <point x="50" y="731"/>
      <point x="50" y="712"/>
      <point x="50" y="693" type="curve"/>
      <point x="85" y="693"/>
      <point x="92" y="657"/>
    </contour>
    <component base="serif_inf_izq" xOffset="-48" yOffset="-230"/>
    <component base="serif_inf_der" xOffset="-48" yOffset="-230"/>
    <component base="aro_min" xOffset="78"/>
  </outline>
</glyph>
<glyph name="dcroat" format="2">
  <advance width="613"/>
  <unicode hex="0111"/>
  <anchor x="383" y="595" name="_center"/>
  <anchor x="478" y="21" name="bottom"/>
  <anchor x="462" y="616" name="center"/>
  <anchor x="298" y="541" name="top"/>
  <anchor x="469" y="541" name="topright"/>
  <outline>
    <contour>
      <point x="411" y="618" type="line"/>
      <point x="506" y="618" type="line"/>
      <point x="506" y="641" type="line"/>
      <point x="411" y="641" type="line"/>
    </contour>
    <component base="d" yOffset="21"/>
  </outline>
</glyph>
<glyph name="Hbar" format="2">
  <advance width="734"/>
  <unicode hex="0126"/>
  <anchor x="380" y="0" name="bottom"/>
  <anchor x="380" y="340" name="center"/>
  <anchor x="377" y="651" name="top"/>
  <anchor x="89" y="680" name="topleft"/>
  <outline>
    <contour>
      <point x="103" y="468" type="line"/>
      <point x="633" y="468" type="line"/>
      <point x="633" y="493" type="line"/>
      <point x="103" y="493" type="line"/>
    </contour>
    <component base="H"/>
  </outline>
</glyph>
<glyph name="hbar" format="2">
  <advance width="650"/>
  <unicode hex="0127"/>
  <anchor x="125" y="260" name="_center"/>
  <anchor x="343" y="0" name="bottom"/>
  <anchor x="175" y="260" name="center"/>
  <anchor x="175" y="691" name="top"/>
  <outline>
    <contour>
      <point x="100" y="595" type="line"/>
      <point x="241" y="595" type="line"/>
      <point x="241" y="620" type="line"/>
      <point x="100" y="620" type="line"/>
    </contour>
    <component base="h" xOffset="27"/>
  </outline>
</glyph>
<glyph name="idotless" format="2">
  <advance width="269"/>
  <unicode hex="0131"/>
  <anchor x="138" y="0" name="bottom"/>
  <anchor x="183" y="-1" name="ogonek"/>
  <anchor x="138" y="520" name="top"/>
  <outline>
    <contour>
      <point x="127" y="83" type="line"/>
      <point x="142" y="83" type="line"/>
      <point x="142" y="435" type="line"/>
      <point x="127" y="435" type="line"/>
    </contour>
    <component base="serif_sup_izq" xOffset="-10"/>
    <component base="serif_sup_der" xOffset="-40"/>
    <component base="serif_inf_der" xOffset="-13"/>
    <component base="serif_inf_izq" xOffset="-13"/>
  </outline>
</glyph>
<glyph name="ij" format="2">
  <advance width="533"/>
  <unicode hex="0133"/>
  <anchor x="135" y="0" name="bottom"/>
  <anchor x="135" y="520" name="top"/>
  <outline>
    <contour>
      <point x="86" y="-230" type="line"/>
      <point x="350" y="-230"/>
      <point x="411" y="-167"/>
      <point x="411" y="85" type="curve"/>
      <point x="411" y="132" type="line"/>
      <point x="396" y="132" type="line"/>
      <point x="396" y="-112"/>
      <point x="338" y="-173"/>
      <point x="86" y="-173" type="curve"/>
    </contour>
    <contour>
      <point x="127" y="83" type="line"/>
      <point x="142" y="83" type="line"/>
      <point x="142" y="435" type="line"/>
      <point x="127" y="435" type="line"/>
    </contour>
    <contour>
      <point x="396" y="114" type="line"/>
      <point x="411" y="114" type="line"/>
      <point x="411" y="435" type="line"/>
      <point x="396" y="435" type="line"/>
    </contour>
    <component base="serif_sup_izq" xOffset="-10"/>
    <component base="serif_sup_der" xOffset="-40"/>
    <component base="serif_inf_der" xOffset="-13"/>
    <component base="serif_inf_izq" xOffset="-13"/>
    <component base="dotaccent" xOffset="72"/>
    <component base="serif_sup_izq" xOffset="259"/>
    <component base="serif_sup_der" xOffset="229"/>
    <component base="dotaccent" xOffset="343"/>
  </outline>
</glyph>
<glyph name="kgreenlandic" format="2">
  <advance width="607"/>
  <unicode hex="0138"/>
  <outline>
    <contour>
      <point x="433" y="470" type="line"/>
      <point x="532" y="470" type="line"/>
      <point x="532" y="520" type="line"/>
      <point x="495" y="520"/>
      <point x="475" y="498"/>
      <point x="475" y="474" type="curve"/>
      <point x="490" y="474" type="line"/>
      <point x="490" y="498"/>
      <point x="470" y="520"/>
      <point x="433" y="520" type="curve"/>
    </contour>
    <contour>
      <point x="127" y="83" type="line"/>
      <point x="142" y="83" type="line"/>
      <point x="142" y="476" type="line"/>
      <point x="127" y="476" type="line"/>
    </contour>
    <contour>
      <point x="423" y="0" type="line"/>
      <point x="460" y="0"/>
      <point x="480" y="20"/>
      <point x="480" y="46" type="curve"/>
      <point x="465" y="46" type="line"/>
      <point x="465" y="22"/>
      <point x="485" y="0"/>
      <point x="522" y="0" type="curve"/>
      <point x="522" y="50" type="line"/>
      <point x="423" y="50" type="line"/>
    </contour>
    <contour>
      <point x="488" y="37" type="line"/>
      <point x="488" y="50" type="line"/>
      <point x="443" y="90" type="line"/>
      <point x="141" y="325" type="line"/>
      <point x="141" y="300" type="line"/>
      <point x="441" y="65" type="line"/>
    </contour>
    <contour>
      <point x="289" y="187" type="line"/>
      <point x="310" y="187" type="line"/>
      <point x="490" y="470" type="line"/>
      <point x="473" y="470" type="line"/>
      <point x="463" y="459" type="line"/>
    </contour>
    <component base="serif_sup_der" xOffset="-40" yOffset="1"/>
    <component base="serif_sup_izq" xOffset="-10" yOffset="1"/>
    <component base="serif_inf_der" xOffset="-13"/>
    <component base="serif_inf_izq" xOffset="-13"/>
  </outline>
</glyph>
<glyph name="Eng" format="2">
  <advance width="716"/>
  <unicode hex="014A"/>
  <anchor x="381" y="0" name="bottom"/>
  <anchor x="387" y="653" name="top"/>
  <outline>
    <contour>
      <point x="574" y="0" type="curve"/>
      <point x="574" y="50" type="line"/>
      <point x="440" y="50"/>
      <point x="382" y="76"/>
      <point x="369" y="312" type="curve" smooth="yes"/>
      <point x="353" y="606"/>
      <point x="327" y="680"/>
      <point x="110" y="680" type="curve"/>
      <point x="110" y="630" type="line"/>
      <point x="298" y="630"/>
      <point x="341" y="583"/>
      <point x="355" y="317" type="curve" smooth="yes"/>
      <point x="369" y="50"/>
      <point x="412" y="0"/>
    </contour>
    <contour>
      <point x="517" y="-230" type="curve"/>
      <point x="571" y="-230"/>
      <point x="574" y="-177"/>
      <point x="574" y="-125" type="curve" smooth="yes"/>
      <point x="574" y="-78" type="line"/>
      <point x="559" y="-78" type="line"/>
      <point x="559" y="-137"/>
      <point x="552" y="-173"/>
      <point x="517" y="-173" type="curve"/>
      <point x="517" y="-192"/>
      <point x="517" y="-211"/>
    </contour>
    <contour>
      <point x="142" y="60" type="line"/>
      <point x="157" y="60" type="line"/>
      <point x="157" y="640" type="line"/>
      <point x="142" y="640" type="line"/>
    </contour>
    <contour>
      <point x="559" y="-87" type="line"/>
      <point x="574" y="-87" type="line"/>
      <point x="574" y="595" type="line"/>
      <point x="559" y="595" type="line"/>
    </contour>
    <component base="serif_inf_der" xOffset="2"/>
    <component base="serif_inf_izq" xOffset="2"/>
    <component base="serif_sup_izq" xOffset="422" yOffset="160"/>
    <component base="serif_sup_der" xOffset="392" yOffset="160"/>
  </outline>
</glyph>
